<?xml version="1.0" encoding="utf-8"?>
<svg version="1.1" id="Layer_1" xmlns="http://www.w3.org/2000/svg" xmlns:xlink="http://www.w3.org/1999/xlink" x="0px" y="0px"
	 viewBox="0 0 295.6 300" style="enable-background:new 0 0 295.6 300;" xml:space="preserve">
<style type="text/css">
	.st0{fill:#38B549;stroke:#FFFFFF;stroke-width:3;stroke-miterlimit:10;}
	.st1{fill:#F15A28;stroke:#FFFFFF;stroke-width:3;stroke-miterlimit:10;}
	.st2{fill:#EC008C;stroke:#FFFFFF;stroke-width:3;stroke-miterlimit:10;}
	.st3{fill:#662C91;stroke:#FFFFFF;stroke-width:3;stroke-miterlimit:10;}
	.st4{fill:#59C7C4;stroke:#FFFFFF;stroke-width:3;stroke-miterlimit:10;}
	.st5{fill:#ED1B23;stroke:#FFFFFF;stroke-width:3;stroke-miterlimit:10;}
	.st6{fill:#00AEEF;stroke:#FFFFFF;stroke-width:3;stroke-miterlimit:10;}
	.st7{fill:#D7DF22;stroke:#FFFFFF;stroke-width:3;stroke-miterlimit:10;}
	.st8{fill:#F15A28;}
	.st9{fill:#59C7C4;}
	.st10{fill:#38B549;}
	.st11{fill:#D7DF22;}
	.st12{fill:#EC008C;}
	.st13{fill:#00AEEF;}
	.st14{fill:#662C91;}
	.st15{fill:#ED1B23;}
	.st16{fill:#FFFFFF;}
	.st17{fill:#B66CA2;}
	.st18{fill:#007FAF;}
	.st19{fill:#D72D5C;}
	.st20{fill:#FB4F14;}
	.st21{fill:#00C3E3;}
	.st22{fill:#FFAF12;}
	.st23{fill:#628930;stroke:#FFFFFF;stroke-miterlimit:10;}
	.st24{fill:#628930;}
	.st25{fill:#E58D00;stroke:#FFFFFF;stroke-miterlimit:10;}
	.st26{fill:#E58D00;}
	.st27{fill:#B53C3C;stroke:#FFFFFF;stroke-miterlimit:10;}
	.st28{fill:#B53C3C;}
	.st29{fill:#2773B7;stroke:#FFFFFF;stroke-miterlimit:10;}
	.st30{fill:#2773B7;}
</style>
<g>
	<path class="st0" d="M295.6,198.2l0-96.3c0-6-6.1-10.2-11.7-7.9l-117,48.2c-7,2.9-7.1,12.8,0,15.7l117,48.2
		C289.4,208.3,295.6,204.2,295.6,198.2z"/>
	<path class="st1" d="M99.6,297.8l96.3,0c6,0,10.2-6.1,7.9-11.7l-48.2-117c-2.9-7-12.8-7.1-15.7,0l-48.2,117
		C89.5,291.6,93.6,297.8,99.6,297.8z"/>
	<path class="st2" d="M195.9,2.2l-96.3,0c-6.1,0-10.2,6.1-7.9,11.7l48.2,117c2.9,7,12.8,7.1,15.7,0l48.2-117
		C206.1,8.4,202,2.2,195.9,2.2z"/>
	<path class="st3" d="M0,101.8l0,96.3c0,6.1,6.1,10.2,11.7,7.9l117-48.2c7-2.9,7.1-12.8,0-15.7L11.7,94C6.2,91.7,0,95.8,0,101.8z"/>
	<path class="st4" d="M218.3,288.5l68.1-68.1c4.3-4.2,2.8-11.5-2.7-13.8l-116.8-48.7c-7-2.9-14,4.1-11.1,11.1l48.6,116.8
		C206.8,291.4,214,292.8,218.3,288.5z"/>
	<path class="st5" d="M9.3,220.4l68.1,68.1c4.2,4.3,11.5,2.8,13.8-2.7l48.7-116.8c2.9-7-4.1-14-11.1-11.1L12,206.6
		C6.4,208.9,5,216.2,9.3,220.4z"/>
	<path class="st6" d="M77.4,11.4L9.3,79.5C5,83.8,6.5,91.1,12,93.4L128.8,142c7,2.9,14-4.1,11.1-11.1L91.2,14.1
		C88.9,8.6,81.7,7.1,77.4,11.4z"/>
	<path class="st7" d="M286.4,79.5l-68.1-68.1c-4.2-4.3-11.5-2.8-13.8,2.7l-48.7,116.8c-2.9,7,4.1,14,11.1,11.1l116.8-48.6
		C289.3,91.1,290.7,83.8,286.4,79.5z"/>
	<g>
		
			<image style="overflow:visible;opacity:0.5;" width="112" height="129" xlink:href="/images/357361F3.png"  transform="matrix(1 0 0 1 95 174)">
		</image>
		<g>
			<path class="st8" d="M108.5,290.6l79.3,0c5,0,8.4-5,6.5-9.6l-39.7-96.3c-2.4-5.8-10.5-5.8-12.9,0L102.1,281
				C100.2,285.6,103.5,290.6,108.5,290.6z"/>
		</g>
	</g>
	<g>
		
			<image style="overflow:visible;opacity:0.5;" width="129" height="129" xlink:href="/images/357361F1.png"  transform="matrix(1 0 0 1 161 163)">
		</image>
		<g>
			<path class="st9" d="M219.4,277.2l56.1-56.1c3.5-3.5,2.3-9.5-2.2-11.4l-96.1-40c-5.8-2.4-11.6,3.4-9.2,9.2L208,275
				C209.9,279.6,215.9,280.7,219.4,277.2z"/>
		</g>
	</g>
	<g>
		
			<image style="overflow:visible;opacity:0.5;" width="129" height="113" xlink:href="/images/357361F7.png"  transform="matrix(1 0 0 1 172 96)">
		</image>
		<g>
			<path class="st10" d="M288.4,189.3l0-79.3c0-5-5-8.4-9.6-6.5l-96.3,39.7c-5.8,2.4-5.8,10.5,0,12.9l96.3,39.6
				C283.3,197.7,288.4,194.3,288.4,189.3z"/>
		</g>
	</g>
	<g>
		
			<image style="overflow:visible;opacity:0.5;" width="130" height="129" xlink:href="/images/357361F0.png"  transform="matrix(1 0 0 1 160 14)">
		</image>
		<g>
			<path class="st11" d="M275,78.4l-56.1-56.1c-3.5-3.5-9.5-2.3-11.4,2.2l-40,96.1c-2.4,5.8,3.4,11.6,9.2,9.2l96.1-40.1
				C277.3,87.9,278.5,81.9,275,78.4z"/>
		</g>
	</g>
	<g>
		
			<image style="overflow:visible;opacity:0.5;" width="113" height="129" xlink:href="/images/357361FE.png"  transform="matrix(1 0 0 1 94 3)">
		</image>
		<g>
			<path class="st12" d="M187.1,9.4l-79.3,0c-5,0-8.4,5-6.5,9.6l39.7,96.3c2.4,5.8,10.5,5.8,12.9,0l39.6-96.3
				C195.4,14.5,192.1,9.5,187.1,9.4z"/>
		</g>
	</g>
	<g>
		
			<image style="overflow:visible;opacity:0.5;" width="129" height="129" xlink:href="/images/357361FF.png"  transform="matrix(1 0 0 1 12 14)">
		</image>
		<g>
			<path class="st13" d="M76.2,22.8L20.1,78.9c-3.5,3.5-2.3,9.5,2.2,11.4l96.1,40c5.8,2.4,11.6-3.4,9.2-9.2L87.6,25.1
				C85.7,20.5,79.7,19.3,76.2,22.8z"/>
		</g>
	</g>
	<g>
		
			<image style="overflow:visible;opacity:0.5;" width="129" height="113" xlink:href="/images/357361F2.png"  transform="matrix(1 0 0 1 1 97)">
		</image>
		<g>
			<path class="st14" d="M7.2,110.8l0,79.3c0,5,5,8.4,9.6,6.5l96.3-39.7c5.8-2.4,5.8-10.5,0-12.9l-96.3-39.6
				C12.3,102.4,7.2,105.8,7.2,110.8z"/>
		</g>
	</g>
	<g>
		
			<image style="overflow:visible;opacity:0.5;" width="129" height="129" xlink:href="/images/357361F5.png"  transform="matrix(1 0 0 1 12 163)">
		</image>
		<g>
			<path class="st15" d="M20.6,221.7l56.1,56.1c3.5,3.5,9.5,2.3,11.4-2.2l40-96.1c2.4-5.8-3.4-11.6-9.2-9.2l-96.1,40.1
				C18.3,212.2,17.1,218.1,20.6,221.7z"/>
		</g>
	</g>
</g>
<g>
	<path class="st16" d="M51.5,229l3.8-3.8l0.6,0.6l-1.4,1.4l1.6,1.6l1.4-1.4l0.6,0.6l-3.8,3.8L51.5,229z M55.5,229.3l-1.6-1.6
		l-1.4,1.4l1.6,1.6L55.5,229.3z M59.6,228.7l0.6,0.6l-5.7,5.7l-0.6-0.6L59.6,228.7z"/>
	<path class="st16" d="M59,233.5l1.6-1.7l0.5,0.5l-1.6,1.7l0.5,0.5c0.1,0.1,0.2,0.2,0.3,0.3c0.1,0.1,0.2,0.2,0.3,0.3l1.7-1.6
		l0.5,0.5l-1.7,1.6c0.2,0.2,0.3,0.3,0.5,0.4c0.1,0.1,0.3,0.3,0.5,0.3l-0.4,0.4c-0.2-0.1-0.3-0.2-0.5-0.3c-0.2-0.1-0.4-0.3-0.5-0.4
		c-0.2-0.2-0.4-0.3-0.6-0.5c-0.2-0.2-0.3-0.3-0.5-0.5l-1.8-1.8l0.5-0.5L59,233.5L59,233.5L59,233.5z M60.3,231l0.5-0.5l3.3,3.3
		l-0.5,0.5L60.3,231z M60,240.4l-3.6-3.6l1.7-1.7l0.6,0.6l-1.2,1.2l3,3L60,240.4L60,240.4z M64.3,237.6l-0.9-0.9l-2.2,2.2l-0.6-0.6
		l4.2-4.2l0.6,0.6l-1.6,1.6l0.9,0.9L64.3,237.6z"/>
	<path class="st16" d="M67.3,240c0,0.2,0,0.4,0,0.6c0,0.2,0,0.4,0.1,0.6c0,0.2,0,0.4,0.1,0.6c0,0.2,0.1,0.4,0.1,0.6l-0.7,0
		c-0.1-0.3-0.2-0.8-0.2-1.2c0-0.4,0-0.8,0-1.2c-0.3,0-0.6,0-0.9,0c-0.3,0-0.6,0-0.8-0.1c-0.3-0.1-0.5-0.1-0.7-0.2
		c-0.3-0.1-0.4-0.2-0.6-0.3l0-0.7c0.4,0.2,0.8,0.3,1.2,0.4c0.4,0.1,0.9,0.2,1.3,0.2c0.4,0,0.8,0,1.2-0.1c0.3-0.1,0.7-0.2,1-0.4
		c-0.3-0.3-0.5-0.5-0.7-0.7c-0.2-0.2-0.4-0.4-0.7-0.7l-0.6-0.6l0.5-0.5l1,1c0.3,0.3,0.6,0.6,0.8,0.8s0.6,0.6,0.9,0.9
		c-0.3,0.3-0.6,0.5-1,0.6C68.1,239.9,67.7,240,67.3,240z M65.1,245.8l1.6-1.6l-3.2-3.2l0.5-0.5l3.7,3.7l-2.1,2.1L65.1,245.8z
		 M68,240.9l0.5-0.5l1,1l1.4-1.4l0.6,0.6l-3.4,3.4l-0.6-0.6l1.5-1.5L68,240.9L68,240.9z"/>
	<path class="st16" d="M67,247.9l-0.5-0.5l7.7-4.2l0.5,0.5L67,247.9z"/>
	<path class="st16" d="M41.2,234.9l-0.6-0.6l1.2-1.2l-2.6-2.6l0.5-0.5l5.5,5.5l-0.5,0.5l-2.4-2.4L41.2,234.9z M41.9,237.5l-3.9-3.9
		l1.6-1.6l0.6,0.6l-1.2,1.2l3.3,3.3L41.9,237.5L41.9,237.5z M41.3,230.4l2.3-2.3l0.6,0.6l-0.7,0.7l2.5,2.5l0.7-0.7l0.6,0.6L45,234
		L41.3,230.4z M45.5,232.3l-2.5-2.5l-0.6,0.6l2.5,2.5L45.5,232.3z"/>
	<path class="st16" d="M50.5,235.1c-0.4,0.4-0.8,0.7-1.2,0.9c-0.2,0.5-0.3,1-0.2,1.5c0,0.5,0.1,1,0.3,1.5l-0.7,0
		c-0.1-0.5-0.3-0.9-0.3-1.4c0-0.5,0-0.9,0.1-1.3c-0.5,0.1-0.9,0.3-1.5,0.3c-0.5,0-1,0-1.5-0.2l0-0.7c0.9,0.3,1.6,0.3,2.4,0.1
		c0.7-0.2,1.4-0.6,2-1.3L50.5,235.1L50.5,235.1L50.5,235.1L50.5,235.1z M46.9,242.8l1.6-1.6l-3.2-3.2l0.5-0.5l3.7,3.7l-2.1,2.1
		L46.9,242.8z M49.8,237.5l0.5-0.5l1.2,1.2l1.2-1.2l0.6,0.6l-3.3,3.3l-0.6-0.6l1.7-1.7L49.8,237.5z"/>
	<path class="st16" d="M54.8,242.7c0,0.2,0,0.4,0,0.6s0,0.4,0.1,0.6c0,0.2,0,0.4,0.1,0.6c0,0.2,0.1,0.4,0.1,0.6l-0.7,0
		c-0.1-0.3-0.2-0.8-0.2-1.2c0-0.4,0-0.8,0-1.2c-0.3,0-0.6,0-0.9,0c-0.3,0-0.6,0-0.8-0.1c-0.3-0.1-0.5-0.1-0.7-0.2
		c-0.3-0.1-0.4-0.2-0.6-0.3l0-0.7c0.4,0.2,0.8,0.3,1.2,0.4c0.4,0.1,0.9,0.2,1.3,0.2c0.4,0,0.8,0,1.2-0.1c0.3-0.1,0.7-0.2,1-0.4
		c-0.3-0.3-0.5-0.5-0.7-0.7c-0.2-0.2-0.4-0.4-0.7-0.7l-0.6-0.6l0.5-0.5l1,1c0.3,0.3,0.6,0.6,0.8,0.8c0.3,0.3,0.6,0.6,0.9,0.9
		c-0.3,0.3-0.6,0.5-1,0.6C55.6,242.5,55.2,242.6,54.8,242.7z M52.5,248.4l1.6-1.6l-3.2-3.2l0.5-0.5l3.7,3.7l-2.1,2.1L52.5,248.4z
		 M55.5,243.5L56,243l1,1l1.4-1.4l0.6,0.6l-3.4,3.4l-0.6-0.6l1.5-1.5L55.5,243.5L55.5,243.5z"/>
	<path class="st16" d="M56.8,250.1l0-0.7c0.4,0.1,0.9,0.1,1.4,0.1c0.5,0,0.9-0.1,1.4-0.3s0.9-0.4,1.4-0.7c0.5-0.3,0.9-0.7,1.3-1.2
		l0.6,0.6c-0.3,0.3-0.6,0.6-0.8,0.7c-0.3,0.2-0.5,0.4-0.9,0.6c-0.3,0.6-0.4,1.2-0.6,1.8c-0.1,0.6-0.1,1.3,0,1.9l-0.7,0
		c-0.1-0.5-0.1-1.1-0.1-1.6c0-0.6,0.2-1.1,0.4-1.7c-0.6,0.3-1.2,0.4-1.8,0.5C58,250.2,57.4,250.2,56.8,250.1z M63.9,253.7l-1-1l-3,3
		l-0.6-0.6l5.7-5.7l0.6,0.6l-2.3,2.3l1,1L63.9,253.7z"/>
	<path class="st16" d="M67.2,261.3l-5.4-5.4l0.5-0.5l2.1,2.1l2.1-2.1l0.6,0.6l-2.1,2.1l2.7,2.7L67.2,261.3L67.2,261.3z M67.2,259
		l-0.6-0.6c0.6-0.3,1.1-0.6,1.6-1.1c0.5-0.4,1-0.9,1.5-1.3l-3.2-3.2l0.5-0.5l3.7,3.7c-0.3,0.3-0.5,0.5-0.9,0.8
		c-0.3,0.3-0.6,0.5-0.9,0.8c-0.3,0.3-0.6,0.5-0.9,0.7C67.8,258.6,67.5,258.8,67.2,259z"/>
</g>
<g>
	<path class="st16" d="M139.8,277.2c0.5,0.4,1.1,0.7,1.8,1l-0.5,0.5c-0.3-0.1-0.7-0.3-1-0.5c-0.3-0.2-0.6-0.4-0.9-0.7
		c-0.4,0.3-0.7,0.5-1.1,0.8c-0.4,0.2-0.8,0.4-1.2,0.5l-0.5-0.5c0.4-0.1,0.8-0.3,1.2-0.5c0.4-0.2,0.7-0.4,1-0.6
		c0.3-0.2,0.5-0.4,0.7-0.7c0.2-0.2,0.4-0.5,0.5-0.7c-0.4,0-0.7,0-1,0c-0.3,0-0.7,0-1,0h-0.9v-0.6h1.5c0.4,0,0.8,0,1.2,0
		c0.4,0,0.8,0,1.2,0c-0.1,0.3-0.2,0.6-0.4,0.9C140.3,276.6,140,276.9,139.8,277.2z M142.9,280.9c0,0.2-0.1,0.4-0.2,0.6
		c-0.1,0.2-0.3,0.4-0.5,0.5c-0.2,0.1-0.5,0.2-0.8,0.3c-0.4,0.1-0.7,0.1-1.2,0.1s-0.8-0.1-1.1-0.1c-0.3-0.1-0.6-0.2-0.9-0.3
		s-0.4-0.3-0.5-0.5c-0.1-0.2-0.2-0.4-0.2-0.6c0-0.4,0.2-0.8,0.7-1.1c0.4-0.3,1.1-0.4,2-0.4c0.9,0,1.5,0.1,2,0.4
		C142.8,280.1,142.9,280.4,142.9,280.9z M137.7,274.2h2.4v0.6h-2.4V274.2z M142.2,280.9c0-0.2-0.1-0.4-0.4-0.6
		c-0.3-0.2-0.8-0.2-1.4-0.2s-1.1,0.1-1.4,0.2c-0.3,0.2-0.4,0.4-0.4,0.6c0,0.2,0.1,0.4,0.4,0.6c0.3,0.2,0.8,0.2,1.4,0.2
		c0.7,0,1.1-0.1,1.4-0.2C142,281.3,142.2,281.1,142.2,280.9z M144.2,276.9h-1.3v2.3h-0.8v-5h0.8v2.1h1.3V276.9z"/>
	<path class="st16" d="M144.5,279.9h1.6c0.3,0,0.6,0,1,0c0.4,0,0.7,0,1.1-0.1c0.4,0,0.7-0.1,1.1-0.1c0.4,0,0.7-0.1,1-0.1v0.7
		c-0.3,0.1-0.6,0.1-1,0.1c-0.4,0-0.7,0.1-1,0.1c-0.4,0-0.7,0.1-1.1,0.1s-0.7,0-1,0h-1.6L144.5,279.9L144.5,279.9z M149.2,276.7
		c0,0.3-0.1,0.5-0.1,0.8c-0.1,0.2-0.2,0.5-0.4,0.7c-0.2,0.2-0.4,0.3-0.7,0.4c-0.2,0.1-0.5,0.2-0.8,0.2c-0.3,0-0.6-0.1-0.9-0.2
		c-0.2-0.1-0.5-0.2-0.7-0.4c-0.2-0.2-0.3-0.4-0.4-0.7c-0.1-0.2-0.1-0.5-0.1-0.8c0-0.2,0.1-0.5,0.1-0.8c0.1-0.2,0.2-0.5,0.4-0.7
		c0.2-0.2,0.4-0.3,0.7-0.4c0.2-0.1,0.5-0.2,0.9-0.2c0.3,0,0.6,0.1,0.8,0.2c0.2,0.1,0.5,0.2,0.7,0.4c0.2,0.2,0.3,0.4,0.4,0.7
		C149.2,276.1,149.2,276.4,149.2,276.7z M148.5,276.7c0-0.4-0.1-0.8-0.4-1c-0.2-0.2-0.5-0.4-1-0.4c-0.4,0-0.7,0.1-1,0.4
		c-0.2,0.2-0.4,0.6-0.4,1c0,0.4,0.1,0.8,0.4,1c0.2,0.2,0.5,0.4,1,0.4c0.4,0,0.7-0.1,1-0.4C148.3,277.5,148.5,277.2,148.5,276.7z
		 M151.4,282.3h-0.7v-8.1h0.7V282.3z"/>
	<path class="st16" d="M153.6,278.1h0.8c0.4,0,0.7,0,1,0s0.5-0.1,0.9-0.1c0.2,0,0.5-0.1,0.7-0.1c0.2-0.1,0.5-0.1,0.7-0.1v0.6
		c-0.5,0.1-1,0.2-1.5,0.2c-0.5,0.1-1.2,0.1-1.8,0.1h-1.5v-2.5h2.7v-1.2h-2.8v-0.7h3.5v2.4h-2.7L153.6,278.1L153.6,278.1L153.6,278.1
		z M158.4,282.3v-2.1h-4.5v-0.7h5.3v2.7H158.4z M157,275.9v-0.6h1.3v-1.1h0.8v5h-0.8v-1.8H157v-0.6h1.4V276H157V275.9z"/>
</g>
<g>
	<path class="st16" d="M235,50.1l2.3-2.3l0.6,0.6l-0.7,0.7l2.5,2.5l0.7-0.7l0.6,0.6l-2.3,2.3l-1.5-1.5l-0.7,0.7l2.5,2.5l-0.5,0.5
		l-5.5-5.5l0.5-0.5l2.4,2.4l0.7-0.7L235,50.1z M234.7,56.7l1.3-1.3l-3.3-3.3l0.5-0.5l3.8,3.8l-1.8,1.8L234.7,56.7L234.7,56.7
		L234.7,56.7z M239.2,52.1l-2.5-2.5l-0.7,0.7l2.5,2.5L239.2,52.1z"/>
	<path class="st16" d="M240.9,53.7l0.4-0.4l3.4,3.4l-0.4,0.4L240.9,53.7z M240.5,57.5c-0.3-0.3-0.4-0.5-0.6-0.7
		c-0.1-0.2-0.2-0.5-0.2-0.6c0-0.2,0-0.4,0-0.6c0.1-0.2,0.1-0.3,0.3-0.4c0.1-0.1,0.3-0.2,0.4-0.3c0.2-0.1,0.3-0.1,0.6,0
		c0.2,0,0.4,0.1,0.6,0.2c0.2,0.1,0.5,0.3,0.7,0.6c0.3,0.3,0.4,0.5,0.6,0.7c0.1,0.2,0.2,0.5,0.2,0.6c0,0.2,0,0.4,0,0.6
		c-0.1,0.2-0.1,0.3-0.3,0.4c-0.1,0.1-0.3,0.2-0.4,0.3c-0.2,0.1-0.3,0.1-0.6,0c-0.2,0-0.4-0.1-0.6-0.2
		C240.9,58,240.8,57.8,240.5,57.5z M242.4,53.7l0.4-0.4l1.9,1.9l-0.4,0.4L242.4,53.7z M240.9,57.2c0.2,0.2,0.3,0.3,0.4,0.3
		s0.3,0.1,0.4,0.1c0.1,0,0.2,0,0.3,0c0.1,0,0.2-0.1,0.2-0.1c0,0,0.1-0.1,0.1-0.2c0-0.1,0-0.2,0-0.3c0-0.1-0.1-0.3-0.1-0.4
		c-0.1-0.2-0.2-0.3-0.3-0.4c-0.2-0.2-0.3-0.3-0.4-0.3c-0.1,0-0.3-0.1-0.4-0.1c-0.1,0-0.2,0-0.3,0c-0.1,0-0.2,0.1-0.2,0.1
		c-0.1,0.1-0.2,0.3-0.1,0.6C240.4,56.6,240.6,56.9,240.9,57.2z M240.9,62.8l-3.6-3.6l2-2l0.6,0.6l-0.6,0.6l2.5,2.5l0.6-0.6l0.6,0.6
		L240.9,62.8L240.9,62.8L240.9,62.8z M240.8,61.8l0.6-0.6l-2.5-2.5l-0.6,0.6L240.8,61.8z M245.5,60l-0.9-0.9l-1.3,1.3l-0.6-0.6
		l3.3-3.3l0.6,0.6l-1.5,1.5l0.9,0.9L245.5,60z"/>
	<path class="st16" d="M248.4,62.5c0,0.2,0,0.4,0,0.6c0,0.2,0,0.4,0.1,0.6c0,0.2,0,0.4,0.1,0.6c0,0.2,0.1,0.4,0.1,0.6l-0.7,0
		c-0.1-0.3-0.2-0.8-0.2-1.2c0-0.4,0-0.8,0-1.2c-0.3,0-0.6,0-0.9,0c-0.3,0-0.6,0-0.8-0.1c-0.3-0.1-0.5-0.1-0.7-0.2
		c-0.3-0.1-0.4-0.2-0.6-0.3l0-0.7c0.4,0.2,0.8,0.3,1.2,0.4c0.4,0.1,0.9,0.2,1.3,0.2c0.4,0,0.8,0,1.2-0.1c0.3-0.1,0.7-0.2,1-0.4
		c-0.3-0.3-0.5-0.5-0.7-0.7c-0.2-0.2-0.4-0.4-0.7-0.7l-0.6-0.6l0.5-0.5l1,1c0.3,0.3,0.6,0.6,0.8,0.8s0.6,0.6,0.9,0.9
		c-0.3,0.3-0.6,0.5-1,0.6C249.2,62.3,248.8,62.4,248.4,62.5z M246.2,68.2l1.6-1.6l-3.2-3.2l0.5-0.5l3.7,3.7l-2.1,2.1L246.2,68.2
		L246.2,68.2z M249.1,63.3l0.5-0.5l1,1l1.4-1.4l0.6,0.6l-3.4,3.4l-0.6-0.6l1.5-1.5L249.1,63.3L249.1,63.3z"/>
	<path class="st16" d="M222.1,55.9l1.2,1.2c0.2,0.2,0.4,0.4,0.7,0.7c0.3,0.3,0.5,0.5,0.8,0.7c0.3,0.2,0.6,0.5,0.8,0.7
		c0.3,0.3,0.5,0.4,0.8,0.6l-0.5,0.5c-0.3-0.2-0.5-0.4-0.8-0.6c-0.3-0.2-0.5-0.4-0.8-0.7s-0.6-0.5-0.8-0.7c-0.3-0.3-0.5-0.5-0.7-0.7
		l-1.2-1.2L222.1,55.9L222.1,55.9z M227.7,56.9c-0.2,0.2-0.4,0.3-0.6,0.5c-0.3,0.1-0.5,0.2-0.8,0.2c-0.3,0-0.5-0.1-0.8-0.2
		s-0.5-0.3-0.7-0.5c-0.2-0.2-0.4-0.5-0.5-0.7s-0.2-0.5-0.2-0.8c0-0.3,0.1-0.5,0.2-0.8c0.1-0.3,0.3-0.5,0.5-0.6
		c0.2-0.2,0.4-0.3,0.6-0.5c0.2-0.1,0.5-0.2,0.8-0.2c0.3,0,0.5,0.1,0.8,0.2c0.3,0.1,0.5,0.3,0.7,0.5c0.2,0.2,0.4,0.5,0.5,0.7
		c0.1,0.3,0.2,0.5,0.2,0.8c0,0.3-0.1,0.5-0.2,0.8C228.1,56.6,227.9,56.8,227.7,56.9z M227.2,56.4c0.3-0.3,0.5-0.6,0.5-1
		c0-0.3-0.1-0.6-0.4-0.9c-0.3-0.3-0.6-0.4-0.9-0.4c-0.3,0-0.7,0.2-1,0.5c-0.3,0.3-0.5,0.6-0.5,1c0,0.3,0.1,0.6,0.4,0.9
		c0.3,0.3,0.6,0.4,0.9,0.4C226.5,56.9,226.9,56.7,227.2,56.4z M225.2,62.4l-0.5-0.5l5.7-5.7l0.5,0.5L225.2,62.4z"/>
	<path class="st16" d="M227.4,62l0-0.7c0.4,0.1,0.9,0.1,1.4,0.1c0.5,0,0.9-0.1,1.4-0.3c0.5-0.1,0.9-0.4,1.4-0.7
		c0.5-0.3,0.9-0.7,1.3-1.2l0.6,0.6c-0.3,0.3-0.6,0.6-0.8,0.7c-0.3,0.2-0.5,0.4-0.9,0.6c-0.3,0.6-0.4,1.2-0.6,1.8
		c-0.1,0.6-0.1,1.3,0,1.9l-0.7,0c-0.1-0.5-0.1-1.1-0.1-1.6c0-0.6,0.2-1.1,0.4-1.7c-0.6,0.3-1.2,0.4-1.8,0.5
		C228.5,62.1,227.9,62.1,227.4,62z M234.4,65.6l-1-1l-3,3l-0.6-0.6l5.8-5.8l0.6,0.6l-2.3,2.3l1,1L234.4,65.6z"/>
	<path class="st16" d="M237.8,73.2l-5.4-5.4l0.5-0.5l2.4,2.4l1.5-1.5l0.6,0.6l-1.5,1.5l2.4,2.4L237.8,73.2L237.8,73.2z M239.2,67
		c-0.2,0.7-0.3,1.4-0.2,2c0,0.6,0.3,1.3,0.6,1.9l-0.8,0.1c-0.3-0.5-0.4-1.1-0.5-1.8c0-0.6,0-1.3,0.2-1.9c-0.6,0.2-1.2,0.3-1.8,0.2
		c-0.6-0.1-1.2-0.3-1.8-0.5l0.1-0.8c0.4,0.2,0.9,0.3,1.2,0.5c0.4,0.1,0.8,0.1,1.2,0.1c0.4,0,0.8-0.2,1.2-0.3
		c0.3-0.2,0.7-0.5,1.1-0.8l0.6,0.6C239.8,66.5,239.5,66.8,239.2,67z"/>
	<path class="st16" d="M241.4,71.9l2.3-2.3l3.7,3.7l-0.5,0.5l-3.1-3.1l-0.5,0.5l3,3l-0.4,0.4l-3-3l-0.5,0.5l3.2,3.2l-0.4,0.4
		l-1.7-1.7l-0.6,0.6l2.5,2.5l-0.5,0.5l-5.5-5.5l0.5-0.5l2.4,2.4l0.6-0.6L241.4,71.9L241.4,71.9z M242.8,78.1
		c-0.1,0.1-0.3,0.2-0.5,0.3c-0.2,0-0.4,0-0.7-0.1c-0.3-0.1-0.6-0.2-0.8-0.4c-0.3-0.2-0.6-0.4-0.9-0.8c-0.6-0.6-1.1-1.2-1.2-1.7
		c-0.2-0.5-0.1-0.9,0.2-1.2c0.1-0.1,0.3-0.2,0.5-0.3c0.2,0,0.4,0,0.7,0.1c0.3,0.1,0.6,0.2,0.8,0.4c0.3,0.2,0.6,0.4,0.9,0.8
		c0.3,0.3,0.6,0.6,0.8,0.9c0.2,0.3,0.3,0.6,0.4,0.8c0.1,0.3,0.1,0.5,0.1,0.7C243,77.8,242.9,78,242.8,78.1z M242.2,77.5
		c0.1-0.1,0.1-0.2,0.1-0.3c0-0.1,0-0.3,0-0.4c-0.1-0.2-0.2-0.3-0.3-0.6c-0.1-0.2-0.3-0.4-0.6-0.7c-0.3-0.3-0.5-0.5-0.7-0.6
		c-0.2-0.1-0.4-0.2-0.6-0.3c-0.2-0.1-0.3,0-0.4,0c-0.1,0-0.2,0-0.3,0.1c-0.1,0.1-0.1,0.2-0.1,0.3c0,0.1,0,0.3,0,0.4
		c0.1,0.2,0.2,0.3,0.3,0.6c0.1,0.2,0.3,0.4,0.6,0.7c0.3,0.3,0.5,0.5,0.7,0.6c0.2,0.1,0.4,0.2,0.6,0.3c0.2,0.1,0.3,0,0.4,0
		C242.1,77.6,242.1,77.6,242.2,77.5z"/>
</g>
<g>
	<path class="st16" d="M132.5,24.3v-0.6h4.7v0.6H132.5z M134.8,27.2c-0.3,0-0.6-0.1-0.9-0.1c-0.2-0.1-0.4-0.2-0.6-0.3
		c-0.2-0.1-0.3-0.2-0.4-0.4c-0.1-0.2-0.1-0.3-0.1-0.5c0-0.2,0.1-0.3,0.1-0.5c0.1-0.2,0.2-0.3,0.4-0.4c0.2-0.1,0.4-0.2,0.6-0.3
		c0.2-0.1,0.5-0.1,0.9-0.1c0.3,0,0.6,0.1,0.9,0.1c0.2,0.1,0.4,0.2,0.6,0.3c0.2,0.1,0.3,0.2,0.4,0.4c0.1,0.2,0.1,0.3,0.1,0.5
		c0,0.2-0.1,0.4-0.1,0.5c-0.1,0.2-0.2,0.3-0.4,0.4c-0.2,0.1-0.4,0.2-0.6,0.3C135.5,27.2,135.2,27.2,134.8,27.2z M133.5,23.2v-0.6
		h2.7v0.6H133.5z M134.8,26.6c0.4,0,0.7-0.1,0.9-0.2c0.2-0.1,0.2-0.3,0.2-0.5c0-0.1,0-0.2-0.1-0.2c-0.1-0.1-0.1-0.2-0.2-0.2
		c-0.1-0.1-0.2-0.1-0.4-0.2s-0.3-0.1-0.5-0.1c-0.2,0-0.4,0-0.5,0.1c-0.1,0.1-0.2,0.1-0.4,0.2c-0.1,0.1-0.2,0.1-0.2,0.2
		c-0.1,0.1-0.1,0.2-0.1,0.2c0,0.1,0,0.2,0.1,0.2c0.1,0.1,0.1,0.2,0.2,0.2c0.1,0.1,0.2,0.1,0.4,0.2C134.4,26.6,134.6,26.6,134.8,26.6
		z M139.2,30.7h-5.1v-2.9h0.8v0.8h3.6v-0.8h0.8L139.2,30.7L139.2,30.7z M138.4,30v-0.9h-3.6V30H138.4z M137,25.3v-0.6h1.3v-2h0.8
		v4.6h-0.8v-0.5H137v-0.6h1.4v-0.9L137,25.3L137,25.3z"/>
	<path class="st16" d="M144.9,24.4h1.5v-1.7h0.8v4.2h-0.8v-1.8h-1.5c-0.1,0.2-0.1,0.5-0.2,0.7c-0.1,0.2-0.2,0.4-0.4,0.5
		c-0.2,0.1-0.4,0.2-0.6,0.4c-0.2,0.1-0.5,0.1-0.8,0.1c-0.3,0-0.5-0.1-0.8-0.1c-0.2-0.1-0.5-0.2-0.7-0.4c-0.2-0.2-0.3-0.4-0.4-0.6
		c-0.1-0.2-0.2-0.5-0.2-0.8c0-0.3,0.1-0.5,0.2-0.8c0.1-0.2,0.2-0.4,0.4-0.6c0.2-0.2,0.4-0.3,0.7-0.4c0.2-0.1,0.5-0.1,0.8-0.1
		c0.2,0,0.5,0.1,0.7,0.1c0.2,0.1,0.4,0.2,0.6,0.3c0.2,0.1,0.3,0.3,0.4,0.5C144.7,24,144.8,24.1,144.9,24.4z M142.8,23.5
		c-0.4,0-0.7,0.1-0.9,0.4c-0.2,0.2-0.4,0.5-0.4,1c0,0.2,0.1,0.4,0.1,0.5c0.1,0.2,0.1,0.3,0.2,0.4c0.1,0.1,0.2,0.2,0.4,0.2
		c0.2,0.1,0.4,0.1,0.5,0.1s0.4-0.1,0.5-0.1c0.2-0.1,0.3-0.1,0.4-0.2c0.1-0.1,0.2-0.2,0.2-0.4c0.1-0.2,0.1-0.4,0.1-0.5
		c0-0.4-0.1-0.7-0.4-1C143.6,23.6,143.2,23.5,142.8,23.5z M147.2,30.7h-5.1v-3.3h0.8v1h3.6v-1h0.8L147.2,30.7L147.2,30.7L147.2,30.7
		z M146.4,30v-1.1h-3.6V30H146.4z"/>
	<path class="st16" d="M156,26.3V27h-7.8v-0.7H156z M154.9,29.3c0,0.2-0.1,0.4-0.2,0.6c-0.1,0.2-0.3,0.4-0.5,0.5
		c-0.2,0.1-0.5,0.2-0.9,0.4c-0.3,0.1-0.7,0.1-1.2,0.1s-0.9-0.1-1.2-0.1c-0.4-0.1-0.6-0.2-0.9-0.4c-0.2-0.1-0.4-0.3-0.5-0.5
		s-0.2-0.4-0.2-0.6c0-0.2,0.1-0.4,0.2-0.6c0.1-0.2,0.3-0.4,0.5-0.5c0.2-0.1,0.5-0.2,0.9-0.3c0.3-0.1,0.7-0.1,1.2-0.1
		c0.4,0,0.9,0.1,1.2,0.1c0.4,0.1,0.6,0.2,0.9,0.3c0.2,0.1,0.4,0.3,0.5,0.5C154.8,28.8,154.9,29.1,154.9,29.3z M149.5,22.7h0.8v1.9
		h4.5v0.7h-5.3V22.7L149.5,22.7z M154.1,29.3c0-0.1-0.1-0.2-0.1-0.4c-0.1-0.1-0.2-0.2-0.3-0.3c-0.2-0.1-0.4-0.2-0.6-0.2
		c-0.2-0.1-0.5-0.1-0.9-0.1s-0.7,0-0.9,0.1c-0.2,0.1-0.4,0.1-0.6,0.2c-0.2,0.1-0.2,0.2-0.3,0.3c-0.1,0.1-0.1,0.2-0.1,0.4
		c0,0.1,0.1,0.2,0.1,0.4c0.1,0.1,0.2,0.2,0.3,0.3c0.2,0.1,0.4,0.2,0.6,0.2c0.2,0.1,0.5,0.1,0.9,0.1s0.7,0,0.9-0.1
		c0.2-0.1,0.4-0.1,0.6-0.2c0.2-0.1,0.2-0.2,0.3-0.3C154,29.5,154.1,29.4,154.1,29.3z"/>
	<path class="st16" d="M157.5,26.6h0.8c0.4,0,0.7,0,1,0c0.3,0,0.5-0.1,0.8-0.1c0.2,0,0.5-0.1,0.7-0.1c0.2-0.1,0.5-0.1,0.7-0.1v0.6
		c-0.5,0.1-1,0.2-1.5,0.2c-0.5,0.1-1.1,0.1-1.8,0.1h-1.5v-2.5h2.7v-1.2h-2.7v-0.7h3.5v2.4h-2.7L157.5,26.6L157.5,26.6z M162.3,30.9
		v-2.1h-4.5v-0.7h5.3v2.7L162.3,30.9L162.3,30.9z M160.9,24.4v-0.6h1.3v-1.1h0.8v5h-0.8v-1.8h-1.3v-0.6h1.4v-0.8L160.9,24.4
		L160.9,24.4z"/>
</g>
<g>
	<path class="st16" d="M221.3,242.9l0.9-0.9c0.3-0.3,0.6-0.6,0.9-0.9c0.3-0.3,0.6-0.6,0.9-0.9c0.3,0.4,0.6,0.7,0.7,1.2
		c0.2,0.4,0.3,0.9,0.3,1.4c0,0.5,0,1-0.1,1.5c-0.1,0.6-0.3,1.1-0.6,1.5l-0.7-0.1c0.4-0.9,0.7-1.7,0.8-2.4c0.1-0.8-0.1-1.4-0.5-2.1
		c-0.3,0.3-0.5,0.5-0.8,0.8c-0.3,0.3-0.5,0.5-0.8,0.8l-0.6,0.6L221.3,242.9L221.3,242.9L221.3,242.9z M230.9,244.3l-3.5,3.5
		l-2.1-2.1l3.5-3.5L230.9,244.3z M228.6,243.2l-2.4,2.4l1.2,1.2l2.4-2.4L228.6,243.2z M227.9,239.5l-0.9,0.9l1.4,1.4l-0.6,0.6
		l-3.2-3.2l0.6-0.6l1.3,1.3l0.9-0.9L227.9,239.5z"/>
	<path class="st16" d="M228.6,235.5c0.2,0.2,0.4,0.4,0.5,0.6c0.2,0.2,0.3,0.4,0.4,0.6c0.5,0.2,1,0.2,1.5,0.2c0.5,0,1-0.1,1.5-0.3
		l0,0.6c-0.5,0.1-0.9,0.2-1.4,0.3c-0.4,0-0.9,0-1.3-0.1c0.2,0.4,0.3,0.9,0.3,1.5c0,0.5,0,1-0.2,1.5l-0.7,0c0.3-0.9,0.3-1.6,0.1-2.3
		c-0.2-0.7-0.6-1.4-1.3-2L228.6,235.5L228.6,235.5L228.6,235.5z M235.8,237.3c0.2,0.2,0.3,0.3,0.3,0.6c0,0.2,0,0.5,0,0.7
		c-0.1,0.3-0.2,0.5-0.4,0.8c-0.2,0.3-0.4,0.6-0.7,0.9c-0.3,0.3-0.6,0.6-0.9,0.7c-0.3,0.2-0.6,0.3-0.9,0.3c-0.3,0.1-0.5,0.1-0.7,0
		c-0.2,0-0.4-0.2-0.6-0.3c-0.1-0.1-0.3-0.3-0.3-0.6c0-0.2,0-0.5,0-0.7c0.1-0.3,0.2-0.5,0.3-0.9c0.2-0.3,0.4-0.6,0.7-0.9
		s0.6-0.6,0.9-0.7c0.3-0.2,0.6-0.3,0.9-0.3c0.3,0,0.5-0.1,0.7,0C235.5,237.1,235.7,237.2,235.8,237.3z M235.3,237.9
		c-0.1-0.1-0.2-0.1-0.3-0.2c-0.1,0-0.3,0-0.5,0c-0.2,0.1-0.4,0.1-0.6,0.3c-0.2,0.1-0.4,0.3-0.6,0.6c-0.2,0.2-0.4,0.4-0.6,0.6
		c-0.1,0.2-0.2,0.4-0.3,0.6c-0.1,0.2-0.1,0.3,0,0.5c0,0.1,0.1,0.3,0.2,0.3c0.1,0.1,0.2,0.1,0.3,0.2c0.1,0,0.3,0,0.5,0
		c0.2-0.1,0.4-0.1,0.6-0.3c0.2-0.1,0.4-0.3,0.6-0.6c0.2-0.2,0.4-0.4,0.6-0.6c0.1-0.2,0.2-0.4,0.3-0.6c0.1-0.2,0.1-0.3,0-0.5
		S235.4,238,235.3,237.9z M231.1,236.1l-0.5-0.5l1.2-1.2l-1.2-1.2l0.6-0.6l3.5,3.5l-0.6,0.6l-1.8-1.8L231.1,236.1z"/>
	<path class="st16" d="M236.8,231.9c0.4,0.1,0.9,0.2,1.5,0.2c0.5,0,1,0,1.5-0.1v0.8c-0.5,0-0.9,0-1.3,0c-0.4,0-0.9-0.1-1.4-0.2
		c0.1,0.6,0.1,1.2,0.1,1.8c0,0.6-0.1,1.1-0.3,1.6h-0.8c0.2-0.5,0.3-1,0.3-1.6c0-0.6,0-1.1-0.1-1.6c-0.1-0.5-0.2-1-0.4-1.4
		c-0.2-0.4-0.4-0.8-0.6-1c-0.3,0.3-0.5,0.5-0.7,0.7c-0.2,0.2-0.5,0.5-0.7,0.7l-0.7,0.7l-0.4-0.4l1-1c0.3-0.3,0.6-0.6,0.8-0.8
		c0.3-0.3,0.6-0.6,0.9-0.9c0.3,0.3,0.6,0.8,0.9,1.2C236.6,230.9,236.7,231.4,236.8,231.9z M236.2,227.6l0.6-0.6l5.7,5.7l-0.6,0.6
		L236.2,227.6z"/>
	<path class="st16" d="M245.6,223.4l0.5,0.5l-5.5,5.5l-0.5-0.5L245.6,223.4z M246.8,226.2c0.2,0.2,0.3,0.3,0.3,0.6
		c0,0.2,0,0.5,0,0.7c-0.1,0.3-0.2,0.6-0.3,0.9c-0.1,0.3-0.4,0.6-0.8,0.9c-0.3,0.3-0.6,0.6-0.9,0.8c-0.3,0.2-0.6,0.3-0.9,0.3
		c-0.3,0.1-0.5,0.1-0.7,0c-0.2,0-0.4-0.2-0.6-0.3c-0.2-0.2-0.3-0.3-0.3-0.6c0-0.2,0-0.5,0-0.7c0.1-0.3,0.2-0.6,0.4-0.8
		c0.2-0.3,0.4-0.6,0.8-0.9c0.3-0.3,0.6-0.6,0.9-0.8c0.3-0.2,0.6-0.3,0.8-0.4c0.3-0.1,0.5-0.1,0.7,0
		C246.5,226,246.7,226.1,246.8,226.2z M238.4,225.4l0.6-0.6l1.4,1.4l3.2-3.2l0.5,0.5l-3.8,3.8L238.4,225.4L238.4,225.4z
		 M246.2,226.8c-0.1-0.1-0.2-0.1-0.3-0.2c-0.1,0-0.3,0-0.4,0c-0.1,0-0.4,0.1-0.6,0.3c-0.2,0.1-0.4,0.3-0.7,0.6s-0.5,0.5-0.6,0.7
		c-0.1,0.2-0.2,0.4-0.3,0.6c-0.1,0.2,0,0.3,0,0.4c0,0.1,0.1,0.3,0.2,0.3c0.1,0.1,0.2,0.1,0.3,0.2c0.1,0,0.3,0,0.4,0
		c0.2-0.1,0.4-0.1,0.6-0.3c0.2-0.1,0.4-0.3,0.7-0.6c0.3-0.3,0.5-0.5,0.6-0.7c0.1-0.2,0.2-0.4,0.3-0.6c0-0.2,0-0.3,0-0.4
		C246.4,227,246.3,226.9,246.2,226.8z"/>
	<path class="st16" d="M229.1,255.6c-0.3-0.3-0.5-0.6-0.7-0.9c-0.2-0.3-0.3-0.7-0.5-1c-0.1-0.4-0.3-0.8-0.3-1.1
		c-0.1-0.3-0.1-0.7-0.2-1.1l0.4-0.4c0.2,0.9,0.3,1.6,0.7,2.3s0.7,1.2,1.2,1.7c0.5,0.5,1,0.9,1.7,1.2c0.7,0.3,1.4,0.6,2.3,0.7
		l-0.4,0.4c-0.3,0-0.7,0-1.1-0.2c-0.4,0-0.8-0.2-1.1-0.3c-0.4-0.1-0.7-0.3-1-0.5C229.7,256.1,229.4,255.8,229.1,255.6z"/>
	<path class="st16" d="M232.2,249.5l1.2,1.2l2.9-2.9l0.5,0.5l-5.5,5.5l-0.5-0.5l2.1-2.1l-1.2-1.2L232.2,249.5z M237.5,250.7
		c0.2,0.2,0.3,0.3,0.3,0.6c0.1,0.3,0,0.5,0,0.8c0,0.3-0.2,0.6-0.3,0.9c-0.1,0.3-0.4,0.6-0.8,0.9c-0.3,0.3-0.6,0.6-0.9,0.8
		c-0.3,0.2-0.6,0.3-0.9,0.3c-0.3,0-0.5,0.1-0.8,0c-0.2,0-0.4-0.2-0.6-0.3c-0.2-0.2-0.3-0.3-0.3-0.6c0-0.2,0-0.5,0-0.7
		s0.2-0.6,0.3-0.9c0.2-0.3,0.4-0.6,0.8-0.9c0.3-0.3,0.6-0.6,0.9-0.8c0.3-0.2,0.6-0.3,0.9-0.3c0.3-0.1,0.5-0.1,0.7,0
		C237.1,250.4,237.3,250.6,237.5,250.7z M229.1,250.1l3.8-3.8c0.4,0.4,0.8,0.9,1.1,1.2c0.3,0.4,0.6,0.8,0.8,1l-0.6,0.6
		c-0.2-0.3-0.4-0.6-0.7-0.9c-0.2-0.3-0.5-0.6-0.8-0.9l-3.3,3.3L229.1,250.1L229.1,250.1L229.1,250.1z M236.9,251.3
		c-0.1-0.1-0.2-0.1-0.3-0.2c-0.1,0-0.3,0-0.4,0c-0.1,0-0.4,0.1-0.6,0.3c-0.2,0.1-0.4,0.3-0.7,0.6c-0.3,0.3-0.5,0.5-0.6,0.7
		c-0.1,0.2-0.2,0.4-0.3,0.6c0,0.2,0,0.3,0,0.4c0,0.1,0.1,0.3,0.2,0.3c0.1,0.1,0.2,0.1,0.3,0.2c0.1,0,0.3,0,0.4,0
		c0.1,0,0.4-0.1,0.6-0.3c0.2-0.1,0.4-0.3,0.7-0.6c0.3-0.3,0.5-0.5,0.6-0.7c0.1-0.2,0.2-0.4,0.3-0.6s0-0.3,0-0.4
		C237,251.6,236.9,251.4,236.9,251.3z"/>
	<path class="st16" d="M234.5,244.9l0.9-0.9c0.3-0.3,0.6-0.6,0.9-0.9c0.3-0.3,0.6-0.6,0.9-0.9c0.3,0.4,0.6,0.7,0.7,1.2
		c0.2,0.4,0.3,0.9,0.3,1.4c0,0.5,0,1-0.1,1.5c-0.1,0.6-0.3,1.1-0.6,1.5l-0.7-0.1c0.4-0.9,0.7-1.7,0.8-2.4c0.1-0.8-0.1-1.4-0.5-2.1
		c-0.3,0.3-0.5,0.5-0.8,0.8s-0.5,0.5-0.8,0.8l-0.6,0.6L234.5,244.9L234.5,244.9L234.5,244.9z M244,246.2l-3.5,3.5l-2.1-2.1l3.5-3.5
		L244,246.2z M241.8,245l-2.4,2.4l1.2,1.2l2.4-2.4L241.8,245z M241.1,241.4l-0.9,0.9l1.4,1.4l-0.6,0.6l-3.2-3.2l0.6-0.6l1.3,1.3
		l0.9-0.9L241.1,241.4z"/>
	<path class="st16" d="M247.5,236.6l0.5,0.5l-5.5,5.5L242,242L247.5,236.6z M248.8,239.5c0.2,0.2,0.3,0.3,0.3,0.6s0,0.5,0,0.7
		c-0.1,0.3-0.2,0.6-0.3,0.9c-0.1,0.3-0.4,0.6-0.8,0.9c-0.3,0.3-0.6,0.6-0.9,0.8c-0.3,0.2-0.6,0.3-0.9,0.3c-0.3,0.1-0.5,0.1-0.7,0
		c-0.2,0-0.4-0.2-0.6-0.3c-0.2-0.2-0.3-0.3-0.3-0.6c0-0.2,0-0.5,0-0.7c0.1-0.3,0.2-0.6,0.4-0.8c0.2-0.3,0.4-0.6,0.8-0.9
		c0.3-0.3,0.6-0.6,0.9-0.8c0.3-0.2,0.6-0.3,0.8-0.4c0.3-0.1,0.5-0.1,0.7,0C248.4,239.2,248.6,239.3,248.8,239.5z M240.3,238.6
		l0.6-0.6l1.4,1.4l3.2-3.2l0.5,0.5l-3.8,3.8L240.3,238.6L240.3,238.6z M248.2,240c-0.1-0.1-0.2-0.1-0.3-0.2c-0.1,0-0.3,0-0.4,0
		c-0.1,0-0.4,0.1-0.6,0.3c-0.2,0.1-0.4,0.3-0.7,0.6c-0.3,0.3-0.5,0.5-0.6,0.7c-0.1,0.2-0.2,0.4-0.3,0.6c-0.1,0.2,0,0.3,0,0.4
		c0,0.1,0.1,0.3,0.2,0.3c0.1,0.1,0.2,0.1,0.3,0.2s0.3,0,0.4,0c0.2-0.1,0.4-0.1,0.6-0.3c0.2-0.1,0.4-0.3,0.7-0.6
		c0.3-0.3,0.5-0.5,0.6-0.7c0.1-0.2,0.2-0.4,0.3-0.6c0-0.2,0-0.3,0-0.4C248.3,240.2,248.3,240.1,248.2,240z"/>
	<path class="st16" d="M248.8,235.7l0.6-0.6c0.3-0.3,0.5-0.5,0.7-0.7s0.3-0.4,0.6-0.6c0.2-0.2,0.3-0.4,0.4-0.6
		c0.1-0.2,0.3-0.4,0.4-0.6l0.4,0.4c-0.3,0.4-0.6,0.8-0.9,1.2s-0.7,0.9-1.2,1.3l-1,1l-1.8-1.8l1.9-1.9l-0.9-0.9l-1.9,1.9l-0.4-0.4
		l2.4-2.4l1.7,1.7l-1.9,1.9L248.8,235.7L248.8,235.7z M255.2,235.3l-1.5-1.5l-3.2,3.2l-0.5-0.5l3.7-3.7l1.9,1.9L255.2,235.3
		L255.2,235.3z M249.6,231.8l-0.4-0.4l0.9-0.9l-0.8-0.8l0.6-0.6l3.5,3.5l-0.6,0.6l-1.3-1.3l-0.9,0.9l-0.4-0.4l1-1l-0.5-0.5
		L249.6,231.8L249.6,231.8z"/>
	<path class="st16" d="M255.5,229.3c0.3,0.3,0.5,0.6,0.7,0.9c0.2,0.3,0.3,0.7,0.5,1c0.1,0.4,0.3,0.8,0.3,1.1c0,0.4,0.1,0.7,0.2,1.1
		l-0.4,0.4c-0.2-0.9-0.3-1.6-0.7-2.3c-0.3-0.7-0.7-1.2-1.2-1.7c-0.5-0.5-1-0.9-1.7-1.2c-0.7-0.3-1.4-0.6-2.3-0.7l0.4-0.4
		c0.3,0,0.7,0,1.1,0.2c0.4,0.1,0.8,0.2,1.1,0.3c0.4,0.1,0.7,0.3,1,0.5C254.9,228.8,255.2,229,255.5,229.3z"/>
</g>
<g>
	<path class="st16" d="M46,73.2l-2.5,2.5L39.8,72l2.5-2.5L46,73.2z M45,73.2l-2.8-2.8l-1.4,1.4l2.8,2.8L45,73.2z M47.1,68.8l-1,1
		l3.3,3.3l-0.6,0.6L43,67.8l0.6-0.6l2,2l1-1L47.1,68.8z"/>
	<path class="st16" d="M52.8,63.4l0.5,0.5l-5.5,5.5l-0.5-0.5L52.8,63.4z M50.4,62.7c0.3,0.3,0.4,0.8,0.3,1.3
		c-0.1,0.5-0.5,1.1-1.1,1.7c-0.6,0.6-1.2,1-1.7,1.1c-0.5,0.1-0.9,0-1.3-0.3c-0.2-0.2-0.3-0.3-0.3-0.6c0-0.2,0-0.5,0-0.7
		c0.1-0.3,0.2-0.5,0.3-0.9c0.2-0.3,0.4-0.6,0.7-0.9c0.3-0.3,0.6-0.6,0.9-0.7c0.3-0.2,0.6-0.3,0.9-0.3c0.3-0.1,0.5-0.1,0.7,0
		C50,62.5,50.2,62.6,50.4,62.7z M51.2,71l-1.9-1.9l3.8-3.8l1.9,1.9L51.2,71z M49.8,63.3c-0.1-0.1-0.2-0.1-0.3-0.2
		c-0.1,0-0.3,0-0.5,0c-0.2,0-0.4,0.1-0.6,0.2c-0.2,0.1-0.4,0.3-0.6,0.6c-0.2,0.2-0.4,0.4-0.6,0.6C47.1,64.8,47,65,47,65.2
		c0,0.2,0,0.3,0,0.5c0,0.1,0.1,0.3,0.2,0.3c0.1,0.1,0.2,0.1,0.3,0.2c0.1,0,0.3,0,0.5,0c0.2-0.1,0.4-0.1,0.6-0.3
		c0.2-0.2,0.4-0.3,0.6-0.6c0.2-0.2,0.4-0.4,0.6-0.6c0.1-0.2,0.2-0.4,0.3-0.5c0.1-0.2,0-0.3,0-0.5C50,63.5,49.9,63.4,49.8,63.3z
		 M52.9,66.3L50.2,69l1,1l2.7-2.7L52.9,66.3z"/>
	<path class="st16" d="M54.4,64.5l1.2-1.2c0.2-0.2,0.4-0.4,0.7-0.7c0.3-0.3,0.5-0.5,0.7-0.8c0.3-0.3,0.5-0.6,0.7-0.8
		c0.3-0.3,0.4-0.5,0.6-0.8l0.5,0.5c-0.2,0.3-0.4,0.5-0.6,0.8c-0.3,0.3-0.4,0.5-0.7,0.8c-0.3,0.3-0.5,0.6-0.7,0.8
		c-0.3,0.3-0.5,0.5-0.7,0.7L54.9,65L54.4,64.5L54.4,64.5z M55.5,58.9c0.2,0.2,0.3,0.4,0.5,0.6c0.1,0.3,0.2,0.5,0.2,0.8
		c0,0.3-0.1,0.5-0.2,0.8c-0.1,0.3-0.3,0.5-0.5,0.7c-0.2,0.2-0.5,0.4-0.7,0.5c-0.3,0.1-0.5,0.2-0.8,0.2c-0.3,0-0.5-0.1-0.8-0.2
		c-0.3-0.1-0.5-0.3-0.6-0.5c-0.2-0.2-0.3-0.4-0.5-0.6C52,60.9,52,60.7,52,60.4c0-0.3,0.1-0.5,0.2-0.8c0.1-0.3,0.3-0.5,0.5-0.7
		c0.2-0.2,0.5-0.4,0.7-0.5c0.3-0.1,0.5-0.2,0.8-0.2c0.3,0,0.5,0.1,0.8,0.2C55.1,58.5,55.3,58.7,55.5,58.9z M55,59.4
		c-0.3-0.3-0.6-0.5-1-0.5c-0.3,0-0.6,0.1-0.9,0.4c-0.3,0.3-0.4,0.6-0.4,0.9c0,0.3,0.2,0.7,0.5,1c0.3,0.3,0.6,0.5,1,0.5
		c0.3,0,0.6-0.1,0.9-0.4s0.4-0.6,0.4-0.9C55.5,60.1,55.3,59.8,55,59.4z M61,61.4l-0.5,0.5l-5.8-5.8l0.5-0.5L61,61.4z"/>
	<path class="st16" d="M65.2,50.5l0.5,0.5l-5.5,5.5L59.8,56L65.2,50.5z M60.9,51.2c0.2,0,0.5,0,0.7,0c0.2,0,0.6-0.1,0.8-0.2
		c0.3-0.1,0.6-0.2,0.8-0.4c0.3-0.1,0.5-0.3,0.7-0.5l0.1,0.7c-0.3,0.2-0.5,0.3-0.8,0.4c-0.3,0.1-0.6,0.2-0.8,0.3
		c-0.3,0.1-0.6,0.1-0.8,0.2c-0.3,0-0.5,0.1-0.7,0c0,0.3,0,0.5,0,0.8c0,0.3-0.1,0.6-0.2,0.9c-0.1,0.3-0.2,0.5-0.3,0.8
		c-0.1,0.3-0.3,0.5-0.4,0.7l-0.7-0.2c0.3-0.3,0.5-0.7,0.6-1.1c0.1-0.4,0.2-0.7,0.3-1.1c0-0.4,0-0.6,0-1c0-0.3-0.2-0.6-0.4-0.7
		l0.6-0.6c0.1,0.1,0.2,0.2,0.3,0.3C60.8,50.9,60.9,51.1,60.9,51.2z M63.9,58.3L61.6,56l0.6-0.6l0.7,0.7l2.6-2.6l-0.7-0.7l0.6-0.6
		l2.3,2.3L63.9,58.3z M65.9,54l-2.7,2.7l0.7,0.7l2.7-2.7L65.9,54z"/>
	<path class="st16" d="M66.4,47.7l1.2,1.2c0.3-0.3,0.6-0.7,1-1.1c0.3-0.4,0.6-0.7,0.9-1l0.4,0.4c-0.2,0.3-0.4,0.5-0.6,0.8
		c-0.3,0.3-0.4,0.5-0.7,0.8c-0.3,0.3-0.5,0.6-0.7,0.8c-0.3,0.3-0.5,0.5-0.7,0.7l-0.9,0.9l-0.5-0.5l1.3-1.3l-1.3-1.3L66.4,47.7
		L66.4,47.7L66.4,47.7z M66.5,44.9c0.2,0.2,0.3,0.3,0.5,0.6c0.1,0.2,0.3,0.4,0.5,0.6c0.2,0.2,0.4,0.4,0.6,0.6
		c0.1,0.2,0.3,0.4,0.4,0.6l-0.5,0.5c-0.2-0.3-0.5-0.6-0.7-0.9c-0.3-0.3-0.5-0.6-0.8-0.9l-2.3,2.3l-0.5-0.5L66.5,44.9L66.5,44.9
		L66.5,44.9z M73.3,48.8l-3.8,3.8l-1.6-1.6l0.6-0.6l1.2,1.2l3.2-3.2L73.3,48.8L73.3,48.8z M71.5,48.2L67,43.8l0.6-0.6l2,2l0.8-0.8
		l0.5,0.5L70,45.7l2,2L71.5,48.2z"/>
</g>
<g>
	<g>
		<path class="st17" d="M147.8,147.3c-0.8,0-1.4-0.4-1.8-1L94.1,56.5c-0.4-0.6-0.4-1.4,0-2c0.4-0.6,1-1,1.8-1h103.8
			c0.8,0,1.4,0.4,1.8,1c0.4,0.6,0.4,1.4,0,2l-51.9,89.8C149.2,147,148.5,147.3,147.8,147.3z"/>
		<path class="st16" d="M199.7,53.7c0.6,0,1.2,0.3,1.5,0.8c0.3,0.5,0.3,1.2,0,1.7l-51.9,89.8c-0.3,0.5-0.9,0.8-1.5,0.8
			c-0.6,0-1.2-0.3-1.5-0.8L94.5,56.3c-0.3-0.5-0.3-1.2,0-1.7c0.3-0.5,0.9-0.8,1.5-0.8L199.7,53.7 M199.7,53.1H95.9
			c-1.8,0-2.9,2-2,3.5l51.9,89.9c0.4,0.8,1.2,1.2,2,1.2c0.8,0,1.6-0.4,2-1.2l51.8-89.8C202.7,55.1,201.5,53.1,199.7,53.1L199.7,53.1
			z"/>
	</g>
	<g>
		<path class="st18" d="M40,149.7c-0.8,0-1.4-0.4-1.8-1c-0.4-0.6-0.4-1.4,0-2l51.9-89.8c0.4-0.6,1-1,1.8-1c0.8,0,1.4,0.4,1.8,1
			l51.9,89.8c0.4,0.6,0.4,1.4,0,2c-0.4,0.6-1,1-1.8,1H40z"/>
		<path class="st16" d="M91.8,56.1c0.6,0,1.2,0.3,1.5,0.8l51.9,89.8c0.3,0.5,0.3,1.2,0,1.7c-0.3,0.5-0.9,0.8-1.5,0.8H40
			c-0.6,0-1.2-0.3-1.5-0.8c-0.3-0.5-0.3-1.2,0-1.7l51.9-89.8C90.7,56.4,91.2,56.1,91.8,56.1 M91.8,55.5c-0.8,0-1.6,0.4-2,1.2
			l-51.9,89.9c-0.9,1.6,0.3,3.5,2,3.5h103.8c1.8,0,2.9-2,2-3.5L93.9,56.7C93.4,55.9,92.6,55.5,91.8,55.5L91.8,55.5z"/>
	</g>
	<g>
		<path class="st19" d="M91.8,244.3c-0.8,0-1.4-0.4-1.8-1l-51.8-89.8c-0.4-0.6-0.4-1.4,0-2c0.4-0.6,1-1,1.8-1h103.8
			c0.8,0,1.4,0.4,1.8,1c0.4,0.6,0.4,1.4,0,2l-51.9,89.8C93.3,243.9,92.6,244.3,91.8,244.3z"/>
		<path class="st16" d="M143.7,150.7c0.6,0,1.2,0.3,1.5,0.8c0.3,0.5,0.3,1.2,0,1.7l-51.9,89.9c-0.3,0.5-0.9,0.8-1.5,0.8
			c-0.6,0-1.2-0.3-1.5-0.8l-51.9-89.8c-0.3-0.5-0.3-1.2,0-1.7c0.3-0.5,0.9-0.8,1.5-0.8L143.7,150.7 M143.7,150H40
			c-1.8,0-2.9,2-2,3.5l51.9,89.8c0.4,0.8,1.2,1.2,2,1.2c0.8,0,1.6-0.4,2-1.2l51.9-89.8C146.7,152,145.5,150,143.7,150L143.7,150z"/>
	</g>
	<g>
		<path class="st20" d="M95.9,246.6c-0.8,0-1.4-0.4-1.8-1c-0.4-0.6-0.4-1.4,0-2l51.9-89.8c0.4-0.6,1-1,1.8-1s1.4,0.4,1.8,1
			l51.8,89.8c0.4,0.6,0.4,1.4,0,2c-0.4,0.6-1,1-1.8,1H95.9L95.9,246.6z"/>
		<path class="st16" d="M147.8,153c0.6,0,1.2,0.3,1.5,0.8l51.9,89.8c0.3,0.5,0.3,1.2,0,1.7c-0.3,0.5-0.9,0.8-1.5,0.8H95.9
			c-0.6,0-1.2-0.3-1.5-0.8c-0.3-0.5-0.3-1.2,0-1.7l51.8-89.8C146.6,153.4,147.2,153,147.8,153 M147.8,152.4c-0.8,0-1.6,0.4-2,1.2
			l-51.9,89.8c-0.9,1.6,0.3,3.5,2,3.5h103.8c1.8,0,2.9-2,2-3.5l-51.9-89.8C149.4,152.8,148.6,152.4,147.8,152.4L147.8,152.4z"/>
	</g>
	<g>
		<path class="st21" d="M203.7,244.3c-0.8,0-1.4-0.4-1.8-1l-51.9-89.8c-0.4-0.6-0.4-1.4,0-2c0.4-0.6,1-1,1.8-1h103.8
			c0.8,0,1.4,0.4,1.8,1c0.4,0.6,0.4,1.4,0,2l-51.9,89.8C205.1,243.9,204.5,244.3,203.7,244.3z"/>
		<path class="st16" d="M255.6,150.7c0.6,0,1.2,0.3,1.5,0.8c0.3,0.5,0.3,1.2,0,1.7l-51.8,89.9c-0.3,0.5-0.9,0.8-1.5,0.8
			c-0.6,0-1.2-0.3-1.5-0.8l-51.9-89.8c-0.3-0.5-0.3-1.2,0-1.7c0.3-0.5,0.9-0.8,1.5-0.8L255.6,150.7 M255.6,150H151.9
			c-1.8,0-2.9,2-2,3.5l51.9,89.8c0.4,0.8,1.2,1.2,2,1.2c0.8,0,1.6-0.4,2-1.2l51.9-89.8C258.6,152,257.4,150,255.6,150L255.6,150z"/>
	</g>
	<g>
		<path class="st22" d="M151.9,149.7c-0.8,0-1.4-0.4-1.8-1c-0.4-0.6-0.4-1.4,0-2L202,56.8c0.4-0.6,1-1,1.8-1c0.8,0,1.4,0.4,1.8,1
			l51.9,89.8c0.4,0.6,0.4,1.4,0,2c-0.4,0.6-1,1-1.8,1H151.9z"/>
		<path class="st16" d="M203.7,56.1c0.6,0,1.2,0.3,1.5,0.8l51.9,89.9c0.3,0.5,0.3,1.2,0,1.7c-0.3,0.6-0.9,0.8-1.5,0.8H151.9
			c-0.6,0-1.2-0.3-1.5-0.8s-0.3-1.2,0-1.7L202.3,57C202.6,56.4,203.2,56.1,203.7,56.1 M203.7,55.5c-0.8,0-1.6,0.4-2,1.2l-51.9,89.8
			c-0.9,1.6,0.3,3.5,2,3.5h103.8c1.8,0,2.9-2,2-3.5l-51.9-89.8C205.3,55.9,204.6,55.5,203.7,55.5L203.7,55.5z"/>
	</g>
	<g>
		
			<image style="overflow:visible;opacity:0.5;enable-background:new    ;" width="588" height="521" xlink:href="/images/A3E24AF8.png"  transform="matrix(0.1525 0 0 0.1525 104.3103 58.157)">
		</image>
		<g>
			<path class="st16" d="M149.9,130.5l38.6-66.8c0.9-1.6-0.3-3.5-2-3.5h-77.2c-1.8,0-2.9,2-2,3.5l38.6,66.8
				C146.7,132.1,148.9,132.1,149.9,130.5z"/>
		</g>
	</g>
	<g>
		
			<image style="overflow:visible;opacity:0.5;enable-background:new    ;" width="588" height="521" xlink:href="/images/A3E24AF9.png"  transform="matrix(0.1526 0 0 0.1526 47.6892 68.405)">
		</image>
		<g>
			<path class="st16" d="M131.9,138.5L93.3,71.7c-0.9-1.6-3.2-1.6-4.1,0l-38.6,66.8c-0.9,1.6,0.3,3.5,2,3.5h77.2
				C131.6,142,132.8,140.1,131.9,138.5z"/>
		</g>
	</g>
	<g>
		
			<image style="overflow:visible;opacity:0.5;enable-background:new    ;" width="588" height="521" xlink:href="/images/A3E24AFF.png"  transform="matrix(0.1526 0 0 0.1526 47.6892 154.6965)">
		</image>
		<g>
			<path class="st16" d="M129.8,156.8H52.7c-1.8,0-2.9,2-2,3.5l38.6,66.8c0.9,1.6,3.2,1.6,4.1,0l38.6-66.7
				C132.8,158.7,131.6,156.8,129.8,156.8z"/>
		</g>
	</g>
	<g>
		
			<image style="overflow:visible;opacity:0.5;enable-background:new    ;" width="588" height="521" xlink:href="/images/A3E24AFA.png"  transform="matrix(0.1525 0 0 0.1525 104.3103 166.4026)">
		</image>
		<g>
			<path class="st16" d="M145.8,169.6l-38.6,66.8c-0.9,1.6,0.3,3.5,2,3.5h77.2c1.8,0,2.9-2,2-3.5l-38.6-66.8
				C148.9,168.1,146.7,168.1,145.8,169.6z"/>
		</g>
	</g>
	<g>
		
			<image style="overflow:visible;opacity:0.5;enable-background:new    ;" width="588" height="521" xlink:href="/images/A3E24AFB.png"  transform="matrix(0.1525 0 0 0.1525 160.8103 154.7346)">
		</image>
		<g>
			<path class="st16" d="M163.8,160.3l38.6,66.8c0.9,1.6,3.2,1.6,4.1,0l38.5-66.8c0.9-1.6-0.3-3.5-2-3.5h-77.1
				C163.9,156.8,162.8,158.7,163.8,160.3z"/>
		</g>
	</g>
	<g>
		
			<image style="overflow:visible;opacity:0.5;enable-background:new    ;" width="588" height="521" xlink:href="/images/A3E24AF6.png"  transform="matrix(0.1525 0 0 0.1525 160.8103 68.4436)">
		</image>
		<g>
			<path class="st16" d="M165.8,142H243c1.8,0,2.9-2,2-3.5l-38.6-66.8c-0.9-1.6-3.2-1.6-4.1,0l-38.6,66.8
				C162.8,140.1,163.9,142,165.8,142z"/>
		</g>
	</g>
	<g>
		<path d="M73.1,176.5c0.3,0.4,0.6,0.8,0.9,1.2c0.4,0.4,0.8,0.7,1.1,1l-0.6,0.6c-0.4-0.3-0.7-0.6-1-0.9c-0.3-0.3-0.6-0.8-0.9-1.1
			c-0.4,0.5-0.8,0.9-1.2,1.4c-0.4,0.4-0.9,0.8-1.4,1l-0.6-0.6c0.5-0.3,0.9-0.6,1.4-1c0.4-0.4,0.8-0.8,1.1-1.3
			c0.3-0.4,0.6-0.9,0.8-1.3c0.2-0.4,0.3-0.9,0.3-1.2c-0.4,0-0.7,0-1,0c-0.3,0-0.7,0-1,0h-1v-0.7h1.5c0.4,0,0.8,0,1.2,0
			c0.4,0,0.8,0,1.3,0c0,0.5-0.1,1-0.3,1.5C73.6,175.6,73.4,176,73.1,176.5z M75.9,172.8h0.8v8.4h-0.8V172.8z"/>
		<path d="M81,173c0,0.6-0.1,1.1-0.2,1.5c0.3,0.5,0.6,0.9,0.9,1.3c0.4,0.4,0.8,0.7,1.3,0.9l-0.5,0.6c-0.4-0.3-0.9-0.5-1.2-0.8
			c-0.4-0.3-0.6-0.7-0.9-1.1c-0.3,0.4-0.5,0.9-0.9,1.3c-0.4,0.4-0.8,0.7-1.3,0.9l-0.6-0.5c0.8-0.4,1.4-1,1.8-1.6
			c0.4-0.6,0.6-1.4,0.5-2.4L81,173L81,173L81,173z M84.1,181.3v-2.4h-4.7v-0.7h5.5v3.1H84.1z M84.1,172.8h0.8v4.9h-0.8V172.8z"/>
		<path d="M89.6,175.4c0.1,0.1,0.3,0.3,0.4,0.4c0.2,0.1,0.3,0.3,0.5,0.4c0.2,0.1,0.4,0.3,0.5,0.3c0.2,0.1,0.4,0.2,0.5,0.3l-0.5,0.6
			c-0.4-0.2-0.7-0.4-1-0.6c-0.3-0.3-0.6-0.5-0.9-0.8c-0.4,0.4-0.8,0.8-1.3,1c-0.4,0.3-0.9,0.5-1.3,0.6l-0.5-0.6
			c0.4-0.1,0.8-0.3,1.2-0.6c0.4-0.3,0.8-0.5,1-0.8c0.3-0.3,0.6-0.6,0.8-0.9c0.2-0.3,0.4-0.6,0.4-0.9c-0.3,0-0.6,0-1,0
			c-0.3,0-0.7,0-1,0h-0.9v-0.7h1.4c0.4,0,0.8,0,1.2,0c0.4,0,0.8,0,1.3,0c-0.1,0.4-0.1,0.8-0.3,1.2C90.1,174.7,89.9,175.1,89.6,175.4
			z M93.2,179.7c0,0.3-0.1,0.4-0.2,0.6c-0.1,0.2-0.3,0.4-0.5,0.5c-0.3,0.1-0.5,0.3-0.9,0.3c-0.4,0.1-0.8,0.1-1.2,0.1
			c-0.4,0-0.9-0.1-1.2-0.1c-0.4-0.1-0.6-0.2-0.9-0.4c-0.3-0.1-0.4-0.3-0.5-0.5c-0.1-0.2-0.2-0.4-0.2-0.6c0-0.2,0.1-0.4,0.2-0.6
			c0.1-0.2,0.3-0.4,0.5-0.5c0.3-0.1,0.5-0.3,0.9-0.4c0.4-0.1,0.8-0.1,1.2-0.1s0.9,0.1,1.2,0.1c0.3,0.1,0.6,0.2,0.9,0.4
			c0.3,0.1,0.4,0.3,0.5,0.5C93.1,179.2,93.2,179.5,93.2,179.7z M92.4,179.7c0-0.1-0.1-0.3-0.1-0.4c-0.1-0.1-0.2-0.2-0.4-0.3
			c-0.2-0.1-0.4-0.2-0.6-0.3c-0.3-0.1-0.6-0.1-0.9-0.1c-0.3,0-0.6,0-0.9,0.1c-0.3,0.1-0.4,0.1-0.6,0.3c-0.2,0.1-0.3,0.2-0.4,0.3
			c-0.1,0.1-0.1,0.3-0.1,0.4s0.1,0.3,0.1,0.4c0.1,0.1,0.2,0.3,0.4,0.3c0.2,0.1,0.4,0.2,0.6,0.2c0.3,0,0.6,0.1,0.9,0.1
			c0.3,0,0.6,0,0.9-0.1c0.3-0.1,0.4-0.1,0.6-0.2c0.2-0.1,0.3-0.2,0.4-0.3C92.4,180,92.4,179.8,92.4,179.7z M90.9,175.6v-0.7h1.5v-2
			h0.8v5.2h-0.8v-2.5L90.9,175.6L90.9,175.6z"/>
		<path d="M95.6,177.6v-4.3h0.8v1.4h3.8v-1.4h0.8v4.3h-2.3v1.7h3.5v0.7h-7.9v-0.7h3.5v-1.7H95.6z M100.3,175.4h-3.8v1.6h3.8V175.4z"
			/>
		<path d="M73.1,188.1c0.3,0.4,0.6,0.8,0.9,1c0.3,0.3,0.7,0.6,1,0.8l-0.6,0.6c-0.3-0.3-0.6-0.6-0.9-0.8c-0.3-0.3-0.6-0.6-0.8-0.9
			c-0.4,0.4-0.8,0.8-1.2,1.2c-0.4,0.4-0.9,0.6-1.3,0.9l-0.6-0.6c0.4-0.2,0.8-0.4,1.2-0.8c0.4-0.3,0.8-0.6,1.1-0.9
			c0.3-0.3,0.6-0.7,0.8-1.1c0.2-0.4,0.4-0.8,0.4-1.1c-0.3,0-0.7,0-1,0c-0.3,0-0.7,0-1,0h-0.9v-0.7h1.5c0.4,0,0.8,0,1.2,0
			c0.4,0,0.8,0,1.3,0c-0.1,0.4-0.1,0.9-0.3,1.3C73.5,187.3,73.3,187.7,73.1,188.1z M70.8,184.9v-0.7h2.6v0.7H70.8z M74.3,188.1v-0.7
			h1.6v-3.5h0.8v8.4h-0.8v-4.2L74.3,188.1L74.3,188.1z"/>
		<path d="M79.2,189.7h1.3c0.3,0,0.6,0,0.9-0.1c0.3,0,0.6-0.1,0.8-0.1c0.3-0.1,0.5-0.1,0.8-0.1c0.3-0.1,0.4-0.1,0.6-0.1v0.6
			c-0.2,0.1-0.4,0.1-0.6,0.1c-0.3,0.1-0.5,0.1-0.8,0.1c-0.3,0.1-0.6,0.1-0.9,0.1c-0.3,0-0.6,0.1-0.9,0.1h-2V187h2.9v-1.8h-2.9v-0.7
			H82v3.1h-2.9L79.2,189.7L79.2,189.7L79.2,189.7z M84.1,183.9h0.8v8.4h-0.8V183.9z"/>
		<path d="M90.3,184.9h2v-1h0.8v4.9h-0.8v-1.3h-1.9c-0.2,0.3-0.4,0.5-0.8,0.6c-0.3,0.1-0.6,0.3-1,0.3c-0.3,0-0.6-0.1-0.9-0.2
			c-0.3-0.1-0.5-0.2-0.7-0.4c-0.2-0.2-0.3-0.4-0.4-0.7s-0.2-0.6-0.2-0.8c0-0.3,0.1-0.6,0.2-0.8c0.1-0.3,0.3-0.5,0.4-0.7
			c0.2-0.2,0.4-0.3,0.7-0.4c0.3-0.1,0.6-0.2,0.9-0.2c0.4,0,0.7,0.1,1,0.2C89.9,184.4,90.1,184.7,90.3,184.9z M87.2,186.3
			c0,0.2,0.1,0.4,0.1,0.6c0.1,0.2,0.2,0.3,0.3,0.4c0.1,0.1,0.3,0.3,0.4,0.3c0.2,0.1,0.4,0.1,0.6,0.1c0.2,0,0.4-0.1,0.6-0.1
			c0.2-0.1,0.3-0.2,0.4-0.3s0.2-0.3,0.3-0.4c0.1-0.2,0.1-0.4,0.1-0.6c0-0.2-0.1-0.4-0.1-0.6c-0.1-0.2-0.2-0.3-0.3-0.4
			c-0.1-0.1-0.3-0.3-0.4-0.3c-0.2-0.1-0.4-0.1-0.6-0.1c-0.2,0-0.4,0.1-0.6,0.1c-0.2,0.1-0.3,0.2-0.4,0.3c-0.1,0.1-0.2,0.3-0.3,0.4
			C87.3,185.9,87.2,186.1,87.2,186.3z M92.4,192.4V190h-4.7v-0.7h5.5v3.1H92.4z M90.7,186.8h1.7v-1.3h-1.7c0.1,0.2,0.1,0.4,0.1,0.6
			C90.8,186.4,90.8,186.6,90.7,186.8z"/>
		<path d="M95.6,187.9h0.9c0.7,0,1.3-0.1,1.9-0.1c0.5-0.1,1-0.1,1.4-0.3v0.7c-0.4,0.1-0.9,0.2-1.5,0.3c-0.6,0.1-1.2,0.1-1.8,0.1
			h-1.7V186h2.9v-1.1h-3v-0.7h3.7v2.5h-2.9L95.6,187.9L95.6,187.9L95.6,187.9z M101.1,190.9c0,0.3-0.1,0.4-0.2,0.6
			c-0.1,0.2-0.3,0.4-0.5,0.5c-0.2,0.1-0.5,0.3-0.9,0.3c-0.4,0.1-0.8,0.1-1.2,0.1s-0.9-0.1-1.2-0.1c-0.3-0.1-0.6-0.2-0.9-0.3
			c-0.3-0.1-0.4-0.3-0.5-0.5c-0.1-0.2-0.2-0.4-0.2-0.6c0-0.3,0.1-0.4,0.2-0.6c0.1-0.2,0.3-0.4,0.5-0.5c0.3-0.1,0.5-0.3,0.9-0.3
			c0.3-0.1,0.8-0.1,1.2-0.1c0.4,0,0.8,0.1,1.2,0.1c0.3,0.1,0.6,0.2,0.9,0.3c0.3,0.1,0.4,0.3,0.5,0.5
			C101.1,190.5,101.1,190.7,101.1,190.9z M100.3,190.9c0-0.3-0.1-0.4-0.4-0.6c-0.3-0.2-0.8-0.2-1.4-0.2c-0.6,0-1.1,0.1-1.4,0.2
			c-0.3,0.2-0.4,0.4-0.4,0.6s0.1,0.5,0.4,0.6c0.3,0.2,0.8,0.3,1.4,0.3c0.7,0,1.1-0.1,1.4-0.3C100.1,191.4,100.3,191.2,100.3,190.9z
			 M101,185h1.3v0.7H101v1.3h1.3v0.7H101v1.6h-0.8v-5.3h0.8V185z"/>
	</g>
	<g>
		<path d="M139.7,211.4c0.6,0.4,1.2,0.8,1.9,1.1L141,213c-0.3-0.1-0.7-0.3-1-0.5c-0.3-0.2-0.6-0.4-0.9-0.7c-0.4,0.3-0.8,0.6-1.2,0.8
			c-0.4,0.3-0.8,0.4-1.3,0.6l-0.5-0.6c0.4-0.1,0.8-0.3,1.2-0.5c0.4-0.2,0.7-0.4,1-0.6c0.3-0.3,0.6-0.4,0.8-0.7
			c0.2-0.3,0.4-0.5,0.5-0.7c-0.4,0-0.7,0-1,0c-0.3,0-0.7,0-1,0h-0.9v-0.6h1.6c0.4,0,0.8,0,1.2,0c0.4,0,0.8,0,1.3,0
			c-0.1,0.3-0.2,0.6-0.4,0.9C140.2,210.8,140,211.1,139.7,211.4z M142.9,215.2c0,0.2-0.1,0.4-0.2,0.6c-0.1,0.2-0.3,0.4-0.5,0.5
			c-0.3,0.1-0.5,0.3-0.9,0.3c-0.4,0.1-0.8,0.1-1.2,0.1c-0.4,0-0.9-0.1-1.2-0.1c-0.3-0.1-0.6-0.2-0.9-0.3c-0.3-0.1-0.4-0.3-0.5-0.5
			c-0.1-0.2-0.2-0.4-0.2-0.6c0-0.4,0.3-0.8,0.7-1.1c0.4-0.3,1.1-0.4,2.1-0.4c0.9,0,1.6,0.1,2.1,0.4
			C142.7,214.4,142.9,214.8,142.9,215.2z M137.5,208.3h2.5v0.6h-2.5V208.3z M142.1,215.2c0-0.3-0.1-0.4-0.4-0.6
			c-0.3-0.2-0.8-0.3-1.5-0.3c-0.6,0-1.1,0.1-1.4,0.3c-0.3,0.2-0.4,0.4-0.4,0.6c0,0.2,0.1,0.4,0.4,0.6c0.3,0.2,0.8,0.3,1.4,0.3
			c0.7,0,1.1-0.1,1.5-0.3C141.9,215.7,142.1,215.5,142.1,215.2z M144.2,211.1h-1.3v2.4H142v-5.2h0.8v2.1h1.3V211.1z"/>
		<path d="M144.6,214.3h1.7c0.3,0,0.6,0,1,0c0.4,0,0.8,0,1.1-0.1c0.4,0,0.8-0.1,1.1-0.1c0.4,0,0.7-0.1,1-0.1v0.7
			c-0.3,0.1-0.6,0.1-1,0.1c-0.4,0-0.7,0.1-1.1,0.1c-0.4,0-0.8,0.1-1.1,0.1c-0.4,0-0.7,0-1.1,0h-1.7L144.6,214.3L144.6,214.3z
			 M149.5,210.9c0,0.3-0.1,0.6-0.1,0.8c-0.1,0.3-0.2,0.5-0.4,0.7c-0.2,0.2-0.4,0.3-0.7,0.4c-0.3,0.1-0.6,0.2-0.9,0.2
			c-0.3,0-0.6-0.1-0.9-0.2c-0.3-0.1-0.5-0.3-0.7-0.4c-0.2-0.2-0.3-0.4-0.4-0.7c-0.1-0.3-0.1-0.6-0.1-0.8s0.1-0.6,0.1-0.8
			c0.1-0.3,0.3-0.5,0.4-0.7c0.2-0.2,0.4-0.3,0.7-0.4c0.3-0.1,0.6-0.2,0.9-0.2c0.3,0,0.6,0.1,0.9,0.2c0.3,0.1,0.5,0.3,0.7,0.4
			c0.2,0.2,0.3,0.4,0.4,0.7C149.5,210.3,149.5,210.6,149.5,210.9z M148.7,210.9c0-0.4-0.1-0.8-0.4-1.1c-0.3-0.3-0.6-0.4-1-0.4
			s-0.8,0.1-1,0.4c-0.3,0.3-0.4,0.6-0.4,1.1c0,0.4,0.1,0.8,0.4,1.1c0.3,0.3,0.6,0.4,1,0.4s0.8-0.1,1-0.4
			C148.5,211.7,148.7,211.4,148.7,210.9z M151.7,216.7h-0.8v-8.4h0.8L151.7,216.7L151.7,216.7z"/>
		<path d="M156.4,210.9c0.1,0.1,0.3,0.3,0.4,0.4c0.2,0.1,0.3,0.3,0.5,0.4c0.2,0.1,0.3,0.3,0.5,0.4c0.2,0.1,0.4,0.2,0.5,0.3l-0.5,0.6
			c-0.3-0.2-0.7-0.4-1-0.7c-0.3-0.3-0.6-0.6-0.9-0.9c-0.2,0.2-0.4,0.4-0.6,0.6c-0.2,0.2-0.4,0.4-0.7,0.5c-0.3,0.1-0.4,0.3-0.7,0.4
			c-0.3,0.1-0.4,0.2-0.6,0.3l-0.5-0.6c0.4-0.1,0.8-0.3,1.2-0.6c0.4-0.3,0.8-0.5,1.1-0.8c0.3-0.3,0.6-0.6,0.8-0.9
			c0.2-0.3,0.4-0.6,0.4-1c-0.4,0-0.7,0-1,0c-0.3,0-0.6,0-1,0h-0.9v-0.7h1.5c0.4,0,0.8,0,1.2,0c0.4,0,0.8,0,1.3,0
			c0,0.4-0.1,0.8-0.3,1.2C156.8,210.2,156.6,210.6,156.4,210.9z M159,216.7v-2.3h-4.7v-0.7h5.5v3L159,216.7L159,216.7z M157.5,211
			v-0.7h1.4v-2.1h0.8v5H159V211L157.5,211L157.5,211z"/>
		<path d="M132.3,226l-0.6-0.5c0.4-0.3,0.8-0.6,1.1-0.9c0.3-0.4,0.6-0.8,0.8-1.2c0.3-0.4,0.4-0.9,0.5-1.5c0.1-0.6,0.1-1.2,0.1-1.9
			h0.8c0,0.4,0,0.8-0.1,1.1c-0.1,0.3-0.1,0.7-0.2,1.1c0.3,0.6,0.6,1.2,0.9,1.8c0.4,0.5,0.9,1,1.4,1.4l-0.5,0.6
			c-0.4-0.3-0.9-0.7-1.3-1.1c-0.4-0.4-0.7-0.9-0.9-1.5c-0.2,0.6-0.6,1.1-0.9,1.6C133.2,225.2,132.8,225.6,132.3,226z M140.1,223.4
			h-1.4v4.4h-0.8v-8.5h0.8v3.3h1.4V223.4z"/>
		<path d="M148.2,226.6h-7.9v-0.7h3v-3h0.8v3h4L148.2,226.6L148.2,226.6z M146.5,224.9h-0.8c0.2-0.6,0.3-1.3,0.4-1.9
			c0.1-0.7,0.1-1.4,0.2-2.1h-4.7v-0.7h5.5c0,0.4,0,0.8-0.1,1.2c-0.1,0.4-0.1,0.8-0.1,1.3c-0.1,0.4-0.1,0.8-0.2,1.2
			C146.6,224.2,146.5,224.5,146.5,224.9z"/>
		<path d="M152.8,220.4h2v-1h0.8v4.9h-0.8V223h-2c-0.2,0.3-0.4,0.5-0.8,0.6c-0.3,0.1-0.6,0.3-1,0.3c-0.3,0-0.6-0.1-0.9-0.2
			c-0.3-0.1-0.5-0.3-0.7-0.4c-0.2-0.2-0.3-0.4-0.4-0.7s-0.2-0.6-0.2-0.8c0-0.3,0.1-0.6,0.2-0.8c0.1-0.3,0.3-0.5,0.4-0.7
			c0.2-0.2,0.4-0.3,0.7-0.4c0.3-0.1,0.6-0.2,0.9-0.2c0.4,0,0.7,0.1,1,0.2C152.4,219.9,152.6,220.1,152.8,220.4z M149.7,221.7
			c0,0.2,0.1,0.4,0.1,0.6c0.1,0.2,0.2,0.3,0.3,0.4c0.1,0.1,0.3,0.3,0.4,0.3c0.2,0.1,0.4,0.1,0.6,0.1s0.4-0.1,0.6-0.1
			c0.2-0.1,0.3-0.2,0.4-0.3c0.1-0.1,0.2-0.3,0.3-0.4c0.1-0.2,0.1-0.4,0.1-0.6c0-0.2-0.1-0.4-0.1-0.6c-0.1-0.2-0.2-0.3-0.3-0.4
			c-0.1-0.1-0.3-0.3-0.4-0.3c-0.2-0.1-0.4-0.1-0.6-0.1s-0.4,0.1-0.6,0.1c-0.2,0.1-0.3,0.2-0.4,0.3c-0.1,0.1-0.2,0.3-0.3,0.4
			C149.8,221.3,149.7,221.5,149.7,221.7z M154.8,227.9v-2.4h-4.7v-0.7h5.5v3.1H154.8z M153.2,222.3h1.7V221h-1.7
			c0.1,0.2,0.1,0.4,0.1,0.6C153.2,221.9,153.2,222.1,153.2,222.3z"/>
		<path d="M158,223.3h0.9c0.7,0,1.3-0.1,1.9-0.1c0.5-0.1,1-0.1,1.4-0.3v0.7c-0.4,0.1-0.9,0.2-1.5,0.3c-0.6,0.1-1.2,0.1-1.8,0.1h-1.7
			v-2.5h2.9v-1.1h-2.9v-0.7h3.7v2.5H158L158,223.3L158,223.3z M163.6,226.4c0,0.3-0.1,0.4-0.2,0.6c-0.1,0.2-0.3,0.4-0.5,0.5
			c-0.3,0.1-0.5,0.3-0.9,0.3c-0.4,0.1-0.8,0.1-1.2,0.1c-0.4,0-0.9-0.1-1.2-0.1c-0.3-0.1-0.6-0.2-0.9-0.3c-0.3-0.1-0.4-0.3-0.5-0.5
			c-0.1-0.2-0.2-0.4-0.2-0.6c0-0.3,0.1-0.4,0.2-0.6c0.1-0.2,0.3-0.4,0.5-0.5c0.3-0.1,0.5-0.3,0.9-0.3c0.3-0.1,0.8-0.1,1.2-0.1
			c0.4,0,0.8,0.1,1.2,0.1c0.3,0.1,0.6,0.2,0.9,0.3c0.3,0.1,0.4,0.3,0.5,0.5C163.5,225.9,163.6,226.1,163.6,226.4z M162.7,226.4
			c0-0.3-0.1-0.4-0.4-0.6c-0.3-0.2-0.8-0.3-1.4-0.3c-0.6,0-1.1,0.1-1.4,0.3c-0.3,0.2-0.4,0.4-0.4,0.6c0,0.3,0.1,0.5,0.4,0.6
			c0.3,0.2,0.8,0.2,1.4,0.2c0.7,0,1.1-0.1,1.4-0.2C162.6,226.8,162.7,226.6,162.7,226.4z M163.5,220.4h1.3v0.7h-1.3v1.3h1.3v0.7
			h-1.3v1.6h-0.8v-5.3h0.8V220.4z"/>
	</g>
	<g>
		<path d="M191.4,111.9h1.7c0.3,0,0.6,0,1,0c0.4,0,0.8,0,1.1-0.1c0.4-0.1,0.8-0.1,1.1-0.1c0.4,0,0.7-0.1,1-0.1v0.7
			c-0.3,0.1-0.6,0.1-1,0.1c-0.4,0.1-0.7,0.1-1.1,0.1c-0.4,0-0.8,0.1-1.1,0.1c-0.4,0-0.7,0-1.1,0h-1.7L191.4,111.9L191.4,111.9z
			 M196.3,108.6c0,0.3-0.1,0.6-0.1,0.8c-0.1,0.3-0.3,0.5-0.4,0.7c-0.2,0.2-0.4,0.3-0.7,0.4c-0.3,0.1-0.6,0.2-0.9,0.2
			c-0.3,0-0.6-0.1-0.9-0.2c-0.2-0.1-0.5-0.3-0.7-0.4c-0.2-0.2-0.3-0.4-0.4-0.7c-0.1-0.3-0.1-0.6-0.1-0.8c0-0.3,0.1-0.6,0.1-0.8
			c0.1-0.3,0.3-0.5,0.4-0.7c0.2-0.2,0.4-0.3,0.7-0.4c0.3-0.1,0.6-0.2,0.9-0.2c0.3,0,0.6,0.1,0.9,0.2c0.3,0.1,0.5,0.3,0.7,0.4
			c0.2,0.2,0.3,0.4,0.4,0.7C196.3,108,196.3,108.3,196.3,108.6z M195.4,108.6c0-0.4-0.1-0.8-0.4-1.1c-0.3-0.3-0.6-0.4-1-0.4
			c-0.4,0-0.8,0.1-1,0.4c-0.3,0.3-0.4,0.6-0.4,1.1c0,0.4,0.1,0.8,0.4,1.1c0.3,0.3,0.6,0.4,1,0.4c0.4,0,0.8-0.1,1-0.4
			C195.3,109.4,195.4,109,195.4,108.6z M198.5,114.4h-0.8v-8.4h0.8V114.4z"/>
		<path d="M199.7,112.5l-0.6-0.5c0.4-0.3,0.8-0.6,1.1-0.9c0.3-0.4,0.6-0.8,0.8-1.2c0.3-0.4,0.4-0.9,0.5-1.5c0.1-0.6,0.1-1.2,0.1-1.9
			h0.8c0,0.4,0,0.8-0.1,1.1c-0.1,0.4-0.1,0.7-0.2,1.1c0.3,0.6,0.6,1.2,0.9,1.8c0.4,0.5,0.9,1,1.4,1.4l-0.5,0.6
			c-0.4-0.3-0.9-0.7-1.3-1.1c-0.4-0.4-0.7-0.9-0.9-1.5c-0.3,0.6-0.6,1.1-0.9,1.6C200.7,111.8,200.2,112.2,199.7,112.5z M207.5,110
			h-1.4v4.4h-0.8v-8.5h0.8v3.3h1.4V110z"/>
		<path d="M215.6,113.2h-7.9v-0.7h3.5v-2.1h0.8v2.1h3.5L215.6,113.2L215.6,113.2z M212.1,107.5c0.4,0.6,0.8,1.2,1.3,1.6
			c0.5,0.4,1.1,0.8,1.8,1l-0.5,0.6c-0.6-0.2-1.1-0.5-1.6-0.9c-0.5-0.4-0.9-0.9-1.3-1.5c-0.3,0.6-0.7,1.1-1.2,1.4
			c-0.5,0.4-1.1,0.7-1.7,0.9l-0.5-0.6c0.4-0.2,0.9-0.4,1.3-0.6c0.4-0.2,0.7-0.5,0.9-0.8c0.3-0.3,0.4-0.7,0.6-1.1
			c0.1-0.4,0.2-0.9,0.2-1.4h0.8C212.2,106.8,212.1,107.2,212.1,107.5z"/>
		<path d="M217.3,109.5v-3.3h5.4v0.7h-4.6v0.7h4.5v0.6h-4.5v0.8h4.7v0.6h-2.5v0.9h3.6v0.7h-8.1v-0.7h3.6v-0.9L217.3,109.5
			L217.3,109.5L217.3,109.5z M222.9,113c0,0.2-0.1,0.4-0.2,0.6c-0.1,0.2-0.3,0.3-0.6,0.4c-0.3,0.1-0.6,0.3-0.9,0.3
			c-0.4,0.1-0.8,0.1-1.3,0.1c-0.9,0-1.7-0.1-2.1-0.4c-0.5-0.3-0.8-0.6-0.8-1c0-0.2,0.1-0.4,0.2-0.6c0.1-0.2,0.3-0.3,0.6-0.4
			c0.3-0.1,0.6-0.3,0.9-0.3c0.4-0.1,0.8-0.1,1.3-0.1c0.4,0,0.9,0.1,1.3,0.1c0.4,0.1,0.6,0.2,0.9,0.3c0.3,0.1,0.4,0.3,0.6,0.4
			C222.8,112.6,222.9,112.8,222.9,113z M222,113c0-0.1-0.1-0.2-0.1-0.3c-0.1-0.1-0.2-0.2-0.3-0.3c-0.2-0.1-0.4-0.1-0.6-0.2
			c-0.3-0.1-0.6-0.1-0.9-0.1c-0.4,0-0.7,0-0.9,0.1c-0.2,0.1-0.4,0.1-0.6,0.2c-0.2,0.1-0.3,0.2-0.3,0.3c-0.1,0.1-0.1,0.2-0.1,0.3
			c0,0.1,0.1,0.2,0.1,0.3c0.1,0.1,0.2,0.2,0.3,0.3c0.2,0.1,0.4,0.1,0.6,0.2c0.3,0.1,0.6,0.1,0.9,0.1c0.4,0,0.7,0,0.9-0.1
			c0.3-0.1,0.4-0.1,0.6-0.2c0.2-0.1,0.3-0.2,0.3-0.3C222,113.2,222,113.1,222,113z"/>
		<path d="M203.7,118.1h2v-1h0.8v4.9h-0.8v-1.3h-2c-0.2,0.3-0.4,0.5-0.8,0.6c-0.3,0.1-0.6,0.3-1,0.3c-0.3,0-0.6-0.1-0.9-0.2
			c-0.3-0.1-0.5-0.3-0.7-0.4c-0.2-0.2-0.3-0.4-0.4-0.7c-0.1-0.3-0.2-0.6-0.2-0.8c0-0.3,0.1-0.6,0.2-0.8c0.1-0.3,0.3-0.5,0.4-0.7
			c0.2-0.2,0.4-0.3,0.7-0.4c0.3-0.1,0.6-0.2,0.9-0.2c0.4,0,0.7,0.1,1,0.2C203.2,117.6,203.5,117.8,203.7,118.1z M200.6,119.3
			c0,0.2,0.1,0.4,0.1,0.6c0.1,0.2,0.2,0.3,0.3,0.4c0.1,0.1,0.3,0.3,0.4,0.3c0.2,0.1,0.4,0.1,0.6,0.1c0.2,0,0.4-0.1,0.6-0.1
			c0.2-0.1,0.3-0.2,0.4-0.3c0.1-0.1,0.2-0.3,0.3-0.4c0.1-0.2,0.1-0.4,0.1-0.6c0-0.2-0.1-0.4-0.1-0.6c-0.1-0.2-0.2-0.3-0.3-0.4
			c-0.1-0.1-0.3-0.3-0.4-0.3c-0.2-0.1-0.4-0.1-0.6-0.1c-0.2,0-0.4,0.1-0.6,0.1c-0.2,0.1-0.3,0.2-0.4,0.3s-0.2,0.3-0.3,0.4
			C200.7,119,200.6,119.1,200.6,119.3z M205.7,125.6v-2.4H201v-0.7h5.5v3.1H205.7z M204.1,120h1.7v-1.3h-1.7
			c0.1,0.2,0.1,0.4,0.1,0.6C204.1,119.6,204.1,119.8,204.1,120z"/>
		<path d="M208.9,121h0.9c0.7,0,1.3-0.1,1.9-0.1c0.5-0.1,1-0.1,1.4-0.3v0.7c-0.4,0.1-0.9,0.2-1.5,0.3c-0.6,0.1-1.2,0.1-1.8,0.1h-1.7
			v-2.5h2.9V118h-3v-0.7h3.7v2.5h-2.9L208.9,121C208.8,121,208.9,121,208.9,121z M214.5,124c0,0.3-0.1,0.4-0.2,0.6
			c-0.1,0.2-0.3,0.4-0.5,0.5c-0.3,0.1-0.5,0.3-0.9,0.3c-0.4,0.1-0.8,0.1-1.2,0.1c-0.4,0-0.9-0.1-1.2-0.1c-0.3-0.1-0.6-0.2-0.9-0.3
			c-0.3-0.1-0.4-0.3-0.5-0.5c-0.1-0.2-0.2-0.4-0.2-0.6c0-0.3,0.1-0.4,0.2-0.6c0.1-0.2,0.3-0.4,0.5-0.5c0.3-0.1,0.5-0.3,0.9-0.3
			c0.3-0.1,0.8-0.1,1.2-0.1c0.4,0,0.8,0.1,1.2,0.1c0.4,0.1,0.6,0.2,0.9,0.3c0.3,0.1,0.4,0.3,0.5,0.5
			C214.4,123.5,214.5,123.8,214.5,124z M213.6,124c0-0.3-0.1-0.4-0.4-0.6c-0.3-0.2-0.8-0.3-1.4-0.3c-0.6,0-1.1,0.1-1.4,0.3
			c-0.3,0.2-0.4,0.4-0.4,0.6c0,0.3,0.1,0.5,0.4,0.6c0.3,0.2,0.8,0.3,1.4,0.3c0.7,0,1.1-0.1,1.4-0.3
			C213.5,124.5,213.6,124.2,213.6,124z M214.4,118.1h1.3v0.7h-1.3v1.3h1.3v0.7h-1.3v1.6h-0.8V117h0.8V118.1z"/>
	</g>
	<g>
		<path d="M139.2,78.8v1.7h4.2v0.7h-8.1v-0.7h3v-1.7H139.2z M142.3,83.5c0,0.2-0.1,0.4-0.2,0.7c-0.1,0.2-0.3,0.4-0.6,0.6
			c-0.3,0.2-0.6,0.3-0.9,0.4c-0.3,0.1-0.8,0.1-1.3,0.1c-0.5,0-0.9-0.1-1.3-0.1c-0.4-0.1-0.6-0.2-0.9-0.4c-0.3-0.2-0.4-0.3-0.6-0.6
			c-0.1-0.2-0.2-0.4-0.2-0.7c0-0.3,0.1-0.4,0.2-0.7c0.1-0.2,0.3-0.4,0.6-0.5c0.3-0.1,0.6-0.3,0.9-0.4c0.4-0.1,0.8-0.1,1.3-0.1
			c0.4,0,0.9,0.1,1.3,0.1c0.4,0.1,0.6,0.2,0.9,0.4c0.3,0.1,0.4,0.3,0.6,0.5C142.2,83,142.3,83.3,142.3,83.5z M136.5,76.9h5.6
			c0,0.6-0.1,1.2-0.1,1.7c-0.1,0.5-0.1,1-0.2,1.3h-0.8c0.1-0.4,0.1-0.8,0.1-1.2c0.1-0.4,0.1-0.8,0.1-1.2h-4.8L136.5,76.9L136.5,76.9
			L136.5,76.9z M141.4,83.5c0-0.1-0.1-0.3-0.1-0.4c-0.1-0.1-0.2-0.3-0.3-0.3c-0.1-0.1-0.4-0.2-0.6-0.3c-0.3-0.1-0.6-0.1-0.9-0.1
			s-0.7,0-0.9,0.1c-0.3,0.1-0.4,0.1-0.6,0.3c-0.2,0.1-0.3,0.2-0.3,0.3c-0.1,0.1-0.1,0.3-0.1,0.4c0,0.1,0.1,0.2,0.1,0.4
			c0.1,0.1,0.2,0.3,0.3,0.3c0.1,0.1,0.4,0.2,0.6,0.2c0.3,0.1,0.6,0.1,0.9,0.1c0.4,0,0.7,0,0.9-0.1c0.3-0.1,0.4-0.1,0.6-0.2
			c0.2-0.1,0.2-0.2,0.3-0.3C141.3,83.8,141.4,83.7,141.4,83.5z"/>
		<path d="M151.7,81.5h-8.1v-0.7h3.6v-1.1H145v-2.8h5.4v0.7h-4.6v1.5h4.7v0.7h-2.5v1.1h3.6L151.7,81.5L151.7,81.5L151.7,81.5z
			 M150.6,83.7c0,0.4-0.3,0.8-0.8,1.1c-0.5,0.3-1.2,0.4-2.1,0.4c-0.5,0-0.9-0.1-1.3-0.1c-0.4-0.1-0.7-0.2-0.9-0.3
			c-0.3-0.1-0.4-0.3-0.6-0.5c-0.1-0.2-0.2-0.4-0.2-0.6c0-0.4,0.3-0.8,0.8-1.1c0.5-0.3,1.2-0.4,2.1-0.4c0.9,0,1.7,0.1,2.1,0.4
			C150.3,82.8,150.6,83.2,150.6,83.7z M149.7,83.7c0-0.1-0.1-0.2-0.1-0.3c-0.1-0.1-0.2-0.2-0.3-0.3c-0.2-0.1-0.4-0.1-0.6-0.2
			c-0.3-0.1-0.6-0.1-0.9-0.1c-0.4,0-0.7,0-0.9,0.1c-0.3,0.1-0.4,0.1-0.6,0.2c-0.2,0.1-0.3,0.2-0.3,0.3c-0.1,0.1-0.1,0.2-0.1,0.3
			c0,0.1,0.1,0.3,0.1,0.3c0.1,0.1,0.2,0.2,0.3,0.3c0.2,0.1,0.4,0.1,0.6,0.2c0.3,0.1,0.6,0.1,0.9,0.1c0.4,0,0.7,0,0.9-0.1
			c0.3-0.1,0.4-0.1,0.6-0.2c0.2-0.1,0.2-0.2,0.3-0.3C149.7,83.9,149.7,83.7,149.7,83.7z"/>
		<path d="M154.8,80.8c0.2,0.4,0.4,0.7,0.7,0.9c0.3,0.3,0.6,0.6,0.9,0.8l-0.6,0.6c-0.3-0.3-0.6-0.5-0.8-0.8
			c-0.3-0.2-0.4-0.6-0.6-0.9c-0.3,0.4-0.6,0.8-0.9,1.1c-0.3,0.3-0.7,0.6-1.1,0.9l-0.6-0.5c0.4-0.2,0.8-0.5,1.1-0.8
			c0.3-0.3,0.6-0.6,0.9-1c0.3-0.4,0.4-0.7,0.6-1.1c0.2-0.4,0.3-0.7,0.3-1c-0.3,0-0.6,0-0.8,0c-0.3,0-0.5,0-0.8,0h-0.7v-0.7h1.1
			c0.3,0,0.6,0,1,0c0.3,0,0.7,0,1.1,0C155.5,79.3,155.2,80.1,154.8,80.8z M152.9,77.7V77h2.3v0.7H152.9z M156.7,76.8h0.8V85h-0.8
			v-4.1h-1.1v-0.7h1.1V76.8z M159.2,85.2h-0.8v-8.4h0.8L159.2,85.2L159.2,85.2z"/>
		<path d="M143.8,88.8h2v-1h0.8v4.9h-0.8v-1.3h-2c-0.2,0.3-0.4,0.5-0.8,0.6c-0.3,0.1-0.6,0.3-1,0.3c-0.3,0-0.6-0.1-0.9-0.2
			c-0.2-0.1-0.5-0.3-0.7-0.4c-0.2-0.2-0.3-0.4-0.4-0.7c-0.1-0.3-0.2-0.6-0.2-0.8c0-0.3,0.1-0.6,0.2-0.8c0.1-0.3,0.3-0.5,0.4-0.7
			c0.2-0.2,0.4-0.3,0.7-0.4c0.3-0.1,0.6-0.2,0.9-0.2c0.4,0,0.7,0.1,1,0.2C143.4,88.3,143.7,88.6,143.8,88.8z M140.8,90.1
			c0,0.2,0.1,0.4,0.1,0.6c0.1,0.2,0.2,0.3,0.3,0.4c0.1,0.1,0.3,0.2,0.4,0.3c0.2,0.1,0.4,0.1,0.6,0.1c0.2,0,0.4-0.1,0.6-0.1
			c0.2-0.1,0.3-0.2,0.4-0.3c0.1-0.1,0.2-0.3,0.3-0.4c0.1-0.2,0.1-0.4,0.1-0.6c0-0.2-0.1-0.4-0.1-0.6c-0.1-0.2-0.2-0.3-0.3-0.4
			c-0.1-0.1-0.3-0.3-0.4-0.3c-0.2-0.1-0.4-0.1-0.6-0.1c-0.2,0-0.4,0.1-0.6,0.1c-0.2,0.1-0.3,0.2-0.4,0.3c-0.1,0.1-0.2,0.3-0.3,0.4
			C140.8,89.7,140.8,89.9,140.8,90.1z M145.9,96.3v-2.4h-4.7v-0.7h5.5v3.1H145.9z M144.2,90.7h1.7v-1.3h-1.7
			c0.1,0.2,0.1,0.4,0.1,0.6C144.3,90.3,144.3,90.5,144.2,90.7z"/>
		<path d="M149.1,91.8h0.9c0.7,0,1.3-0.1,1.9-0.1c0.5-0.1,1-0.1,1.4-0.3v0.7c-0.4,0.1-0.9,0.2-1.5,0.3c-0.6,0.1-1.2,0.1-1.8,0.1
			h-1.7v-2.5h2.9v-1.1h-3v-0.7h3.7v2.5H149L149.1,91.8C149,91.8,149.1,91.8,149.1,91.8z M154.6,94.7c0,0.3-0.1,0.4-0.2,0.6
			c-0.1,0.2-0.3,0.4-0.5,0.5c-0.2,0.1-0.5,0.3-0.9,0.3c-0.3,0.1-0.8,0.1-1.2,0.1c-0.4,0-0.9-0.1-1.2-0.1c-0.3-0.1-0.6-0.2-0.9-0.3
			c-0.3-0.1-0.4-0.3-0.5-0.5c-0.1-0.2-0.2-0.4-0.2-0.6c0-0.3,0.1-0.4,0.2-0.6c0.1-0.2,0.3-0.4,0.5-0.5c0.3-0.1,0.5-0.3,0.9-0.3
			c0.4-0.1,0.8-0.1,1.2-0.1c0.4,0,0.8,0.1,1.2,0.1c0.3,0.1,0.6,0.2,0.9,0.3c0.3,0.1,0.4,0.3,0.5,0.5S154.6,94.5,154.6,94.7z
			 M153.8,94.8c0-0.3-0.1-0.4-0.4-0.6c-0.3-0.2-0.8-0.3-1.4-0.3c-0.6,0-1.1,0.1-1.5,0.3c-0.3,0.2-0.4,0.4-0.4,0.6
			c0,0.3,0.1,0.5,0.4,0.6c0.3,0.2,0.8,0.2,1.5,0.2c0.7,0,1.1-0.1,1.4-0.2C153.7,95.2,153.8,95.1,153.8,94.8z M154.5,88.8h1.3v0.7
			h-1.3v1.3h1.3v0.7h-1.3v1.6h-0.8v-5.3h0.8V88.8z"/>
	</g>
	<g>
		<path d="M200.1,171.7c0,0.2,0,0.5,0,0.8s-0.1,0.5-0.1,0.7c0.3,0.4,0.6,0.9,0.9,1.2c0.4,0.3,0.8,0.6,1.4,0.9l-0.5,0.6
			c-0.4-0.3-0.9-0.5-1.2-0.8c-0.3-0.3-0.6-0.7-0.9-1.1c-0.3,0.4-0.6,0.9-0.9,1.2c-0.3,0.3-0.8,0.6-1.3,0.9l-0.6-0.5
			c0.4-0.2,0.8-0.4,1.1-0.7c0.3-0.3,0.6-0.6,0.8-0.9c0.2-0.3,0.3-0.6,0.4-1c0.1-0.4,0.1-0.8,0.1-1.3L200.1,171.7L200.1,171.7z
			 M203.9,179.8h-5.3v-3h5.3V179.8z M203.1,177.6h-3.7v1.6h3.7L203.1,177.6L203.1,177.6z M203.1,171.5h0.8v4.9h-0.8V171.5z"/>
		<path d="M209.4,177.7h-3.8v-5.4h3.8V177.7z M208.7,177v-4.1h-2.2v4.1H208.7z M211.4,171.5h0.8v8.4h-0.8V171.5z"/>
		<path d="M217,174.1c0.1,0.1,0.2,0.3,0.4,0.4c0.2,0.1,0.3,0.3,0.5,0.4c0.2,0.1,0.3,0.3,0.5,0.4s0.4,0.2,0.5,0.3l-0.5,0.6
			c-0.3-0.2-0.7-0.4-1-0.7c-0.3-0.3-0.6-0.6-0.9-0.9c-0.2,0.2-0.4,0.4-0.6,0.6c-0.3,0.2-0.4,0.4-0.7,0.5c-0.3,0.1-0.4,0.3-0.7,0.4
			c-0.3,0.1-0.4,0.2-0.6,0.3l-0.5-0.6c0.4-0.1,0.8-0.3,1.2-0.6c0.4-0.3,0.8-0.5,1.1-0.8c0.3-0.3,0.6-0.6,0.8-0.9
			c0.2-0.3,0.4-0.6,0.4-1c-0.4,0-0.7,0-1,0s-0.6,0-1,0h-0.9v-0.6h1.5c0.4,0,0.8,0,1.2,0c0.4,0,0.8,0,1.3,0c0,0.4-0.1,0.8-0.3,1.2
			C217.5,173.5,217.3,173.8,217,174.1z M219.6,180v-2.3H215V177h5.5v3H219.6L219.6,180z M218.2,174.3v-0.7h1.4v-2.1h0.8v5h-0.8v-2.3
			L218.2,174.3L218.2,174.3z"/>
		<path d="M193.3,183h1.3c0.4,0,0.9,0,1.3,0c0.4,0,0.9,0,1.3,0c-0.1,0.5-0.1,0.9-0.3,1.4c-0.2,0.4-0.4,0.9-0.8,1.3
			c-0.3,0.4-0.8,0.7-1.2,1c-0.5,0.3-1,0.6-1.6,0.7l-0.4-0.6c0.9-0.3,1.8-0.7,2.3-1.2c0.6-0.5,0.9-1.1,1.1-1.9c-0.4,0-0.8,0-1.1,0
			c-0.4,0-0.8,0-1.1,0h-0.8L193.3,183L193.3,183z M199.4,190.9h-5.2v-3.1h5.2V190.9z M198.5,188.5H195v1.8h3.6V188.5z M200.7,185.3
			h-1.3v2h-0.8v-4.7h0.8v2h1.3V185.3z"/>
		<path d="M204.1,182.8c0,0.3,0,0.6-0.1,0.8c0,0.3-0.1,0.5-0.1,0.8c0.3,0.5,0.6,0.9,0.9,1.3c0.4,0.4,0.8,0.7,1.3,0.9l-0.5,0.6
			c-0.4-0.3-0.8-0.5-1.2-0.8c-0.3-0.3-0.6-0.7-0.9-1.1c-0.2,0.4-0.5,0.9-0.9,1.3c-0.4,0.4-0.8,0.7-1.3,0.9l-0.6-0.5
			c0.8-0.4,1.4-1,1.8-1.6c0.4-0.6,0.6-1.4,0.5-2.4h0.9L204.1,182.8L204.1,182.8z M208.1,189.5c0,0.3-0.1,0.4-0.2,0.6
			c-0.1,0.2-0.3,0.4-0.5,0.5c-0.3,0.1-0.5,0.3-0.9,0.3c-0.4,0.1-0.8,0.1-1.2,0.1c-0.4,0-0.9-0.1-1.2-0.1c-0.4-0.1-0.6-0.2-0.9-0.4
			c-0.3-0.1-0.4-0.3-0.5-0.5c-0.1-0.2-0.2-0.4-0.2-0.6c0-0.2,0.1-0.4,0.2-0.6c0.1-0.2,0.3-0.4,0.5-0.5c0.3-0.1,0.5-0.3,0.9-0.4
			c0.4-0.1,0.8-0.1,1.2-0.1c0.4,0,0.9,0.1,1.2,0.1c0.4,0.1,0.6,0.2,0.9,0.4c0.3,0.2,0.4,0.3,0.5,0.5
			C208,189.1,208.1,189.3,208.1,189.5z M207.3,189.5c0-0.1-0.1-0.3-0.1-0.4c-0.1-0.1-0.2-0.2-0.4-0.3c-0.2-0.1-0.4-0.2-0.6-0.3
			c-0.3-0.1-0.6-0.1-0.9-0.1c-0.3,0-0.6,0-0.9,0.1c-0.3,0.1-0.4,0.1-0.6,0.3c-0.2,0.1-0.3,0.2-0.4,0.3c-0.1,0.1-0.1,0.3-0.1,0.4
			c0,0.1,0.1,0.3,0.1,0.4c0.1,0.1,0.2,0.3,0.4,0.3c0.2,0.1,0.4,0.2,0.6,0.2c0.3,0.1,0.6,0.1,0.9,0.1s0.6,0,0.9-0.1
			c0.3-0.1,0.4-0.1,0.6-0.2c0.2-0.1,0.3-0.2,0.4-0.3C207.2,189.8,207.3,189.6,207.3,189.5z M205.5,185.2v-0.7h1.7v-1.8h0.8v5.1h-0.8
			v-2.6L205.5,185.2L205.5,185.2z"/>
		<path d="M213.5,183.6h2v-1h0.8v4.9h-0.8v-1.3h-2c-0.2,0.3-0.4,0.5-0.8,0.6c-0.3,0.1-0.6,0.3-1,0.3c-0.3,0-0.6-0.1-0.9-0.2
			c-0.2-0.1-0.5-0.2-0.7-0.4c-0.2-0.2-0.3-0.4-0.4-0.7c-0.1-0.3-0.2-0.6-0.2-0.8c0-0.3,0.1-0.6,0.2-0.8s0.3-0.5,0.4-0.7
			c0.2-0.2,0.4-0.3,0.7-0.4c0.3-0.1,0.6-0.2,0.9-0.2c0.4,0,0.7,0.1,1,0.2C213,183.1,213.3,183.4,213.5,183.6z M210.4,185
			c0,0.2,0.1,0.4,0.1,0.6c0.1,0.2,0.2,0.3,0.3,0.4c0.1,0.1,0.3,0.3,0.4,0.3c0.2,0.1,0.4,0.1,0.6,0.1c0.2,0,0.4-0.1,0.6-0.1
			c0.2-0.1,0.3-0.2,0.4-0.3c0.1-0.1,0.2-0.3,0.3-0.4c0.1-0.2,0.1-0.4,0.1-0.6c0-0.2-0.1-0.4-0.1-0.6c-0.1-0.2-0.2-0.3-0.3-0.4
			c-0.1-0.1-0.3-0.3-0.4-0.3c-0.2-0.1-0.4-0.1-0.6-0.1c-0.2,0-0.4,0.1-0.6,0.1c-0.2,0.1-0.3,0.2-0.4,0.3c-0.1,0.1-0.2,0.3-0.3,0.4
			C210.4,184.5,210.4,184.7,210.4,185z M215.5,191.1v-2.4h-4.7v-0.7h5.5v3.1H215.5z M213.8,185.5h1.7v-1.3h-1.7
			c0.1,0.2,0.1,0.4,0.1,0.6C213.9,185.2,213.9,185.3,213.8,185.5z"/>
		<path d="M218.7,186.6h0.9c0.7,0,1.3-0.1,1.9-0.1c0.5-0.1,1-0.1,1.4-0.3v0.7c-0.4,0.1-0.9,0.2-1.5,0.3c-0.6,0.1-1.2,0.1-1.8,0.1
			h-1.7v-2.5h2.9v-1.1h-3v-0.7h3.7v2.5h-2.9L218.7,186.6L218.7,186.6L218.7,186.6z M224.3,189.6c0,0.3-0.1,0.4-0.2,0.6
			c-0.1,0.2-0.3,0.4-0.5,0.5c-0.3,0.1-0.5,0.2-0.9,0.3c-0.4,0.1-0.8,0.1-1.2,0.1s-0.9-0.1-1.2-0.1c-0.3-0.1-0.6-0.2-0.9-0.3
			c-0.3-0.1-0.4-0.3-0.5-0.5c-0.1-0.2-0.2-0.4-0.2-0.6c0-0.3,0.1-0.4,0.2-0.6c0.1-0.2,0.3-0.4,0.5-0.5c0.3-0.1,0.5-0.3,0.9-0.3
			c0.4-0.1,0.8-0.1,1.2-0.1s0.8,0.1,1.2,0.1c0.4,0.1,0.6,0.2,0.9,0.3c0.3,0.1,0.4,0.3,0.5,0.5C224.2,189.1,224.3,189.4,224.3,189.6z
			 M223.4,189.6c0-0.3-0.1-0.4-0.4-0.6c-0.3-0.2-0.8-0.3-1.4-0.3c-0.6,0-1.1,0.1-1.4,0.3c-0.3,0.2-0.4,0.4-0.4,0.6
			c0,0.3,0.1,0.5,0.4,0.6c0.3,0.2,0.8,0.3,1.4,0.3c0.7,0,1.1-0.1,1.4-0.3C223.3,190.1,223.4,189.9,223.4,189.6z M224.2,183.6h1.3
			v0.7h-1.3v1.3h1.3v0.7h-1.3v1.6h-0.8v-5.3h0.8V183.6L224.2,183.6z"/>
	</g>
	<g>
		<path d="M74.7,109.7c0.3,0.4,0.6,0.8,0.9,1.2c0.4,0.4,0.8,0.8,1.1,1l-0.6,0.6c-0.4-0.3-0.7-0.6-1-0.9c-0.3-0.3-0.6-0.8-0.9-1.1
			c-0.3,0.5-0.7,0.9-1.1,1.4c-0.4,0.4-0.9,0.8-1.4,1l-0.6-0.6c0.5-0.3,0.9-0.6,1.3-1c0.4-0.4,0.8-0.8,1.1-1.3
			c0.3-0.4,0.5-0.9,0.7-1.3c0.2-0.4,0.3-0.9,0.3-1.2c-0.4,0-0.7,0-1,0c-0.3,0-0.7,0-1,0h-0.9v-0.7h1.4c0.4,0,0.8,0,1.2,0
			c0.4,0,0.8,0,1.3,0c0,0.5-0.1,1-0.3,1.5C75.2,108.7,75,109.2,74.7,109.7z M79.4,110H78v4.5h-0.8V106H78v3.3h1.4V110z"/>
		<path d="M79.8,112.1c0.6-0.3,1-0.6,1.4-0.9c0.4-0.3,0.8-0.7,1.1-1.1c0.3-0.4,0.5-0.8,0.7-1.3c0.2-0.4,0.3-0.9,0.4-1.4
			c-0.4,0-0.8,0-1.1,0c-0.4,0-0.8,0-1.1,0h-1v-0.7h1.5c0.4,0,0.9,0,1.3,0c0.4,0,0.9,0,1.3,0c-0.1,1.3-0.4,2.4-1.1,3.4
			c-0.6,1-1.6,1.8-2.8,2.5L79.8,112.1z M85.9,106h0.8v8.4h-0.8V106z"/>
		<path d="M90.5,108.5v1.8c0.5,0,1-0.1,1.6-0.1c0.5-0.1,1-0.1,1.4-0.1v0.6c-0.3,0.1-0.6,0.1-1,0.1c-0.4,0-0.7,0.1-1.1,0.1
			c-0.4,0-0.8,0.1-1.1,0.1s-0.8,0-1.1,0h-1.4v-0.7h1.9v-1.9L90.5,108.5L90.5,108.5L90.5,108.5z M92.7,106.5c0,0.3,0,0.5-0.1,0.8
			c-0.1,0.3-0.1,0.6-0.1,0.8c0,0.3-0.1,0.6-0.1,0.8c-0.1,0.3-0.1,0.5-0.1,0.7h-0.8c0.1-0.4,0.1-0.8,0.2-1.2c0.1-0.4,0.1-0.8,0.1-1.3
			h-3.4v-0.7L92.7,106.5L92.7,106.5L92.7,106.5z M94.8,114.3h-5.5v-2.4h0.8v1.7h4.7L94.8,114.3L94.8,114.3z M93.9,112.5V106h0.8v2.9
			h1.2v0.7h-1.2v2.9L93.9,112.5L93.9,112.5z"/>
		<path d="M97.5,111.8h1.3c0.3,0,0.6,0,0.9-0.1c0.3,0,0.6-0.1,0.8-0.1c0.3-0.1,0.5-0.1,0.8-0.1c0.3-0.1,0.4-0.1,0.6-0.1v0.6
			c-0.2,0.1-0.4,0.1-0.6,0.1c-0.3,0.1-0.5,0.1-0.8,0.1c-0.3,0.1-0.6,0.1-0.9,0.1c-0.3,0-0.6,0.1-0.9,0.1h-2v-3.3h2.9v-1.8h-2.9v-0.7
			h3.7v3.1h-2.9L97.5,111.8L97.5,111.8L97.5,111.8z M102.4,106h0.8v8.4h-0.8V106z"/>
		<path d="M83.8,118.2h2v-1h0.8v4.9h-0.8v-1.3h-2c-0.2,0.3-0.4,0.5-0.8,0.6c-0.3,0.1-0.6,0.3-1,0.3c-0.3,0-0.6-0.1-0.9-0.2
			c-0.3-0.1-0.5-0.3-0.7-0.4c-0.2-0.2-0.3-0.4-0.4-0.7c-0.1-0.3-0.2-0.6-0.2-0.8c0-0.3,0.1-0.6,0.2-0.8c0.1-0.3,0.3-0.5,0.4-0.7
			c0.2-0.2,0.4-0.3,0.7-0.4c0.3-0.1,0.6-0.2,0.9-0.2c0.4,0,0.7,0.1,1,0.2C83.4,117.7,83.7,117.9,83.8,118.2z M80.8,119.5
			c0,0.2,0.1,0.4,0.1,0.6c0.1,0.2,0.2,0.3,0.3,0.4s0.3,0.3,0.4,0.3c0.2,0.1,0.4,0.1,0.6,0.1c0.2,0,0.4-0.1,0.6-0.1
			c0.2-0.1,0.3-0.2,0.4-0.3c0.1-0.1,0.2-0.3,0.3-0.4c0.1-0.2,0.1-0.4,0.1-0.6c0-0.2-0.1-0.4-0.1-0.6c-0.1-0.2-0.2-0.3-0.3-0.4
			c-0.1-0.1-0.3-0.3-0.4-0.3c-0.2-0.1-0.4-0.1-0.6-0.1c-0.2,0-0.4,0.1-0.6,0.1c-0.2,0.1-0.3,0.2-0.4,0.3c-0.1,0.1-0.2,0.3-0.3,0.4
			C80.8,119.1,80.8,119.3,80.8,119.5z M85.9,125.7v-2.4h-4.7v-0.7h5.5v3.1H85.9z M84.2,120.1h1.7v-1.3h-1.7c0.1,0.2,0.1,0.4,0.1,0.6
			C84.3,119.7,84.3,119.9,84.2,120.1z"/>
		<path d="M89.1,121.1h0.9c0.7,0,1.3-0.1,1.9-0.1c0.5-0.1,1-0.1,1.4-0.3v0.7c-0.4,0.1-0.9,0.2-1.5,0.3c-0.6,0.1-1.2,0.1-1.8,0.1
			h-1.7v-2.5h2.9v-1.1h-3v-0.7H92v2.5h-2.9L89.1,121.1L89.1,121.1L89.1,121.1z M94.7,124.2c0,0.3-0.1,0.4-0.2,0.6
			c-0.1,0.2-0.3,0.4-0.5,0.5c-0.3,0.1-0.5,0.3-0.9,0.3c-0.4,0.1-0.8,0.1-1.2,0.1c-0.4,0-0.9-0.1-1.2-0.1c-0.3-0.1-0.6-0.2-0.9-0.3
			c-0.3-0.1-0.4-0.3-0.5-0.5c-0.1-0.2-0.2-0.4-0.2-0.6c0-0.3,0.1-0.4,0.2-0.6c0.1-0.2,0.3-0.4,0.5-0.5c0.2-0.1,0.5-0.3,0.9-0.3
			c0.3-0.1,0.8-0.1,1.2-0.1c0.4,0,0.8,0.1,1.2,0.1c0.3,0.1,0.6,0.2,0.9,0.3c0.3,0.1,0.4,0.3,0.5,0.5
			C94.6,123.7,94.7,123.9,94.7,124.2z M93.9,124.2c0-0.3-0.1-0.4-0.4-0.6c-0.3-0.2-0.8-0.3-1.4-0.3c-0.6,0-1.1,0.1-1.4,0.3
			c-0.3,0.2-0.4,0.4-0.4,0.6c0,0.3,0.1,0.5,0.4,0.6c0.3,0.2,0.8,0.3,1.4,0.3c0.7,0,1.1-0.1,1.4-0.3
			C93.7,124.6,93.9,124.4,93.9,124.2z M94.5,118.2h1.3v0.7h-1.3v1.3h1.3v0.7h-1.3v1.6h-0.8v-5.3h0.8V118.2z"/>
	</g>
</g>
<g>
	<path class="st16" d="M12.3,141.6h3.5v0.6h-2.7v3.7h1.1c0.6,0,1.1-0.1,1.5-0.1c0.4-0.1,0.8-0.1,1.1-0.2v0.6
		c-0.2,0.1-0.3,0.1-0.6,0.1c-0.2,0.1-0.4,0.1-0.7,0.1c-0.2,0.1-0.5,0.1-0.7,0.1c-0.3,0-0.5,0.1-0.8,0.1h-1.7L12.3,141.6L12.3,141.6
		L12.3,141.6z M17.4,141h0.7v7.5h-0.7V141z"/>
	<path class="st16" d="M22.3,144.2c0.2,0.3,0.5,0.7,0.8,1.1c0.3,0.3,0.7,0.6,1,0.9l-0.5,0.5c-0.3-0.3-0.6-0.6-0.9-0.8
		c-0.3-0.3-0.6-0.7-0.8-1c-0.3,0.4-0.7,0.8-1.1,1.2c-0.4,0.3-0.8,0.7-1.2,0.9l-0.5-0.5c0.4-0.2,0.8-0.5,1.2-0.9
		c0.4-0.3,0.7-0.7,0.9-1.1c0.3-0.4,0.5-0.8,0.7-1.2c0.2-0.4,0.3-0.8,0.3-1.1c-0.3,0-0.6,0-0.9,0c-0.3,0-0.6,0-0.9,0h-0.9v-0.6h1.3
		c0.3,0,0.7,0,1.1,0c0.3,0,0.7,0,1.1,0c0,0.4-0.1,0.9-0.2,1.3C22.8,143.4,22.6,143.9,22.3,144.2z M24.7,141h0.7v7.5h-0.7V141z"/>
	<path class="st16" d="M28.5,144.6H27v-3.4h3.4v0.6h-2.6v0.8h2.5v0.6h-2.5v0.8h1c0.5,0,1,0,1.4-0.1c0.4-0.1,0.9-0.1,1.3-0.2v0.6
		c-0.4,0.1-0.8,0.2-1.3,0.2C29.5,144.6,29,144.6,28.5,144.6z M32.9,148.4H28v-1.9h4v-0.7h-4v-0.6h4.8v1.8h-4v0.7H33L32.9,148.4
		L32.9,148.4z M30.8,143.1v-0.6H32V141h0.7v3.9H32v-1.8L30.8,143.1L30.8,143.1z"/>
	<path class="st16" d="M9.3,156h1.1c0.3,0,0.6,0,0.8-0.1c0.3-0.1,0.5-0.1,0.7-0.1c0.2-0.1,0.4-0.1,0.7-0.1c0.2-0.1,0.4-0.1,0.5-0.1
		v0.6c-0.2,0.1-0.3,0.1-0.6,0.1c-0.2,0.1-0.4,0.1-0.7,0.1c-0.3,0-0.5,0.1-0.8,0.1c-0.3,0-0.5,0.1-0.8,0.1H8.5v-3h2.6V152H8.5v-0.6
		h3.3v2.7H9.2L9.3,156L9.3,156L9.3,156z M13.7,150.9h0.7v7.5h-0.7V150.9z"/>
	<path class="st16" d="M17.6,156.5h-1.7v-5h3.2v0.6h-2.6v1.6H19v0.6h-2.4v1.6h1.1c0.4,0,0.9,0,1.3-0.1c0.4-0.1,0.8-0.1,1.3-0.2v0.6
		c-0.4,0.1-0.8,0.2-1.3,0.2C18.5,156.5,18,156.5,17.6,156.5z M19.7,154.1v-0.6H21v-2.6h0.7v7.5H21v-4.2H19.7L19.7,154.1z"/>
	<path class="st16" d="M24,156h0.8c0.3,0,0.6,0,0.8-0.1c0.3,0,0.5-0.1,0.7-0.1c0.2-0.1,0.4-0.1,0.7-0.1c0.2-0.1,0.4-0.1,0.5-0.1v0.6
		c-0.2,0.1-0.3,0.1-0.6,0.1c-0.2,0.1-0.4,0.1-0.7,0.1c-0.3,0-0.5,0.1-0.8,0.1c-0.3,0-0.5,0.1-0.8,0.1h-1.5v-3h2.6V152h-2.6v-0.6h3.3
		v2.7H24L24,156L24,156z M27.1,154.1v-0.6h1.3v-2.6h0.7v7.5h-0.7v-4.2H27.1L27.1,154.1z"/>
	<path class="st16" d="M30.5,156.8l-0.5-0.4c0.3-0.2,0.7-0.5,1-0.8c0.3-0.3,0.5-0.7,0.7-1.1c0.2-0.4,0.3-0.8,0.4-1.3
		c0.1-0.5,0.1-1.1,0.1-1.7h0.7c0,0.3,0,0.7-0.1,1c-0.1,0.3-0.1,0.6-0.2,0.9c0.2,0.6,0.5,1.1,0.8,1.6c0.3,0.4,0.8,0.9,1.3,1.2
		l-0.4,0.5c-0.4-0.3-0.8-0.6-1.1-1c-0.3-0.4-0.6-0.8-0.8-1.3c-0.2,0.6-0.5,1-0.8,1.5C31.3,156,30.9,156.4,30.5,156.8z M35.7,150.9
		h0.7v7.5h-0.7V150.9z"/>
</g>
<g>
	<path class="st16" d="M260,144.8v-2.9h0.7v0.9h3.2v-0.9h0.7v2.9h-2v0.9h3.2v0.6h-7v-0.6h3.1v-0.9H260z M264.1,149.3v-1.7h-4.1V147
		h4.9v2.3L264.1,149.3L264.1,149.3z M264,143.4h-3.2v0.9h3.2V143.4z"/>
	<path class="st16" d="M266.1,143.4v-0.5h4.4v0.5H266.1z M268.3,146.1c-0.3,0-0.5-0.1-0.8-0.1c-0.3-0.1-0.4-0.2-0.5-0.3
		c-0.1-0.1-0.3-0.2-0.3-0.4c-0.1-0.2-0.1-0.3-0.1-0.4c0-0.2,0.1-0.3,0.1-0.4c0.1-0.2,0.2-0.3,0.3-0.4c0.2-0.1,0.3-0.2,0.5-0.3
		c0.2-0.1,0.5-0.1,0.8-0.1c0.3,0,0.5,0.1,0.8,0.1c0.2,0.1,0.4,0.2,0.5,0.3c0.2,0.1,0.3,0.2,0.3,0.4c0.1,0.2,0.1,0.3,0.1,0.4
		c0,0.2-0.1,0.3-0.1,0.4c-0.1,0.2-0.2,0.3-0.3,0.4c-0.2,0.1-0.3,0.2-0.5,0.3C268.9,146,268.6,146.1,268.3,146.1z M267.1,142.4v-0.5
		h2.5v0.5H267.1z M268.3,145.5c0.2,0,0.4,0,0.5-0.1c0.1-0.1,0.3-0.1,0.3-0.2c0.1-0.1,0.2-0.1,0.2-0.2c0.1-0.1,0.1-0.2,0.1-0.2
		c0-0.1,0-0.2-0.1-0.2c-0.1-0.1-0.1-0.2-0.2-0.2c-0.1-0.1-0.2-0.1-0.3-0.2c-0.2-0.1-0.3-0.1-0.5-0.1c-0.2,0-0.4,0-0.5,0.1
		c-0.1,0.1-0.3,0.1-0.3,0.2c-0.1,0.1-0.2,0.1-0.2,0.2c-0.1,0.1-0.1,0.2-0.1,0.2c0,0.2,0.1,0.3,0.3,0.4
		C267.6,145.5,267.9,145.5,268.3,145.5z M271.9,149.1h-4.5v-2.6h0.7v0.7h3.2v-0.8h0.7L271.9,149.1L271.9,149.1L271.9,149.1z
		 M271.2,148.5v-0.8h-3.2v0.8H271.2z M273.1,144.4h-1.1v1.7h-0.7v-4.2h0.7v1.9h1.1V144.4z"/>
	<path class="st16" d="M277.2,147.7h-0.7v-1.6h-3.3v-0.6h7v0.6h-2.9L277.2,147.7L277.2,147.7z M279.4,149.1h-5v-2.2h0.7v1.6h4.3
		V149.1z M274.4,144.7v-2.6h4.6v2.6H274.4z M278.3,144.1v-1.4h-3.2v1.4H278.3z"/>
	<path class="st16" d="M282.7,143.1c-0.2,0-0.4,0-0.7,0.1c-0.2,0-0.5,0-0.7,0h-0.5v-0.6h0.9c0.3,0,0.5,0,0.9,0c0.3,0,0.6,0,0.9,0
		c-0.1,0.9-0.3,1.6-0.5,2.4c0.2,0.4,0.4,0.7,0.6,1c0.3,0.3,0.5,0.6,0.8,0.8l-0.5,0.5c-0.2-0.2-0.5-0.5-0.7-0.8
		c-0.2-0.3-0.4-0.6-0.5-0.9c-0.2,0.4-0.4,0.7-0.7,1c-0.3,0.3-0.5,0.6-0.9,0.9l-0.5-0.4c0.7-0.5,1.2-1.1,1.6-1.8
		C282.5,144.7,282.6,143.9,282.7,143.1z M284.5,141.9h0.7v7.1h-0.7v-4h-1v-0.6h1V141.9z M286.7,149.2H286v-7.3h0.7V149.2z"/>
	<path class="st16" d="M259,153.6V153h3.4v0.6H259z M259.2,155.7c0-0.2,0.1-0.4,0.1-0.7c0.1-0.2,0.2-0.4,0.3-0.5
		c0.2-0.2,0.3-0.3,0.5-0.3c0.2-0.1,0.4-0.1,0.6-0.1c0.2,0,0.4,0.1,0.6,0.1c0.2,0.1,0.3,0.2,0.5,0.3c0.2,0.2,0.3,0.3,0.3,0.5
		c0.1,0.2,0.1,0.4,0.1,0.7c0,0.2-0.1,0.4-0.1,0.7c-0.1,0.2-0.2,0.4-0.3,0.5c-0.2,0.2-0.3,0.2-0.5,0.3c-0.2,0.1-0.4,0.1-0.6,0.1
		c-0.2,0-0.4-0.1-0.6-0.1c-0.2-0.1-0.3-0.2-0.5-0.3c-0.2-0.2-0.2-0.3-0.3-0.5C259.3,156.1,259.2,155.9,259.2,155.7z M259.8,152.4
		v-0.6h2v0.6H259.8z M259.9,155.7c0,0.3,0.1,0.5,0.2,0.7c0.2,0.2,0.4,0.3,0.6,0.3c0.2,0,0.5-0.1,0.7-0.3c0.2-0.2,0.2-0.4,0.2-0.7
		c0-0.3-0.1-0.5-0.2-0.7c-0.2-0.2-0.4-0.3-0.7-0.3c-0.3,0-0.5,0.1-0.6,0.3C260,155.1,259.9,155.4,259.9,155.7z M265.2,158.9h-0.7
		v-3.8h-0.9v3.5H263v-7.1h0.7v2.9h0.9v-3h0.7V158.9z"/>
	<path class="st16" d="M269.4,152.4c-0.3,0-0.7,0-0.9,0c-0.3,0-0.6,0-0.9,0h-0.8v-0.6h1.2c0.4,0,0.8,0,1.1,0c0.4,0,0.7,0,1.1,0
		c-0.1,0.4-0.1,0.8-0.3,1.1c-0.2,0.3-0.4,0.7-0.7,1c-0.3,0.3-0.7,0.5-1,0.8c-0.4,0.2-0.9,0.4-1.4,0.6l-0.4-0.5
		c0.8-0.2,1.4-0.5,2-0.9C268.9,153.5,269.2,153,269.4,152.4z M272.4,158.8h-4.8v-1.9h3.9v-0.7h-3.9v-0.6h4.6v1.8h-3.9v0.7h4.1
		L272.4,158.8L272.4,158.8L272.4,158.8z M271.5,152.6v-1.1h0.7v3.8h-0.7v-0.8h-1.4v-0.6h1.4v-0.7h-1.2v-0.6L271.5,152.6L271.5,152.6
		z"/>
	<path class="st16" d="M280.2,154.8v0.6h-7v-0.6H280.2z M279.2,157.5c0,0.2-0.1,0.4-0.2,0.5c-0.1,0.2-0.3,0.3-0.5,0.4
		c-0.2,0.1-0.5,0.2-0.8,0.3c-0.3,0.1-0.7,0.1-1.1,0.1c-0.4,0-0.8-0.1-1.1-0.1c-0.3-0.1-0.5-0.2-0.8-0.3c-0.2-0.2-0.4-0.3-0.5-0.4
		c-0.1-0.2-0.2-0.4-0.2-0.5c0-0.2,0.1-0.4,0.2-0.5c0.1-0.2,0.3-0.3,0.5-0.4c0.2-0.1,0.5-0.2,0.8-0.3c0.3-0.1,0.7-0.1,1.1-0.1
		c0.4,0,0.8,0.1,1.1,0.1c0.3,0.1,0.5,0.2,0.8,0.3c0.2,0.1,0.4,0.3,0.5,0.4C279.1,157.1,279.2,157.3,279.2,157.5z M274.4,151.5h0.7
		v1.7h4.1v0.6h-4.8V151.5z M278.5,157.5c0-0.1-0.1-0.2-0.1-0.3c-0.1-0.1-0.2-0.2-0.3-0.3c-0.2-0.1-0.3-0.2-0.5-0.2
		c-0.2-0.1-0.5-0.1-0.8-0.1c-0.3,0-0.6,0-0.8,0.1c-0.2,0.1-0.4,0.1-0.5,0.2c-0.2,0.1-0.2,0.2-0.3,0.3c-0.1,0.1-0.1,0.2-0.1,0.3
		s0.1,0.2,0.1,0.3c0.1,0.1,0.2,0.2,0.3,0.3c0.2,0.1,0.3,0.2,0.5,0.2c0.2,0.1,0.5,0.1,0.8,0.1c0.3,0,0.6,0,0.8-0.1
		c0.2-0.1,0.4-0.1,0.5-0.2c0.2-0.1,0.2-0.2,0.3-0.3C278.4,157.7,278.5,157.6,278.5,157.5z"/>
	<path class="st16" d="M281.6,155.1h0.7c0.3,0,0.6,0,0.9,0c0.3,0,0.5-0.1,0.8-0.1c0.2,0,0.4-0.1,0.7-0.1c0.2-0.1,0.4-0.1,0.6-0.1
		v0.5c-0.4,0.1-0.9,0.2-1.4,0.2c-0.5,0.1-1,0.1-1.6,0.1h-1.3v-2.3h2.4v-1h-2.5v-0.6h3.1v2.2h-2.4L281.6,155.1L281.6,155.1z
		 M285.9,158.9V157h-4v-0.6h4.7v2.5H285.9z M284.7,153.1v-0.5h1.2v-1h0.7v4.5h-0.7v-1.6h-1.2v-0.5h1.3v-0.7h-1.3V153.1z"/>
</g>
<g>
	<g>
		
			<image style="overflow:visible;opacity:0.5;enable-background:new    ;" width="49" height="49" xlink:href="/images/A3E24AF7.png"  transform="matrix(1 0 0 1 124.2928 126.5002)">
		</image>
		<g>
			<path class="st16" d="M166.1,161.1c0,4-3.2,7.2-7.2,7.2h-22.2c-4,0-7.2-3.2-7.2-7.2v-22.2c0-4,3.2-7.2,7.2-7.2h22.2
				c4,0,7.2,3.2,7.2,7.2V161.1z"/>
		</g>
	</g>
	<path class="st23" d="M191.7,140.9c0,4.7-3.8,8.6-8.6,8.6h-26.3c-4.7,0-8.6-3.8-8.6-8.6v-26.3c0-4.7,3.8-8.6,8.6-8.6h26.3
		c4.7,0,8.6,3.8,8.6,8.6V140.9z"/>
	<g>
		
			<image style="overflow:visible;opacity:0.5;enable-background:new    ;" width="50" height="50" xlink:href="/images/A3E24B08.png"  transform="matrix(1 0 0 1 146.2928 103.5002)">
		</image>
		<g>
			<path class="st24" d="M188.3,138.8c0,4-3.2,7.2-7.2,7.2l-22.2,0c-4,0-7.2-3.2-7.2-7.2l0-22.2c0-4,3.2-7.2,7.2-7.2l22.2,0
				c4,0,7.2,3.2,7.2,7.2L188.3,138.8z"/>
		</g>
	</g>
	<g>
		<path class="st16" d="M154.9,121.7h2.9v0.5h-2.3v3h0.7c0.4,0,0.8-0.1,1.2-0.1c0.4-0.1,0.7-0.1,0.9-0.2v0.5
			c-0.1,0.1-0.3,0.1-0.4,0.1c-0.2,0.1-0.3,0.1-0.6,0.1c-0.2,0-0.4,0.1-0.6,0.1s-0.4,0-0.6,0h-1.2L154.9,121.7L154.9,121.7
			L154.9,121.7z M157.2,123.9v-0.5h1.7v-2.2h0.6v6H159v-3.4H157.2z"/>
		<path class="st16" d="M162.9,124.8v-0.6h-2.6v-0.4h5.7v0.4h-2.6v0.6h1.7v1.4h-3.3v0.5h3.5v0.4h-4v-1.3h3.3v-0.5h-3.3v-0.4
			L162.9,124.8L162.9,124.8L162.9,124.8z M161.3,123.2v-2h0.6v0.6h2.6v-0.6h0.6v2H161.3z M164.5,122.3h-2.7v0.5h2.7V122.3z"/>
		<path class="st16" d="M169.5,123.4h1.2v-2.1h0.6v6h-0.6v-3.4h-1.2c0,0.3-0.1,0.6-0.2,0.9c-0.1,0.2-0.2,0.4-0.3,0.6
			c-0.2,0.2-0.3,0.3-0.5,0.4s-0.4,0.1-0.6,0.1c-0.2,0-0.4-0.1-0.6-0.1c-0.2-0.1-0.3-0.2-0.5-0.4c-0.1-0.2-0.2-0.4-0.3-0.7
			c-0.1-0.3-0.1-0.6-0.1-0.9c0-0.4,0.1-0.7,0.1-1c0.1-0.3,0.2-0.5,0.3-0.7c0.1-0.2,0.3-0.3,0.5-0.4c0.2-0.1,0.4-0.1,0.6-0.1
			s0.4,0.1,0.6,0.1c0.2,0.1,0.3,0.2,0.4,0.3c0.1,0.2,0.2,0.3,0.3,0.6C169.5,122.8,169.5,123.1,169.5,123.4z M169,123.7
			c0-0.2,0-0.4-0.1-0.7s-0.1-0.4-0.2-0.5c-0.1-0.1-0.2-0.3-0.3-0.3c-0.1-0.1-0.3-0.1-0.4-0.1c-0.2,0-0.3,0.1-0.4,0.1
			c-0.1,0.1-0.2,0.2-0.3,0.3c-0.1,0.2-0.2,0.3-0.2,0.5c-0.1,0.2-0.1,0.4-0.1,0.7c0,0.2,0,0.4,0.1,0.7c0.1,0.2,0.1,0.4,0.2,0.5
			c0.1,0.2,0.2,0.3,0.3,0.3c0.1,0.1,0.3,0.1,0.4,0.1c0.2,0,0.3-0.1,0.4-0.1c0.1-0.1,0.2-0.2,0.3-0.3c0.1-0.2,0.2-0.3,0.2-0.5
			C169,124.1,169,123.9,169,123.7z"/>
		<path class="st16" d="M173.8,125.9l-0.4-0.3c0.3-0.2,0.5-0.4,0.7-0.7c0.2-0.2,0.4-0.6,0.6-0.8c0.1-0.3,0.3-0.7,0.3-1.1
			c0.1-0.4,0.1-0.8,0.1-1.3h0.6c0,0.3,0,0.6,0,0.8s-0.1,0.5-0.1,0.7c0.2,0.4,0.4,0.8,0.7,1.2c0.3,0.4,0.6,0.7,1,0.9l-0.4,0.4
			c-0.3-0.2-0.6-0.5-0.9-0.8c-0.3-0.3-0.5-0.7-0.7-1.1c-0.2,0.4-0.4,0.8-0.7,1.2C174.5,125.4,174.2,125.6,173.8,125.9z M179.4,124.1
			h-1v3.1h-0.6v-6h0.6v2.3h1V124.1z"/>
		<path class="st16" d="M185.2,124.2v0.5h-5.7v-0.5H185.2z M184.4,127.1h-4v-1.8h0.6v1.3h3.4L184.4,127.1L184.4,127.1z M180.4,121.2
			h0.6v1.6h3.4v0.5h-3.9V121.2L180.4,121.2z"/>
		<path class="st16" d="M164.3,133.8l-0.4-0.3c0.3-0.2,0.5-0.4,0.7-0.7c0.2-0.2,0.4-0.6,0.6-0.8c0.2-0.3,0.3-0.7,0.3-1.1
			c0.1-0.4,0.1-0.8,0.1-1.3h0.6c0,0.3,0,0.6,0,0.8c0,0.3-0.1,0.5-0.1,0.7c0.2,0.4,0.4,0.8,0.7,1.2c0.3,0.4,0.6,0.7,1,0.9l-0.4,0.4
			c-0.3-0.2-0.6-0.5-0.9-0.8c-0.3-0.3-0.5-0.7-0.7-1.1c-0.2,0.4-0.4,0.8-0.7,1.2C164.8,133.3,164.7,133.5,164.3,133.8z M169.8,132
			h-1v3.1h-0.6v-6h0.6v2.3h1V132z"/>
		<path class="st16" d="M170.8,131.9h0.7c0.5,0,1,0,1.3-0.1c0.4-0.1,0.7-0.1,1-0.2v0.4c-0.3,0.1-0.7,0.2-1.1,0.2
			c-0.4,0.1-0.8,0.1-1.3,0.1h-1.2v-1.8h2.1v-0.8h-2.1v-0.4h2.6v1.7h-2.1L170.8,131.9L170.8,131.9z M174.7,135H171V133h3.7V135z
			 M174.1,133.4h-2.6v1.1h2.6V133.4z M175.6,131h-0.9v1.6h-0.6v-3.5h0.6v1.3h0.9V131z"/>
	</g>
	<path class="st25" d="M191.7,185.4c0,4.7-3.8,8.6-8.6,8.6h-26.3c-4.7,0-8.6-3.8-8.6-8.6v-26.3c0-4.7,3.8-8.6,8.6-8.6h26.3
		c4.7,0,8.6,3.8,8.6,8.6V185.4z"/>
	<g>
		
			<image style="overflow:visible;opacity:0.5;enable-background:new    ;" width="50" height="50" xlink:href="/images/A3E24B0B.png"  transform="matrix(1 0 0 1 146.2928 148.5002)">
		</image>
		<g>
			<path class="st26" d="M188.3,183.3c0,4-3.2,7.2-7.2,7.2h-22.2c-4,0-7.2-3.2-7.2-7.2v-22.2c0-4,3.2-7.2,7.2-7.2h22.2
				c4,0,7.2,3.2,7.2,7.2V183.3z"/>
		</g>
	</g>
	<path class="st27" d="M147.3,185.4c0,4.7-3.8,8.6-8.6,8.6h-26.3c-4.7,0-8.6-3.8-8.6-8.6v-26.3c0-4.7,3.8-8.6,8.6-8.6h26.3
		c4.7,0,8.6,3.8,8.6,8.6V185.4z"/>
	<g>
		
			<image style="overflow:visible;opacity:0.5;enable-background:new    ;" width="50" height="50" xlink:href="/images/AFB4D627.png"  transform="matrix(1 0 0 1 101.2928 148.5002)">
		</image>
		<g>
			<path class="st28" d="M143.9,183.3c0,4-3.2,7.2-7.2,7.2h-22.2c-4,0-7.2-3.2-7.2-7.2v-22.2c0-4,3.2-7.2,7.2-7.2h22.2
				c4,0,7.2,3.2,7.2,7.2L143.9,183.3L143.9,183.3z"/>
		</g>
	</g>
	<path class="st29" d="M147.3,140.9c0,4.7-3.8,8.6-8.6,8.6h-26.3c-4.7,0-8.6-3.8-8.6-8.6v-26.3c0-4.7,3.8-8.6,8.6-8.6h26.3
		c4.7,0,8.6,3.8,8.6,8.6V140.9z"/>
	<g>
		
			<image style="overflow:visible;opacity:0.5;enable-background:new    ;" width="50" height="50" xlink:href="/images/AFB4D625.png"  transform="matrix(1 0 0 1 101.2928 103.5002)">
		</image>
		<g>
			<path class="st30" d="M143.9,138.9c0,4-3.2,7.2-7.2,7.2h-22.2c-4,0-7.2-3.2-7.2-7.2v-22.2c0-4,3.2-7.2,7.2-7.2h22.2
				c4,0,7.2,3.2,7.2,7.2L143.9,138.9L143.9,138.9z"/>
		</g>
	</g>
	<g>
		<path class="st16" d="M116.7,167.5c0.4,0.3,0.8,0.6,1.3,0.7l-0.3,0.4c-0.2-0.1-0.4-0.2-0.7-0.4c-0.2-0.2-0.4-0.3-0.7-0.4
			c-0.3,0.2-0.6,0.4-0.8,0.6c-0.3,0.2-0.6,0.3-0.9,0.4l-0.3-0.4c0.3-0.1,0.6-0.2,0.8-0.3c0.3-0.1,0.5-0.3,0.7-0.4
			c0.2-0.2,0.4-0.3,0.6-0.5c0.2-0.2,0.3-0.3,0.3-0.5c-0.2,0-0.5,0-0.7,0c-0.2,0-0.5,0-0.7,0h-0.7v-0.4h1.1c0.3,0,0.6,0,0.8,0
			s0.6,0,0.9,0c-0.1,0.2-0.1,0.4-0.2,0.7C117,167.1,116.9,167.3,116.7,167.5z M119,170.2c0,0.2-0.1,0.3-0.1,0.4
			c-0.1,0.1-0.2,0.3-0.4,0.3c-0.2,0.1-0.4,0.2-0.6,0.2c-0.2,0.1-0.5,0.1-0.8,0.1c-0.3,0-0.6-0.1-0.8-0.1c-0.2-0.1-0.4-0.1-0.6-0.2
			c-0.2-0.1-0.3-0.2-0.4-0.3c-0.1-0.1-0.1-0.3-0.1-0.4c0-0.3,0.2-0.6,0.5-0.8c0.3-0.2,0.8-0.3,1.5-0.3c0.7,0,1.1,0.1,1.5,0.3
			C118.8,169.7,119,169.9,119,170.2z M115.1,165.3h1.8v0.4h-1.8V165.3z M118.4,170.3c0-0.2-0.1-0.3-0.3-0.4c-0.2-0.1-0.6-0.2-1-0.2
			c-0.4,0-0.8,0.1-1,0.2c-0.2,0.1-0.3,0.3-0.3,0.4c0,0.2,0.1,0.3,0.3,0.4s0.6,0.2,1,0.2s0.8-0.1,1-0.2
			C118.3,170.6,118.4,170.4,118.4,170.3z M119.9,167.3h-1v1.7h-0.6v-3.7h0.6v1.5h1V167.3z"/>
		<path class="st16" d="M120.2,169.5h1.2c0.2,0,0.4,0,0.7,0c0.3,0,0.5,0,0.8-0.1s0.6-0.1,0.8-0.1c0.3,0,0.5-0.1,0.7-0.1v0.4
			c-0.2,0.1-0.4,0.1-0.7,0.1c-0.3,0-0.5,0.1-0.8,0.1c-0.3,0-0.5,0-0.8,0.1c-0.3,0-0.5,0-0.7,0h-1.2L120.2,169.5L120.2,169.5
			L120.2,169.5z M123.7,167.2c0,0.2-0.1,0.4-0.1,0.6c-0.1,0.2-0.2,0.3-0.3,0.5c-0.1,0.1-0.3,0.2-0.5,0.3c-0.2,0.1-0.4,0.1-0.6,0.1
			s-0.4-0.1-0.6-0.1c-0.2-0.1-0.3-0.2-0.5-0.3c-0.1-0.1-0.2-0.3-0.3-0.5c-0.1-0.2-0.1-0.4-0.1-0.6s0.1-0.4,0.1-0.6
			c0.1-0.2,0.2-0.3,0.3-0.5c0.1-0.1,0.3-0.2,0.5-0.3c0.2-0.1,0.4-0.1,0.6-0.1s0.4,0.1,0.6,0.1c0.2,0.1,0.3,0.2,0.5,0.3
			c0.1,0.1,0.2,0.3,0.3,0.5C123.6,166.7,123.7,167,123.7,167.2z M123.1,167.2c0-0.3-0.1-0.6-0.3-0.7c-0.2-0.2-0.4-0.3-0.7-0.3
			c-0.3,0-0.6,0.1-0.7,0.3c-0.2,0.2-0.3,0.4-0.3,0.7c0,0.3,0.1,0.6,0.3,0.7c0.2,0.2,0.4,0.3,0.7,0.3c0.3,0,0.6-0.1,0.7-0.3
			C123,167.8,123.1,167.5,123.1,167.2z M125.3,171.3h-0.6v-6h0.6V171.3z"/>
		<path class="st16" d="M128.5,167.1c0.1,0.1,0.2,0.2,0.3,0.3c0.1,0.1,0.2,0.2,0.3,0.3c0.1,0.1,0.2,0.2,0.4,0.3
			c0.1,0.1,0.2,0.2,0.3,0.2l-0.3,0.4c-0.2-0.1-0.4-0.3-0.7-0.5c-0.3-0.2-0.4-0.4-0.6-0.6c-0.2,0.2-0.3,0.3-0.4,0.4
			c-0.2,0.1-0.3,0.2-0.5,0.3c-0.2,0.1-0.3,0.2-0.5,0.3c-0.2,0.1-0.3,0.2-0.4,0.2l-0.4-0.4c0.3-0.1,0.6-0.2,0.8-0.4
			c0.2-0.2,0.5-0.3,0.7-0.6c0.2-0.2,0.4-0.4,0.6-0.7c0.2-0.2,0.3-0.4,0.3-0.7c-0.3,0-0.5,0-0.7,0c-0.2,0-0.4,0-0.7,0h-0.6v-0.6h1.1
			c0.3,0,0.6,0,0.8,0s0.6,0,0.9,0c0,0.3-0.1,0.6-0.2,0.8C128.9,166.6,128.7,166.9,128.5,167.1z M130.4,171.3v-1.7h-3.3v-0.5h3.9v2.1
			L130.4,171.3L130.4,171.3z M129.4,167.3v-0.5h1v-1.5h0.6v3.5h-0.6v-1.6L129.4,167.3L129.4,167.3z"/>
		<path class="st16" d="M132.1,167.1c0-0.2,0.1-0.4,0.1-0.6c0.1-0.2,0.2-0.3,0.3-0.5c0.2-0.1,0.3-0.2,0.5-0.3
			c0.2-0.1,0.4-0.1,0.6-0.1s0.4,0.1,0.6,0.1c0.2,0.1,0.3,0.2,0.5,0.3c0.2,0.1,0.2,0.3,0.3,0.5c0.1,0.2,0.1,0.4,0.1,0.6
			c0,0.2-0.1,0.4-0.1,0.6c-0.1,0.2-0.2,0.3-0.3,0.5c-0.2,0.1-0.3,0.2-0.5,0.3c-0.2,0.1-0.4,0.1-0.6,0.1s-0.4-0.1-0.6-0.1
			c-0.2-0.1-0.3-0.2-0.5-0.3c-0.2-0.1-0.2-0.3-0.3-0.5C132.1,167.5,132.1,167.3,132.1,167.1z M132.6,167.1c0,0.2,0,0.3,0.1,0.4
			c0.1,0.1,0.1,0.2,0.2,0.3s0.2,0.2,0.3,0.2c0.1,0.1,0.2,0.1,0.4,0.1s0.3,0,0.4-0.1c0.1-0.1,0.2-0.1,0.3-0.2
			c0.1-0.1,0.2-0.2,0.2-0.3c0.1-0.1,0.1-0.3,0.1-0.4c0-0.2,0-0.3-0.1-0.4c-0.1-0.1-0.1-0.2-0.2-0.3c-0.1-0.1-0.2-0.2-0.3-0.2
			c-0.1-0.1-0.2-0.1-0.4-0.1s-0.3,0-0.4,0.1c-0.1,0.1-0.2,0.1-0.3,0.2c-0.1,0.1-0.2,0.2-0.2,0.3
			C132.7,166.8,132.6,166.9,132.6,167.1z M137,171.2h-3.9v-1.8h0.6v1.4h3.3L137,171.2L137,171.2L137,171.2z M136.8,169.7h-0.6v-4.4
			h0.6V169.7z"/>
		<path class="st16" d="M120.3,177.9l-0.4-0.3c0.3-0.2,0.5-0.4,0.7-0.7c0.2-0.2,0.4-0.6,0.6-0.8c0.1-0.3,0.3-0.7,0.3-1.1
			c0.1-0.4,0.1-0.8,0.1-1.3h0.6c0,0.3,0,0.6,0,0.8c0,0.3-0.1,0.5-0.1,0.7c0.2,0.4,0.4,0.8,0.7,1.2c0.3,0.4,0.6,0.7,1,0.9l-0.4,0.4
			c-0.3-0.2-0.6-0.5-0.9-0.8c-0.3-0.3-0.5-0.7-0.7-1.1c-0.2,0.4-0.4,0.8-0.7,1.2C120.9,177.4,120.6,177.7,120.3,177.9z M125.8,176.1
			h-1.1v3.1h-0.6v-6h0.6v2.4h1L125.8,176.1L125.8,176.1L125.8,176.1z"/>
		<path class="st16" d="M126.8,176h0.7c0.5,0,0.9,0,1.3-0.1c0.4-0.1,0.7-0.1,1-0.2v0.4c-0.3,0.1-0.7,0.2-1.1,0.2
			c-0.4,0-0.8,0.1-1.3,0.1h-1.2v-1.8h2.1v-0.8h-2.1v-0.4h2.6v1.7h-2.1L126.8,176L126.8,176z M130.7,179.1H127V177h3.7V179.1z
			 M130.1,177.5h-2.6v1.1h2.6V177.5z M131.6,175.1h-1v1.6h-0.6v-3.5h0.6v1.3h1V175.1z"/>
	</g>
	<g>
		<path class="st16" d="M162,167.9v2.1h2.2v0.5h-5.6v-0.5h1.5v-2.1h0.6v2.1h0.8v-2.1H162z M163,169.1h-0.6c0.1-0.4,0.2-0.9,0.3-1.4
			c0.1-0.5,0.1-1,0.1-1.5h-3.4v-0.5h3.9c0,0.3,0,0.6-0.1,0.8c0,0.3-0.1,0.6-0.1,0.9c-0.1,0.3-0.1,0.6-0.1,0.8
			C163.1,168.6,163,168.9,163,169.1z"/>
		<path class="st16" d="M164.6,166.9c0-0.2,0.1-0.4,0.1-0.6c0.1-0.2,0.2-0.3,0.3-0.4c0.2-0.1,0.3-0.2,0.5-0.3
			c0.2-0.1,0.4-0.1,0.6-0.1c0.2,0,0.4,0.1,0.6,0.1c0.2,0.1,0.3,0.2,0.5,0.3c0.1,0.1,0.2,0.3,0.3,0.4c0.1,0.2,0.1,0.4,0.1,0.6
			c0,0.2-0.1,0.4-0.1,0.6c-0.1,0.2-0.2,0.3-0.3,0.4c-0.1,0.1-0.3,0.2-0.5,0.3c-0.2,0.1-0.4,0.1-0.6,0.1c-0.2,0-0.4-0.1-0.6-0.1
			c-0.2-0.1-0.3-0.2-0.5-0.3c-0.1-0.1-0.2-0.3-0.3-0.4C164.6,167.4,164.6,167.1,164.6,166.9z M165.1,166.9c0,0.2,0,0.3,0.1,0.4
			c0.1,0.1,0.1,0.2,0.2,0.3c0.1,0.1,0.2,0.2,0.3,0.2c0.1,0.1,0.2,0.1,0.4,0.1c0.2,0,0.3,0,0.4-0.1c0.1-0.1,0.2-0.1,0.3-0.2
			c0.1-0.1,0.2-0.2,0.2-0.3c0.1-0.1,0.1-0.3,0.1-0.4c0-0.2,0-0.3-0.1-0.4c-0.1-0.1-0.1-0.2-0.2-0.3c-0.1-0.1-0.2-0.2-0.3-0.2
			c-0.1-0.1-0.2-0.1-0.4-0.1c-0.2,0-0.3,0-0.4,0.1s-0.2,0.1-0.3,0.2c-0.1,0.1-0.2,0.2-0.2,0.3C165.2,166.6,165.1,166.8,165.1,166.9z
			 M169.3,170.1c0,0.2-0.1,0.3-0.1,0.5c-0.1,0.2-0.2,0.3-0.4,0.4c-0.2,0.1-0.4,0.2-0.6,0.3c-0.2,0.1-0.5,0.1-0.8,0.1
			c-0.3,0-0.6-0.1-0.8-0.1c-0.2-0.1-0.4-0.2-0.6-0.3c-0.2-0.1-0.3-0.2-0.4-0.4c-0.1-0.2-0.1-0.3-0.1-0.5c0-0.2,0.1-0.3,0.1-0.5
			c0.1-0.2,0.2-0.3,0.4-0.4c0.2-0.1,0.4-0.2,0.6-0.3c0.2-0.1,0.5-0.1,0.8-0.1c0.3,0,0.6,0.1,0.8,0.1c0.2,0.1,0.4,0.2,0.6,0.3
			c0.2,0.1,0.3,0.2,0.4,0.4C169.2,169.8,169.3,169.9,169.3,170.1z M168.7,170.1c0-0.1,0-0.2-0.1-0.3c-0.1-0.1-0.1-0.2-0.2-0.2
			c-0.1-0.1-0.3-0.1-0.4-0.2c-0.2-0.1-0.4-0.1-0.6-0.1c-0.2,0-0.4,0-0.6,0.1c-0.2,0.1-0.3,0.1-0.4,0.2c-0.1,0.1-0.2,0.2-0.2,0.2
			s-0.1,0.2-0.1,0.3c0,0.1,0,0.2,0.1,0.3c0.1,0.1,0.1,0.2,0.2,0.2c0.1,0.1,0.3,0.1,0.4,0.2c0.2,0.1,0.4,0.1,0.6,0.1
			c0.2,0,0.4,0,0.6-0.1c0.2-0.1,0.3-0.1,0.4-0.2c0.1-0.1,0.2-0.2,0.2-0.2C168.7,170.3,168.7,170.2,168.7,170.1z M169.2,166h0.9v0.5
			h-1v0.8h1v0.5h-0.9v0.9h-0.6v-3.5h0.6V166z"/>
		<path class="st16" d="M172.2,165.4c0.2,0,0.4,0.1,0.6,0.1c0.2,0.1,0.3,0.2,0.5,0.3c0.1,0.1,0.2,0.3,0.3,0.4
			c0.1,0.2,0.1,0.4,0.1,0.6c0,0.2-0.1,0.4-0.1,0.6c-0.1,0.2-0.2,0.3-0.3,0.4c-0.1,0.1-0.3,0.2-0.5,0.3c-0.2,0.1-0.4,0.1-0.6,0.1
			c-0.2,0-0.4-0.1-0.6-0.1c-0.2-0.1-0.3-0.2-0.5-0.3c-0.1-0.1-0.2-0.3-0.3-0.4c-0.1-0.2-0.1-0.4-0.1-0.6c0-0.2,0.1-0.4,0.1-0.6
			c0.1-0.2,0.2-0.3,0.3-0.4c0.1-0.1,0.3-0.2,0.5-0.3C171.7,165.5,171.9,165.4,172.2,165.4z M174.7,169.5c0.1,0.3,0.2,0.5,0.4,0.7
			c0.2,0.2,0.5,0.4,0.8,0.6l-0.3,0.4c-0.2-0.1-0.4-0.3-0.7-0.4c-0.2-0.2-0.3-0.4-0.4-0.6c-0.2,0.4-0.6,0.8-1,1.1
			c-0.2-0.2-0.3-0.3-0.5-0.5c-0.2-0.2-0.3-0.4-0.4-0.6c-0.1,0.2-0.3,0.4-0.5,0.6c-0.2,0.2-0.4,0.3-0.7,0.5l-0.4-0.4
			c0.2-0.1,0.4-0.2,0.6-0.3c0.2-0.1,0.3-0.3,0.4-0.4c0.1-0.2,0.2-0.3,0.3-0.5c0.1-0.2,0.1-0.4,0.1-0.6h0.6c0,0.1,0,0.2,0,0.3
			c0,0.1,0,0.2-0.1,0.3c0.1,0.3,0.2,0.4,0.3,0.6c0.1,0.2,0.3,0.3,0.4,0.4c0.1-0.1,0.2-0.2,0.3-0.3c0.1-0.1,0.2-0.2,0.2-0.4
			c0.1-0.1,0.1-0.3,0.1-0.4c0.1-0.2,0.1-0.3,0-0.6h0.6c0,0.1,0,0.2,0,0.3C174.7,169.2,174.7,169.4,174.7,169.5z M172.2,165.9
			c-0.3,0-0.5,0.1-0.7,0.3c-0.2,0.2-0.3,0.4-0.3,0.7c0,0.3,0.1,0.6,0.3,0.7c0.2,0.2,0.4,0.3,0.7,0.3s0.5-0.1,0.7-0.3
			c0.2-0.2,0.3-0.4,0.3-0.7c0-0.3-0.1-0.6-0.3-0.7C172.7,166,172.4,165.9,172.2,165.9z M175.3,168.7h-0.6v-3.4h0.6V168.7z"/>
		<path class="st16" d="M181.9,168.3v0.5h-5.7v-0.5H181.9z M181.1,171.2h-4v-1.8h0.6v1.3h3.4L181.1,171.2L181.1,171.2L181.1,171.2z
			 M177.1,165.3h0.6v1.6h3.4v0.5h-3.9L177.1,165.3L177.1,165.3z"/>
		<path class="st16" d="M164.7,177.9l-0.4-0.3c0.3-0.2,0.5-0.4,0.7-0.7c0.2-0.2,0.4-0.6,0.6-0.8c0.2-0.3,0.3-0.7,0.3-1.1
			c0.1-0.4,0.1-0.8,0.1-1.3h0.6c0,0.3,0,0.6,0,0.8c0,0.3-0.1,0.5-0.1,0.7c0.2,0.4,0.4,0.8,0.7,1.2c0.3,0.4,0.6,0.7,1,0.9l-0.4,0.4
			c-0.3-0.2-0.6-0.5-0.9-0.8c-0.3-0.3-0.5-0.7-0.7-1.1c-0.2,0.4-0.4,0.8-0.7,1.2C165.2,177.4,165,177.7,164.7,177.9z M170.2,176.1
			h-1.1v3.1h-0.6v-6h0.6v2.3h1L170.2,176.1L170.2,176.1L170.2,176.1z"/>
		<path class="st16" d="M171.2,176h0.7c0.5,0,1,0,1.3-0.1c0.4-0.1,0.7-0.1,1-0.2v0.4c-0.3,0.1-0.7,0.2-1.1,0.2
			c-0.4,0.1-0.8,0.1-1.3,0.1h-1.2v-1.8h2.1v-0.7h-2.1v-0.4h2.6v1.7h-2.1L171.2,176L171.2,176z M175.1,179.1h-3.7V177h3.7V179.1z
			 M174.5,177.5h-2.6v1.1h2.6V177.5z M176,175h-1v1.6h-0.6v-3.5h0.6v1.3h1V175z"/>
	</g>
	<g>
		<path class="st16" d="M116.8,123.6c0.2,0.3,0.4,0.6,0.7,0.8c0.2,0.3,0.5,0.5,0.8,0.7l-0.4,0.4c-0.3-0.2-0.5-0.4-0.7-0.7
			c-0.2-0.2-0.4-0.5-0.6-0.8c-0.2,0.3-0.5,0.7-0.8,1c-0.3,0.3-0.6,0.6-1,0.7l-0.4-0.4c0.3-0.2,0.7-0.4,1-0.7s0.6-0.6,0.7-0.9
			c0.2-0.3,0.4-0.6,0.5-0.9s0.2-0.6,0.2-0.9c-0.2,0-0.5,0-0.7,0c-0.2,0-0.5,0-0.7,0h-0.6v-0.5h1c0.3,0,0.6,0,0.8,0
			c0.3,0,0.6,0,0.9,0c0,0.3-0.1,0.7-0.2,1.1C117.2,122.8,117,123.3,116.8,123.6z M120.2,123.9h-1v3.2h-0.6v-6h0.6v2.3h1V123.9z"/>
		<path class="st16" d="M120.4,124.4h5.6v0.5h-2.5v2.1h-0.6v-2.1h-2.6L120.4,124.4L120.4,124.4z M124.8,121.5
			c-0.1,0.2-0.3,0.4-0.4,0.7c-0.2,0.2-0.4,0.4-0.7,0.6c0.3,0.1,0.6,0.3,0.9,0.4c0.3,0.1,0.7,0.2,1,0.3l-0.3,0.5
			c-0.4-0.1-0.7-0.2-1.1-0.3c-0.3-0.1-0.7-0.3-1-0.5c-0.3,0.2-0.7,0.3-1.1,0.5c-0.4,0.2-0.8,0.3-1.2,0.4l-0.3-0.4
			c0.4-0.1,0.8-0.2,1.2-0.3c0.3-0.1,0.7-0.3,0.9-0.4c0.3-0.2,0.5-0.3,0.7-0.4c0.2-0.2,0.3-0.3,0.4-0.4c-0.2,0-0.5,0-0.7,0
			c-0.2,0-0.5,0-0.7,0h-1.2v-0.5h1.7c0.3,0,0.6,0,0.8,0c0.3,0,0.6,0,0.9,0C124.7,121.4,124.7,121.4,124.8,121.5
			C124.8,121.5,124.8,121.4,124.8,121.5z"/>
		<path class="st16" d="M128.8,122.9c0.1,0.1,0.2,0.2,0.3,0.3c0.1,0.1,0.2,0.2,0.3,0.3c0.1,0.1,0.2,0.2,0.4,0.3
			c0.1,0.1,0.2,0.2,0.3,0.2l-0.3,0.4c-0.2-0.1-0.4-0.3-0.7-0.5c-0.2-0.2-0.4-0.4-0.6-0.6c-0.2,0.2-0.3,0.3-0.4,0.4
			c-0.2,0.1-0.3,0.2-0.5,0.3c-0.2,0.1-0.3,0.2-0.5,0.3c-0.2,0.1-0.3,0.2-0.4,0.2l-0.4-0.4c0.3-0.1,0.6-0.2,0.8-0.4
			c0.2-0.2,0.5-0.3,0.7-0.6c0.2-0.2,0.4-0.4,0.6-0.7c0.2-0.2,0.3-0.4,0.3-0.7c-0.3,0-0.5,0-0.7,0s-0.4,0-0.7,0h-0.6v-0.5h1.1
			c0.3,0,0.6,0,0.8,0s0.6,0,0.9,0c0,0.3-0.1,0.6-0.2,0.8C129,122.5,129,122.7,128.8,122.9z M130.6,127.1v-1.7h-3.3v-0.5h3.9v2.1
			L130.6,127.1L130.6,127.1L130.6,127.1z M129.6,123v-0.5h1v-1.5h0.6v3.5h-0.6V123L129.6,123L129.6,123z"/>
		<path class="st16" d="M132.3,122.9c0-0.2,0.1-0.4,0.1-0.6c0.1-0.2,0.2-0.3,0.3-0.5c0.2-0.1,0.3-0.2,0.5-0.3
			c0.2-0.1,0.4-0.1,0.6-0.1s0.4,0.1,0.6,0.1c0.2,0.1,0.3,0.2,0.5,0.3c0.2,0.1,0.2,0.3,0.3,0.5c0.1,0.2,0.1,0.4,0.1,0.6
			c0,0.2-0.1,0.4-0.1,0.6c-0.1,0.2-0.2,0.3-0.3,0.5c-0.2,0.1-0.3,0.2-0.5,0.3c-0.2,0.1-0.4,0.1-0.6,0.1s-0.4-0.1-0.6-0.1
			c-0.2-0.1-0.3-0.2-0.5-0.3c-0.2-0.1-0.2-0.3-0.3-0.5C132.3,123.2,132.3,123.1,132.3,122.9z M132.9,122.9c0,0.2,0,0.3,0.1,0.4
			c0.1,0.1,0.1,0.2,0.2,0.3c0.1,0.1,0.2,0.2,0.3,0.2c0.1,0.1,0.2,0.1,0.4,0.1s0.3,0,0.4-0.1c0.1-0.1,0.2-0.1,0.3-0.2
			c0.1-0.1,0.2-0.2,0.2-0.3c0.1-0.1,0.1-0.3,0.1-0.4c0-0.2,0-0.3-0.1-0.4c-0.1-0.1-0.1-0.2-0.2-0.3c-0.1-0.1-0.2-0.2-0.3-0.2
			c-0.1-0.1-0.2-0.1-0.4-0.1c-0.2,0-0.3,0-0.4,0.1c-0.1,0.1-0.2,0.1-0.3,0.2c-0.1,0.1-0.2,0.2-0.2,0.3
			C132.9,122.5,132.9,122.7,132.9,122.9z M137.2,126.9h-3.9v-1.8h0.6v1.4h3.3L137.2,126.9L137.2,126.9L137.2,126.9z M137.1,125.4
			h-0.6v-4.4h0.6V125.4z"/>
		<path class="st16" d="M120.5,133.6l-0.4-0.3c0.3-0.2,0.5-0.4,0.7-0.7c0.2-0.2,0.4-0.6,0.6-0.8c0.2-0.3,0.3-0.7,0.3-1.1
			c0.1-0.4,0.1-0.8,0.1-1.3h0.6c0,0.3,0,0.6,0,0.8s-0.1,0.5-0.1,0.7c0.2,0.4,0.4,0.8,0.7,1.2c0.3,0.4,0.6,0.7,1,0.9l-0.4,0.4
			c-0.3-0.2-0.6-0.5-0.9-0.8c-0.3-0.3-0.5-0.7-0.7-1.1c-0.2,0.4-0.4,0.8-0.7,1.2C121.1,133.1,120.9,133.4,120.5,133.6z M126.1,131.9
			h-1v3.1h-0.6v-6h0.6v2.3h1V131.9z"/>
		<path class="st16" d="M127.1,131.7h0.7c0.5,0,1,0,1.3-0.1c0.4-0.1,0.7-0.1,1-0.2v0.4c-0.3,0.1-0.7,0.2-1.1,0.2
			c-0.4,0.1-0.8,0.1-1.3,0.1h-1.2v-1.8h2.1v-0.8h-2.1v-0.4h2.6v1.7h-2.1L127.1,131.7L127.1,131.7L127.1,131.7z M130.9,134.9h-3.7
			v-2.1h3.7V134.9z M130.4,133.3h-2.6v1.1h2.6V133.3z M131.9,130.8h-1v1.6h-0.6v-3.5h0.6v1.3h1V130.8z"/>
	</g>
</g>
</svg>