<?xml version="1.0" encoding="utf-8"?>
<!-- Generator: Adobe Illustrator 24.1.1, SVG Export Plug-In . SVG Version: 6.00 Build 0)  -->
<svg version="1.1" id="레이어_1" xmlns="http://www.w3.org/2000/svg" xmlns:xlink="http://www.w3.org/1999/xlink" x="0px"
	 y="0px" viewBox="0 0 750 587.3" style="enable-background:new 0 0 750 587.3;" xml:space="preserve">
<style type="text/css">
	.st0{opacity:0.6;}
	.st1{clip-path:url(#SVGID_2_);}
	.st2{fill:#78001B;}
	.st3{fill:#F5340B;}
	.st4{fill:#1DCDC3;}
	.st5{fill:#0C2E3A;}
	.st6{fill:#018790;}
	.st7{fill:#00A6A6;}
	.st8{fill:none;}
	.st9{fill:#E3651D;}
	.st10{fill:#FFA73B;}
	.st11{fill:#FFD497;}
	.st12{fill:#FF823B;}
	.st13{fill:#FF7C4E;}
	.st14{fill:#F54132;}
</style>
<g id="BACKGROUND_2" class="st0">
	<g>
		<defs>
			<rect id="SVGID_1_" y="-49.7" width="750" height="686.7"/>
		</defs>
		<clipPath id="SVGID_2_">
			<use xlink:href="#SVGID_1_"  style="overflow:visible;"/>
		</clipPath>
		<g class="st1">
			<polygon class="st2" points="775.3,385.8 775.3,443.1 725.8,414.5 725.8,414.5 			"/>
			<polygon class="st2" points="775.3,443.1 775.3,443.2 725.8,471.8 725.8,471.7 725.8,414.5 			"/>
			<polygon class="st2" points="725.8,414.5 725.8,471.7 725.7,471.8 676.2,443.1 			"/>
			<polygon class="st3" points="725.8,414.5 725.8,414.5 676.2,443.1 676.2,443.1 676.2,385.8 			"/>
			<polygon class="st4" points="725.8,299.9 725.8,357.2 676.2,328.6 676.2,328.6 			"/>
			<polygon class="st5" points="725.8,357.2 725.8,357.3 676.2,385.9 676.2,385.8 676.2,328.6 			"/>
			<polygon class="st5" points="725.8,357.3 725.8,414.5 676.2,385.9 			"/>
			<polygon class="st6" points="775.3,385.9 725.8,414.5 725.8,357.3 725.8,357.3 			"/>
			<polygon class="st6" points="775.4,328.6 775.4,385.8 775.3,385.9 725.8,357.3 			"/>
			<polygon class="st6" points="757.8,210.9 757.8,227.6 757.8,227.6 743.4,219.3 			"/>
			<polygon class="st4" points="775.4,271.2 775.4,271.3 725.8,299.9 725.8,299.9 725.8,242.6 			"/>
			<polygon class="st2" points="725.8,471.7 725.8,529 676.2,500.4 676.2,500.4 			"/>
			<polygon class="st2" points="725.8,529 725.8,529.1 676.2,557.7 676.2,557.6 676.2,500.4 			"/>
			<polygon class="st7" points="725.8,529.1 725.8,586.3 676.2,557.7 			"/>
			<polygon class="st7" points="775.3,557.7 725.8,586.3 725.8,529.1 725.8,529 			"/>
			<polygon class="st5" points="775.4,500.4 775.4,557.6 775.3,557.7 725.8,529 			"/>
			<polygon class="st5" points="775.4,500.4 775.4,500.4 725.8,529 725.8,529 725.8,471.7 			"/>
			<polygon class="st3" points="775.3,385.8 775.3,443.1 725.8,414.5 725.8,414.5 			"/>
			<polygon class="st3" points="775.3,443.1 775.3,443.2 725.8,471.8 725.8,471.7 725.8,414.5 			"/>
			<polygon class="st7" points="775.3,443.2 775.3,500.4 725.8,471.8 			"/>
			<polygon class="st3" points="725.7,471.8 676.2,500.4 676.2,443.2 676.2,443.1 			"/>
			<polygon class="st3" points="725.8,414.5 725.8,471.7 725.7,471.8 676.2,443.1 			"/>
			<polygon class="st8" points="725.8,414.5 725.8,414.5 676.2,443.1 676.2,443.1 676.2,385.8 			"/>
			<polygon class="st3" points="676.2,385.8 676.2,443.1 626.6,414.5 626.6,414.5 			"/>
			<polygon class="st9" points="676.2,443.1 676.2,443.2 626.6,471.8 626.6,471.7 626.6,414.5 			"/>
			<polygon class="st10" points="725.8,414.5 725.8,414.5 676.2,443.1 676.2,443.1 676.2,385.8 			"/>
			<polygon class="st11" points="626.6,299.9 626.6,357.2 577,328.6 577,328.6 			"/>
			<polygon class="st12" points="676.1,385.9 626.6,414.5 626.6,357.3 626.6,357.3 			"/>
			<polygon class="st12" points="592.8,385.9 569.6,399.2 569.6,372.5 569.7,372.5 			"/>
			<polygon class="st11" points="592.4,304.4 576.5,313.5 576.5,295.2 576.6,295.2 			"/>
			<polygon class="st12" points="676.2,328.6 676.2,385.8 676.1,385.9 626.6,357.3 			"/>
			<polygon class="st10" points="676.2,328.6 676.2,328.6 626.6,357.3 626.6,357.2 626.6,299.9 			"/>
			<polygon class="st13" points="626.6,471.7 626.6,529 577,500.4 577,500.4 			"/>
			<polygon class="st14" points="676.1,557.7 626.6,586.3 626.6,529.1 626.6,529 			"/>
			<polygon class="st14" points="577,557.7 527.4,586.3 527.4,529.1 527.5,529 			"/>
			<polygon class="st14" points="676.2,500.4 676.2,557.6 676.1,557.7 626.6,529 			"/>
			<polygon class="st14" points="676.2,500.4 676.2,500.4 626.6,529 626.6,529 626.6,471.7 			"/>
			<polygon class="st10" points="676.2,385.8 676.2,443.1 626.6,414.5 626.6,414.5 			"/>
			<polygon class="st10" points="676.2,443.1 676.2,443.2 626.6,471.8 626.6,471.7 626.6,414.5 			"/>
			<polygon class="st9" points="676.2,443.2 676.2,500.4 626.6,471.8 			"/>
			<polygon class="st2" points="725.7,471.8 676.2,500.4 676.2,443.2 676.2,443.1 			"/>
			<polygon class="st10" points="725.8,414.5 725.8,414.5 676.2,443.1 676.2,443.1 676.2,385.8 			"/>
			<polygon class="st2" points="-25.4,200.4 -25.4,143.1 24.2,171.8 24.2,171.8 			"/>
			<polygon class="st2" points="-25.4,143.1 -25.4,143.1 24.2,114.5 24.2,114.5 24.2,171.8 			"/>
			<polygon class="st2" points="24.2,171.7 24.2,114.5 24.3,114.5 73.8,143.1 			"/>
			<polygon class="st3" points="24.2,171.8 24.2,171.7 73.8,143.1 73.8,143.1 73.8,200.4 			"/>
			<polygon class="st4" points="24.2,286.3 24.2,229 73.8,257.7 73.8,257.7 			"/>
			<polygon class="st5" points="24.2,229 24.2,229 73.8,200.4 73.8,200.4 73.8,257.7 			"/>
			<polygon class="st5" points="40.7,291 40.7,291 57.4,281.4 57.4,281.4 57.4,300.7 			"/>
			<polygon class="st5" points="24.2,229 24.2,171.8 73.8,200.4 			"/>
			<polygon class="st6" points="-25.3,200.4 24.2,171.8 24.2,229 24.2,229 			"/>
			<polygon class="st6" points="-25.4,257.6 -25.4,200.4 -25.3,200.4 24.2,229 			"/>
			<polygon class="st4" points="-25.4,315 -25.4,314.9 24.2,286.3 24.2,286.4 24.2,343.6 			"/>
			<polygon class="st2" points="24.2,114.5 24.2,57.2 73.8,85.9 73.8,85.9 			"/>
			<polygon class="st2" points="24.2,57.2 24.2,57.2 73.8,28.6 73.8,28.6 73.8,85.9 			"/>
			<polygon class="st7" points="24.2,57.2 24.2,0 73.8,28.6 			"/>
			<polygon class="st7" points="-25.3,28.6 24.2,0 24.2,57.2 24.2,57.2 			"/>
			<polygon class="st5" points="-25.4,85.8 -25.4,28.6 -25.3,28.6 24.2,57.2 			"/>
			<polygon class="st5" points="-25.4,85.9 -25.4,85.8 24.2,57.2 24.2,57.2 24.2,114.5 			"/>
			<polygon class="st3" points="-25.4,200.4 -25.4,143.1 24.2,171.8 24.2,171.8 			"/>
			<polygon class="st3" points="-25.4,143.1 -25.4,143.1 24.2,114.5 24.2,114.5 24.2,171.8 			"/>
			<polygon class="st7" points="-25.4,143.1 -25.4,85.9 24.2,114.5 			"/>
			<polygon class="st3" points="24.3,114.5 73.8,85.9 73.8,143.1 73.8,143.1 			"/>
			<polygon class="st3" points="24.2,171.7 24.2,114.5 24.3,114.5 73.8,143.1 			"/>
			<polygon class="st8" points="24.2,171.8 24.2,171.7 73.8,143.1 73.8,143.1 73.8,200.4 			"/>
			<polygon class="st3" points="73.8,200.4 73.8,143.1 123.4,171.8 123.4,171.8 			"/>
			<polygon class="st9" points="73.8,143.1 73.8,143.1 123.4,114.5 123.4,114.5 123.4,171.8 			"/>
			<polygon class="st10" points="24.2,171.8 24.2,171.7 73.8,143.1 73.8,143.1 73.8,200.4 			"/>
			<polygon class="st10" points="123.4,171.7 123.4,114.5 123.5,114.5 173,143.1 			"/>
			<polygon class="st11" points="187.6,154.7 187.6,131.5 187.7,131.5 207.8,143.1 			"/>
			<polygon class="st11" points="123.4,286.3 123.4,229 173,257.7 173,257.7 			"/>
			<polygon class="st12" points="73.9,200.4 123.4,171.8 123.4,229 123.4,229 			"/>
			<polygon class="st12" points="73.8,257.6 73.8,200.4 73.9,200.4 123.4,229 			"/>
			<polygon class="st10" points="73.8,257.7 73.8,257.6 123.4,229 123.4,229 123.4,286.3 			"/>
			<polygon class="st13" points="123.4,114.5 123.4,57.2 173,85.9 173,85.9 			"/>
			<polygon class="st14" points="73.9,28.6 123.4,0 123.4,57.2 123.4,57.2 			"/>
			<polygon class="st14" points="73.8,85.8 73.8,28.6 73.9,28.6 123.4,57.2 			"/>
			<polygon class="st14" points="73.8,85.9 73.8,85.8 123.4,57.2 123.4,57.2 123.4,114.5 			"/>
			<polygon class="st10" points="73.8,200.4 73.8,143.1 123.4,171.8 123.4,171.8 			"/>
			<polygon class="st10" points="73.8,143.1 73.8,143.1 123.4,114.5 123.4,114.5 123.4,171.8 			"/>
			<polygon class="st9" points="73.8,143.1 73.8,85.9 123.4,114.5 			"/>
			<polygon class="st2" points="24.3,114.5 73.8,85.9 73.8,143.1 73.8,143.1 			"/>
			<polygon class="st10" points="24.2,171.8 24.2,171.7 73.8,143.1 73.8,143.1 73.8,200.4 			"/>
		</g>
	</g>
</g>
</svg>
