<?xml version="1.0" encoding="utf-8"?>
<!-- Generator: Adobe Illustrator 23.1.0, SVG Export Plug-In . SVG Version: 6.00 Build 0)  -->
<svg version="1.1" id="Layer_1" xmlns="http://www.w3.org/2000/svg" xmlns:xlink="http://www.w3.org/1999/xlink" x="0px" y="0px"
	 viewBox="0 0 339 285" style="enable-background:new 0 0 339 285;" xml:space="preserve">
<style type="text/css">
	.st0{fill:#A97B4F;}
</style>
<title>tree</title>
<path class="st0" d="M0,130.8c20.7,0,48.1,14,68.8,14.9c15.5,0.7,21.9,7,35.7,11.6c16.4,5.5,31.4,6.9,40.8,23.6
	c7.6,13.6,10.1,42.9,3.5,57.4c-3,6.5-9.3,15.9-15.7,19.5C120,265.3,74.2,285,74.2,285s83.8-6.3,97.6-7.3c36.9-2.5,55.8,7.3,86.2,7.3
	c0,0-38.4-22.1-49.1-30.4c-16.8-13-26.8-44.5-17.1-63.7c5.5-11.1,12-24.1,23.5-30.1c10.3-5.4,23.4-3.5,34.6-5.4
	c-6.1-2.8-13.7-3.2-20.2-3.6c21.7-20.6,82.7,2,109.3,4.8c-30-15-65.4-19.3-98.9-19.3c6.2-12.9,16.4-22.7,28-31.5
	c11.4-8.5,25.4-11,32.4-24.6c-22.1,6.4-43.3,18.9-58.4,36.3c-9.2,10.7-21.6,36-39.2,27.5c6-29.5,20-34.8,43.3-50.9
	C263,82.4,278,57.8,286,34.9c-17.9,23.4-41.3,65.7-73.2,69.8c2-26.5,23.6-53.5,20.1-72.4c-9.3,18-27.2,52.7-31.2,72.4
	c-2.8-3-9.1-39.6-14.3-55.4C181.1,30.5,170.5,13,155.6,0c30,30.9,36.2,79.3,32.7,118.5c-1.6,17.3-10.1,14.1-10.8,32.9
	c-15.1-21.6-18.6-23.8-12.6-50.9c-3.7,5.1-6.1,10.9-7.1,17c-15.5-5.4-20.5-24.8-39.3-23.5c18,11.3,36.4,36.4,32.7,58.5
	c-7.6-1.7-17-1.6-24-4.9c-9.8-4.5-17.4-12.4-26.5-18.1c-13.1-8.1-29.8-10.4-41.8-20c-10.5-8.4-15.8-21.3-24.3-31.4
	c6.3,13.4,12.7,32,18.3,36.5c4.5,3.6,27.1,19.5,40.7,24.3C69.6,145.2,24.4,118.2,0,130.8"/>
</svg>
