<svg height="512" viewBox="0 0 64 64" width="512" fill="white" xmlns="http://www.w3.org/2000/svg">
    <g id="Ebook-5" data-name="Ebook">
        <path
            d="m57 2h-50a5.006 5.006 0 0 0 -5 5v36a5.006 5.006 0 0 0 5 5h19.78l-1.6 8h-1.18a3 3 0 0 0 0 6h16a3 3 0 0 0 0-6h-1.18l-1.6-8h19.78a5.006 5.006 0 0 0 5-5v-36a5.006 5.006 0 0 0 -5-5zm-50 2h50a3 3 0 0 1 3 3v31h-56v-31a3 3 0 0 1 3-3zm34 55a1 1 0 0 1 -1 1h-16a1 1 0 0 1 0-2h16a1 1 0 0 1 1 1zm-4.22-3h-9.56l1.6-8h6.36zm20.22-10h-50a3 3 0 0 1 -3-3v-3h56v3a3 3 0 0 1 -3 3z" />
        <path d="m54 42h2v2h-2z" />
        <path
            d="m9 34h32a1 1 0 0 0 1-1v-22a1 1 0 0 0 -1-1h-3v-1a1 1 0 0 0 -1-1h-8a4.982 4.982 0 0 0 -4 2.031 4.982 4.982 0 0 0 -4-2.031h-8a1 1 0 0 0 -1 1v1h-3a1 1 0 0 0 -1 1v22a1 1 0 0 0 1 1zm20-24h7v18h-10v-15a3 3 0 0 1 3-3zm-15 0h7a3 3 0 0 1 3 3v15h-10zm-4 2h2v17a1 1 0 0 0 1 1h24a1 1 0 0 0 1-1v-17h2v20h-30z" />
        <path d="m16 16h6v2h-6z" />
        <path d="m16 12h6v2h-6z" />
        <path d="m16 20h6v2h-6z" />
        <path d="m16 24h6v2h-6z" />
        <path d="m28 16h6v2h-6z" />
        <path d="m28 12h6v2h-6z" />
        <path d="m28 20h6v2h-6z" />
        <path d="m28 24h6v2h-6z" />
        <path
            d="m46.741 33.966a1 1 0 0 0 1.093-.415l3.485-5.278a1 1 0 0 0 .132-.292l4.141-15.455a3 3 0 1 0 -5.8-1.553l-4.137 15.455a.982.982 0 0 0 -.032.319l.377 6.313a1 1 0 0 0 .741.906zm1.077-4.02-.118-1.934 1.184.317zm3.91-18.455a.991.991 0 0 1 .466-.608 1 1 0 0 1 .759-.1 1 1 0 0 1 .707 1.224l-3.882 14.493-1.932-.518z" />
    </g>
</svg>