<?xml version="1.0" encoding="utf-8"?>
<!-- Generator: Adobe Illustrator 24.1.1, SVG Export Plug-In . SVG Version: 6.00 Build 0)  -->
<svg version="1.1" id="Layer_1" xmlns="http://www.w3.org/2000/svg" xmlns:xlink="http://www.w3.org/1999/xlink" x="0px" y="0px"
	 viewBox="0 0 426.9 426.9" style="enable-background:new 0 0 426.9 426.9;" xml:space="preserve">
<style type="text/css">
	.st0{fill:none;}
	.st1{fill:#27A5DE;}
	.st2{fill:#CFD733;}
	.st3{fill:#DB1983;}
	.st4{fill:#5BBEBB;}
	.st5{fill:#602C87;}
	.st6{fill:#DF2827;}
	.st7{fill:#40AD4B;}
	.st8{fill:#E55B2D;}
	.st9{fill:none;stroke:#FFFFFF;stroke-width:5;stroke-miterlimit:10;}
	.st10{fill:url(#SVGID_1_);}
	.st11{fill:url(#SVGID_2_);}
	.st12{fill:url(#SVGID_3_);}
	.st13{fill:url(#SVGID_4_);}
	.st14{fill:url(#SVGID_5_);}
	.st15{fill:url(#SVGID_6_);}
	.st16{fill:url(#SVGID_7_);}
	.st17{fill:url(#SVGID_8_);}
	.st18{fill:url(#SVGID_9_);}
	.st19{fill:url(#SVGID_10_);}
	.st20{fill:url(#SVGID_11_);}
	.st21{fill:url(#SVGID_12_);}
	.st22{fill:url(#SVGID_13_);}
	.st23{fill:url(#SVGID_14_);}
	.st24{fill:url(#SVGID_15_);}
	.st25{fill:url(#SVGID_16_);}
	.st26{fill:url(#SVGID_17_);}
	.st27{fill:url(#SVGID_18_);}
	.st28{fill:url(#SVGID_19_);}
	.st29{fill:url(#SVGID_20_);}
	.st30{fill:url(#SVGID_21_);}
	.st32{fill:url(#SVGID_22_);}
	.st33{fill:url(#SVGID_23_);}
	.st34{fill:url(#SVGID_24_);}
	.st35{fill:url(#SVGID_25_);}
	.st36{fill:url(#SVGID_26_);}
	.st37{fill:url(#SVGID_27_);}
	.st38{fill:url(#SVGID_28_);}
	.st39{fill:url(#SVGID_29_);}
	.st40{fill:url(#SVGID_30_);}
	.st41{fill:url(#SVGID_31_);}
	.st42{fill:url(#SVGID_32_);}
	.st43{fill:url(#SVGID_33_);}
	.st44{fill:url(#SVGID_34_);}
	.st45{fill:url(#SVGID_35_);}
	.st46{fill:url(#SVGID_36_);}
	.st47{fill:url(#SVGID_37_);}
	.st48{fill:url(#SVGID_38_);}
	.st49{fill:url(#SVGID_39_);}
	.st50{fill:#434343;}
	.st31{fill:#FFFFFF;}
</style>
<g>
	<polygon class="st0" points="215,215.6 215,215.6 36.6,289.5 36.6,289.5 214.9,215.9 	"/>
	<polygon class="st1" points="215.3,214.9 288.9,37.1 141.4,37.1 214.8,215.1 	"/>
	<polygon class="st2" points="289.4,393.8 393.7,289.6 393.7,289.2 215.5,215.4 	"/>
	<polygon class="st3" points="215.5,215.4 215,215.6 214.9,215.9 215.4,215.7 141.4,394.1 289.1,394.1 289.4,393.8 215.5,215.4 	"/>
	<polygon class="st4" points="215,215.6 36.6,141.7 36.6,289.5 	"/>
	<polygon class="st4" points="215.5,215.4 215.2,215.2 214.8,215.1 215,215.6 215,215.6 	"/>
	<polygon class="st5" points="214.9,215.9 36.6,289.5 36.6,289.6 141.2,394.1 141.4,394.1 215.4,215.7 	"/>
	<polygon class="st6" points="393.2,141.2 289.1,37.1 288.9,37.1 215.3,214.9 	"/>
	<polygon class="st7" points="214.8,215.1 214.8,215.1 214.8,215.1 141.4,37.1 141.2,37.1 36.6,141.7 215,215.6 	"/>
	<polygon class="st8" points="214.8,215.1 214.8,215.1 214.8,215.1 215.2,215.2 215.5,215.4 215.5,215.4 393.7,289.2 393.7,141.7 
		393.2,141.2 215.3,214.9 	"/>
	<line class="st9" x1="216.2" y1="215.2" x2="394.7" y2="289.2"/>
	<line class="st9" x1="215.2" y1="214.8" x2="393.7" y2="140.9"/>
	<line class="st9" x1="214.7" y1="215.8" x2="289.3" y2="35.9"/>
	<line class="st9" x1="215.2" y1="214.8" x2="141.2" y2="36.3"/>
	<line class="st9" x1="215.2" y1="214.8" x2="36.7" y2="140.9"/>
	<line class="st9" x1="213.7" y1="215.4" x2="35.2" y2="289.4"/>
	<line class="st9" x1="214.7" y1="215.8" x2="140.8" y2="394.3"/>
	<line class="st9" x1="215.7" y1="216.3" x2="289.7" y2="394.8"/>
</g>
<g>
	
		<image style="overflow:visible;opacity:0.4;" width="114" height="94" xlink:href="AA558B61.png"  transform="matrix(1 0 0 1 71 131.9)">
	</image>
	<g>
		
			<radialGradient id="SVGID_1_" cx="32.0903" cy="213.0357" r="379.0495" gradientTransform="matrix(1 0 0 -1 0 428)" gradientUnits="userSpaceOnUse">
			<stop  offset="0" style="stop-color:#DEDEDE"/>
			<stop  offset="1" style="stop-color:#DEDEDE"/>
		</radialGradient>
		<path class="st10" d="M170.6,188.2l-70.7-51.4c-5.2,7.6-9.6,15.6-13.2,24.2c-6.7,15.9-10.4,32.7-10.9,50h87.4
			C163.8,202.7,166.5,194.9,170.6,188.2z"/>
	</g>
</g>
<g>
	
		<image style="overflow:visible;opacity:0.4;" width="109" height="116" xlink:href="AA558B63.png"  transform="matrix(1 0 0 1 231 244.9)">
	</image>
	<g>
		
			<radialGradient id="SVGID_2_" cx="32.0906" cy="213.0357" r="379.0502" gradientTransform="matrix(1 0 0 -1 0 428)" gradientUnits="userSpaceOnUse">
			<stop  offset="0" style="stop-color:#DEDEDE"/>
			<stop  offset="1" style="stop-color:#DEDEDE"/>
		</radialGradient>
		<path class="st11" d="M235.6,263.6l27,83.1c2.4-0.9,4.7-1.8,7.1-2.8c16.6-7,31.6-17.1,44.4-29.9c4.2-4.2,8-8.6,11.6-13.2
			L255,249.4C249.7,255.6,243.1,260.4,235.6,263.6z"/>
	</g>
</g>
<g>
	
		<image style="overflow:visible;opacity:0.4;" width="109" height="116" xlink:href="AA558B66.png"  transform="matrix(1 0 0 1 101 244.9)">
	</image>
	<g>
		
			<radialGradient id="SVGID_3_" cx="32.0903" cy="213.0357" r="379.0499" gradientTransform="matrix(1 0 0 -1 0 428)" gradientUnits="userSpaceOnUse">
			<stop  offset="0" style="stop-color:#DEDEDE"/>
			<stop  offset="1" style="stop-color:#DEDEDE"/>
		</radialGradient>
		<path class="st12" d="M175.7,249.5L105,300.9c3.6,4.6,7.4,9,11.6,13.2c12.8,12.8,27.8,22.9,44.4,29.9c2.3,1,4.7,1.9,7.1,2.8
			l27-83.1C187.5,260.4,180.9,255.6,175.7,249.5z"/>
	</g>
</g>
<g>
	
		<image style="overflow:visible;opacity:0.4;" width="97" height="107" xlink:href="AA558B67.png"  transform="matrix(1 0 0 1 172 261.9)">
	</image>
	<g>
		
			<radialGradient id="SVGID_4_" cx="32.0904" cy="213.036" r="379.0501" gradientTransform="matrix(1 0 0 -1 0 428)" gradientUnits="userSpaceOnUse">
			<stop  offset="0" style="stop-color:#DEDEDE"/>
			<stop  offset="1" style="stop-color:#DEDEDE"/>
		</radialGradient>
		<path class="st13" d="M215.3,267.7c-4.1,0-8.1-0.5-12-1.4l-27,83.1c12.6,3.7,25.6,5.5,39,5.5c13.3,0,26.4-1.8,39-5.5l-27-83.1
			C223.4,267.2,219.4,267.7,215.3,267.7z"/>
	</g>
</g>
<g>
	
		<image style="overflow:visible;opacity:0.4;" width="113" height="93" xlink:href="AA558B62.png"  transform="matrix(1 0 0 1 256 214.9)">
	</image>
	<g>
		
			<radialGradient id="SVGID_5_" cx="32.0905" cy="213.0357" r="379.0493" gradientTransform="matrix(1 0 0 -1 0 428)" gradientUnits="userSpaceOnUse">
			<stop  offset="0" style="stop-color:#DEDEDE"/>
			<stop  offset="1" style="stop-color:#DEDEDE"/>
		</radialGradient>
		<path class="st14" d="M260.1,242.4l70.7,51.4c5.2-7.6,9.6-15.6,13.2-24.2c6.7-15.9,10.4-32.7,10.9-50h-87.4
			C266.8,228,264.2,235.7,260.1,242.4z"/>
	</g>
</g>
<g>
	
		<image style="overflow:visible;opacity:0.4;" width="97" height="108" xlink:href="AA558B6D.png"  transform="matrix(1 0 0 1 172 70.9)">
	</image>
	<g>
		
			<radialGradient id="SVGID_6_" cx="32.0906" cy="213.0358" r="379.0498" gradientTransform="matrix(1 0 0 -1 0 428)" gradientUnits="userSpaceOnUse">
			<stop  offset="0" style="stop-color:#DEDEDE"/>
			<stop  offset="1" style="stop-color:#DEDEDE"/>
		</radialGradient>
		<path class="st15" d="M215.3,163c4.1,0,8.1,0.5,12,1.4l27-83.1c-12.6-3.7-25.6-5.5-39-5.5c-13.3,0-26.4,1.8-39,5.5l27,83.1
			C207.2,163.4,211.2,163,215.3,163z"/>
	</g>
</g>
<g>
	
		<image style="overflow:visible;opacity:0.4;" width="109" height="116" xlink:href="AA558B6E.png"  transform="matrix(1 0 0 1 100 79.9)">
	</image>
	<g>
		
			<radialGradient id="SVGID_7_" cx="32.0905" cy="213.0357" r="379.0492" gradientTransform="matrix(1 0 0 -1 0 428)" gradientUnits="userSpaceOnUse">
			<stop  offset="0" style="stop-color:#DEDEDE"/>
			<stop  offset="1" style="stop-color:#DEDEDE"/>
		</radialGradient>
		<path class="st16" d="M195,167l-27-83.1c-2.4,0.9-4.7,1.8-7.1,2.8c-16.6,7-31.6,17.1-44.4,29.9c-4.2,4.2-8,8.6-11.6,13.2
			l70.7,51.4C180.9,175.1,187.5,170.2,195,167z"/>
	</g>
</g>
<g>
	
		<image style="overflow:visible;opacity:0.4;" width="114" height="93" xlink:href="AA558B6F.png"  transform="matrix(1 0 0 1 71 214.9)">
	</image>
	<g>
		
			<radialGradient id="SVGID_8_" cx="32.0903" cy="213.0357" r="379.0496" gradientTransform="matrix(1 0 0 -1 0 428)" gradientUnits="userSpaceOnUse">
			<stop  offset="0" style="stop-color:#DEDEDE"/>
			<stop  offset="1" style="stop-color:#DEDEDE"/>
		</radialGradient>
		<path class="st17" d="M163.1,219.7H75.8c0.5,17.3,4.2,34.1,10.9,50c3.6,8.5,8,16.6,13.2,24.2l70.7-51.4
			C166.5,235.7,163.8,228,163.1,219.7z"/>
	</g>
</g>
<g>
	
		<image style="overflow:visible;opacity:0.4;" width="109" height="117" xlink:href="AA558B64.png"  transform="matrix(1 0 0 1 231 78.9)">
	</image>
	<g>
		
			<radialGradient id="SVGID_9_" cx="32.0899" cy="213.0356" r="379.0505" gradientTransform="matrix(1 0 0 -1 0 428)" gradientUnits="userSpaceOnUse">
			<stop  offset="0" style="stop-color:#DEDEDE"/>
			<stop  offset="1" style="stop-color:#DEDEDE"/>
		</radialGradient>
		<path class="st18" d="M254.9,181.1l70.7-51.4c-3.6-4.6-7.4-9-11.6-13.2c-12.8-12.8-27.8-22.9-44.4-29.9c-2.3-1-4.7-1.9-7.1-2.8
			l-27,83.1C243.1,170.2,249.7,175.1,254.9,181.1z"/>
	</g>
</g>
<g>
	
		<image style="overflow:visible;opacity:0.4;" width="113" height="94" xlink:href="9E5D251A.png"  transform="matrix(1 0 0 1 256 131.9)">
	</image>
	<g>
		
			<radialGradient id="SVGID_10_" cx="32.0907" cy="213.0357" r="379.0493" gradientTransform="matrix(1 0 0 -1 0 428)" gradientUnits="userSpaceOnUse">
			<stop  offset="0" style="stop-color:#DEDEDE"/>
			<stop  offset="1" style="stop-color:#DEDEDE"/>
		</radialGradient>
		<path class="st19" d="M267.5,211h87.4c-0.5-17.3-4.2-34.1-10.9-50c-3.6-8.5-8-16.6-13.2-24.2l-70.7,51.4
			C264.2,194.9,266.8,202.7,267.5,211z"/>
	</g>
</g>
<radialGradient id="SVGID_11_" cx="217.7555" cy="213.734" r="155.6651" gradientTransform="matrix(1 0 0 -1 0 428)" gradientUnits="userSpaceOnUse">
	<stop  offset="0" style="stop-color:#7760A7"/>
	<stop  offset="0.2493" style="stop-color:#735CA5"/>
	<stop  offset="0.574" style="stop-color:#6951A0"/>
	<stop  offset="0.9388" style="stop-color:#593F99"/>
	<stop  offset="1" style="stop-color:#563C97"/>
</radialGradient>
<path class="st20" d="M215.3,75.7c-11.9,0-23.5,1.5-34.8,4.4l21.7,66.7l13.1,7.5l13.1-7.5l21.7-66.7
	C238.8,77.2,227.2,75.7,215.3,75.7z"/>
<radialGradient id="SVGID_12_" cx="217.7555" cy="213.7336" r="155.6659" gradientTransform="matrix(1 0 0 -1 0 428)" gradientUnits="userSpaceOnUse">
	<stop  offset="0" style="stop-color:#CEDD30"/>
	<stop  offset="0.2374" style="stop-color:#C9DB32"/>
	<stop  offset="0.5465" style="stop-color:#BAD535"/>
	<stop  offset="0.8938" style="stop-color:#A0CC3B"/>
	<stop  offset="1" style="stop-color:#96C93C"/>
</radialGradient>
<path class="st21" d="M215.3,354.9c-11.9,0-23.5-1.5-34.8-4.4l21.7-66.7l13.1-7.5l13.1,7.5l21.7,66.7
	C238.8,353.4,227.2,354.9,215.3,354.9z"/>
<radialGradient id="SVGID_13_" cx="217.7555" cy="213.7336" r="155.6661" gradientTransform="matrix(1 0 0 -1 0 428)" gradientUnits="userSpaceOnUse">
	<stop  offset="0" style="stop-color:#6172B6"/>
	<stop  offset="0.2922" style="stop-color:#5D6EB4"/>
	<stop  offset="0.6718" style="stop-color:#5164AE"/>
	<stop  offset="1" style="stop-color:#4258A7"/>
</radialGradient>
<path class="st22" d="M133.3,102.4c-9.6,7-18.1,15-25.6,24l56.7,41.2l15-1.6l6.2-13.8l-21.7-66.7C153.1,89.8,142.9,95.4,133.3,102.4
	z"/>
<radialGradient id="SVGID_14_" cx="217.7555" cy="213.7339" r="155.6662" gradientTransform="matrix(1 0 0 -1 0 428)" gradientUnits="userSpaceOnUse">
	<stop  offset="0" style="stop-color:#F7D509"/>
	<stop  offset="0.2063" style="stop-color:#F7D10D"/>
	<stop  offset="0.475" style="stop-color:#F5C516"/>
	<stop  offset="0.7767" style="stop-color:#F2B21D"/>
	<stop  offset="1" style="stop-color:#F0A121"/>
</radialGradient>
<path class="st23" d="M297.4,328.3c-9.6,7-19.9,12.6-30.7,16.9L245,278.5l6.2-13.8l15-1.6l56.7,41.2
	C315.5,313.3,307,321.3,297.4,328.3z"/>
<radialGradient id="SVGID_15_" cx="217.7556" cy="213.7337" r="155.6659" gradientTransform="matrix(1 0 0 -1 0 428)" gradientUnits="userSpaceOnUse">
	<stop  offset="0" style="stop-color:#0482C6"/>
	<stop  offset="0.279" style="stop-color:#047FC3"/>
	<stop  offset="0.6413" style="stop-color:#0276BD"/>
	<stop  offset="1" style="stop-color:#016AB5"/>
</radialGradient>
<path class="st24" d="M82.5,172.2c-3.7,11.3-5.9,22.8-6.6,34.4H146l11.2-10.1l-3.1-14.8l-56.7-41.2
	C91.2,150.3,86.2,160.9,82.5,172.2z"/>
<radialGradient id="SVGID_16_" cx="217.7554" cy="213.7337" r="155.6653" gradientTransform="matrix(1 0 0 -1 0 428)" gradientUnits="userSpaceOnUse">
	<stop  offset="0" style="stop-color:#F8981F"/>
	<stop  offset="0.1774" style="stop-color:#F79420"/>
	<stop  offset="0.4084" style="stop-color:#F68920"/>
	<stop  offset="0.6691" style="stop-color:#F47621"/>
	<stop  offset="0.9496" style="stop-color:#F05722"/>
	<stop  offset="1" style="stop-color:#F05022"/>
</radialGradient>
<path class="st25" d="M348.1,258.5c-3.7,11.3-8.7,21.9-14.9,31.7L276.5,249l-3.1-14.8l11.2-10.1h70.1
	C353.9,235.7,351.7,247.2,348.1,258.5z"/>
<radialGradient id="SVGID_17_" cx="217.7556" cy="213.7339" r="155.6658" gradientTransform="matrix(1 0 0 -1 0 428)" gradientUnits="userSpaceOnUse">
	<stop  offset="0" style="stop-color:#7DC8A9"/>
	<stop  offset="0.2342" style="stop-color:#77C6AC"/>
	<stop  offset="0.5391" style="stop-color:#63C1B6"/>
	<stop  offset="0.8818" style="stop-color:#33B9C6"/>
	<stop  offset="1" style="stop-color:#00B6CC"/>
</radialGradient>
<path class="st26" d="M133.3,328.3c9.6,7,19.9,12.6,30.7,16.9l21.7-66.7l-6.2-13.8l-15-1.6l-56.7,41.2
	C115.1,313.3,123.7,321.3,133.3,328.3z"/>
<radialGradient id="SVGID_18_" cx="217.7555" cy="213.7336" r="155.6656" gradientTransform="matrix(1 0 0 -1 0 428)" gradientUnits="userSpaceOnUse">
	<stop  offset="0" style="stop-color:#BD5FA5"/>
	<stop  offset="0.225" style="stop-color:#B95AA2"/>
	<stop  offset="0.5179" style="stop-color:#AD4D9C"/>
	<stop  offset="0.847" style="stop-color:#9B3893"/>
	<stop  offset="1" style="stop-color:#922B8E"/>
</radialGradient>
<path class="st27" d="M297.4,102.4c9.6,7,18.1,15,25.6,24l-56.7,41.2l-15-1.6l-6.2-13.8l21.7-66.7
	C277.5,89.8,287.8,95.4,297.4,102.4z"/>
<radialGradient id="SVGID_19_" cx="217.7558" cy="213.7337" r="155.666" gradientTransform="matrix(1 0 0 -1 0 428)" gradientUnits="userSpaceOnUse">
	<stop  offset="0" style="stop-color:#29ACE2"/>
	<stop  offset="0.3387" style="stop-color:#25A8DF"/>
	<stop  offset="0.7788" style="stop-color:#149DD7"/>
	<stop  offset="1" style="stop-color:#0396D1"/>
</radialGradient>
<path class="st28" d="M82.5,258.5c3.7,11.3,8.7,21.9,14.9,31.7l56.7-41.2l3.1-14.8L146.1,224H76C76.7,235.7,78.9,247.2,82.5,258.5z"
	/>
<radialGradient id="SVGID_20_" cx="217.7554" cy="213.7337" r="155.6664" gradientTransform="matrix(1 0 0 -1 0 428)" gradientUnits="userSpaceOnUse">
	<stop  offset="0" style="stop-color:#F0679E"/>
	<stop  offset="0.1475" style="stop-color:#EF659B"/>
	<stop  offset="0.3397" style="stop-color:#EE5D90"/>
	<stop  offset="0.5565" style="stop-color:#EB5080"/>
	<stop  offset="0.7896" style="stop-color:#E93D6C"/>
	<stop  offset="1" style="stop-color:#E62257"/>
</radialGradient>
<path class="st29" d="M348.1,172.2c3.7,11.3,5.9,22.8,6.6,34.4h-70.1l-11.2-10.1l3.1-14.8l56.7-41.2
	C339.4,150.3,344.4,160.9,348.1,172.2z"/>
<g>
	
		<image style="overflow:visible;opacity:0.4;enable-background:new    ;" width="425" height="150" xlink:href="118A2BAC.png"  transform="matrix(0.2375 0 0 0.2375 165.8045 53.9761)">
	</image>
	<g>
		
			<radialGradient id="SVGID_21_" cx="215.3" cy="358.2559" r="32.4394" gradientTransform="matrix(1 0 0 -1 0 428)" gradientUnits="userSpaceOnUse">
			<stop  offset="0" style="stop-color:#E6E6E6"/>
			<stop  offset="1" style="stop-color:#E6E6E6"/>
		</radialGradient>
		<path class="st30" d="M215.3,75.7c13.3,0,26.4,1.8,39,5.5l5.4-16.6c-14.1-4.1-29-6.4-44.4-6.4s-30.3,2.2-44.4,6.4l5.4,16.6
			C188.9,77.6,202,75.7,215.3,75.7z"/>
	</g>
</g>
<path class="st31" d="M176.3,81.2l27,83.1c0.1,0,0.2,0,0.3-0.1l-27-83.1C176.6,81.2,176.4,81.2,176.3,81.2z"/>
<g>
	
		<image style="overflow:visible;opacity:0.4;enable-background:new    ;" width="375" height="317" xlink:href="118A2BAD.png"  transform="matrix(0.2373 0 0 0.2373 255.6505 60.933)">
	</image>
	<g>
		
			<radialGradient id="SVGID_22_" cx="32.09" cy="213.0357" r="379.0502" gradientTransform="matrix(1 0 0 -1 0 428)" gradientUnits="userSpaceOnUse">
			<stop  offset="0" style="stop-color:#E6E6E6"/>
			<stop  offset="1" style="stop-color:#E6E6E6"/>
		</radialGradient>
		<path class="st32" d="M269.6,86.7c16.6,7,31.6,17.1,44.4,29.9c4.2,4.2,8,8.6,11.6,13.2l14.1-10.3c-18.2-23.7-43.1-42-71.8-52.2
			l-5.4,16.6C265,84.8,267.3,85.7,269.6,86.7z"/>
	</g>
</g>
<path class="st31" d="M262.6,83.9l-27,83.1c0.1,0,0.2,0.1,0.3,0.1l27-83.1C262.8,84,262.7,84,262.6,83.9z"/>
<path class="st31" d="M262.6,83.9c0.1,0,0.2,0.1,0.3,0.1l5.4-16.6c-0.1,0-0.2-0.1-0.3-0.1L262.6,83.9z"/>
<g>
	
		<image style="overflow:visible;opacity:0.4;enable-background:new    ;" width="375" height="317" xlink:href="118A2BAB.png"  transform="matrix(0.2373 0 0 0.2373 85.9704 294.453)">
	</image>
	<g>
		
			<radialGradient id="SVGID_23_" cx="32.0906" cy="213.0354" r="379.0486" gradientTransform="matrix(1 0 0 -1 0 428)" gradientUnits="userSpaceOnUse">
			<stop  offset="0" style="stop-color:#E6E6E6"/>
			<stop  offset="1" style="stop-color:#E6E6E6"/>
		</radialGradient>
		<path class="st33" d="M161,343.9c-16.6-7-31.6-17.1-44.4-29.9c-4.2-4.2-8-8.6-11.6-13.2l-14.1,10.3c18.2,23.7,43.1,42,71.8,52.2
			l5.4-16.6C165.7,345.9,163.3,344.9,161,343.9z"/>
	</g>
</g>
<path class="st31" d="M105,300.9c0.1,0.1,0.1,0.2,0.2,0.3l70.7-51.4c-0.1-0.1-0.2-0.2-0.2-0.3L105,300.9z"/>
<path class="st31" d="M105,300.9l-14.1,10.3c0.1,0.1,0.1,0.2,0.2,0.3l14.1-10.3C105.1,301,105.1,301,105,300.9z"/>
<g>
	
		<image style="overflow:visible;opacity:0.4;enable-background:new    ;" width="375" height="317" xlink:href="118A2BB4.png"  transform="matrix(0.237 0 0 0.237 86.0293 63.0227)">
	</image>
	<g>
		
			<radialGradient id="SVGID_24_" cx="32.0906" cy="213.0355" r="379.0492" gradientTransform="matrix(1 0 0 -1 0 428)" gradientUnits="userSpaceOnUse">
			<stop  offset="0" style="stop-color:#E6E6E6"/>
			<stop  offset="1" style="stop-color:#E6E6E6"/>
		</radialGradient>
		<path class="st34" d="M116.6,116.6c12.8-12.8,27.8-22.9,44.4-29.9c2.3-1,4.7-1.9,7.1-2.8l-5.4-16.6
			c-28.7,10.2-53.5,28.5-71.8,52.2l14.1,10.3C108.6,125.2,112.4,120.8,116.6,116.6z"/>
	</g>
</g>
<g>
	
		<image style="overflow:visible;opacity:0.4;enable-background:new    ;" width="225" height="404" xlink:href="118A2BB7.png"  transform="matrix(0.2393 0 0 0.2393 323.6244 213.5283)">
	</image>
	<g>
		
			<radialGradient id="SVGID_25_" cx="32.0905" cy="213.0357" r="379.0492" gradientTransform="matrix(1 0 0 -1 0 428)" gradientUnits="userSpaceOnUse">
			<stop  offset="0" style="stop-color:#E6E6E6"/>
			<stop  offset="1" style="stop-color:#E6E6E6"/>
		</radialGradient>
		<path class="st35" d="M354.8,219.7c-0.5,17.3-4.2,34.1-10.9,50c-3.6,8.5-8,16.6-13.2,24.2l14.1,10.3
			c16.6-24.1,26.6-53.1,27.4-84.4h-17.4V219.7z"/>
	</g>
</g>
<path class="st31" d="M354.8,219.7h-87.4c0,0.1,0,0.2,0,0.3h87.4C354.8,219.9,354.8,219.8,354.8,219.7z"/>
<path class="st31" d="M354.8,219.7c0,0.1,0,0.2,0,0.3h17.5c0-0.1,0-0.2,0-0.3H354.8z"/>
<g>
	
		<image style="overflow:visible;opacity:0.4;enable-background:new    ;" width="229" height="408" xlink:href="118A2BB5.png"  transform="matrix(0.2365 0 0 0.2365 52.9846 120.4976)">
	</image>
	<g>
		
			<radialGradient id="SVGID_26_" cx="32.0902" cy="213.0357" r="379.0497" gradientTransform="matrix(1 0 0 -1 0 428)" gradientUnits="userSpaceOnUse">
			<stop  offset="0" style="stop-color:#E6E6E6"/>
			<stop  offset="1" style="stop-color:#E6E6E6"/>
		</radialGradient>
		<path class="st36" d="M86.7,161c3.6-8.5,8-16.6,13.2-24.2l-14.1-10.3c-16.6,24.1-26.6,53.1-27.4,84.4h17.5
			C76.3,193.6,80,176.9,86.7,161z"/>
	</g>
</g>
<path class="st31" d="M99.8,136.8c-0.1,0.1-0.1,0.2-0.2,0.3l70.7,51.4c0.1-0.1,0.1-0.2,0.2-0.3L99.8,136.8z"/>
<path class="st31" d="M99.8,136.8l-14.1-10.3c-0.1,0.1-0.1,0.2-0.2,0.3l14.1,10.3C99.7,137,99.8,136.9,99.8,136.8z"/>
<g>
	
		<image style="overflow:visible;opacity:0.4;enable-background:new    ;" width="229" height="404" xlink:href="118A2BBB.png"  transform="matrix(0.2383 0 0 0.2383 52.7814 213.7322)">
	</image>
	<g>
		
			<radialGradient id="SVGID_27_" cx="32.0902" cy="213.0357" r="379.0496" gradientTransform="matrix(1 0 0 -1 0 428)" gradientUnits="userSpaceOnUse">
			<stop  offset="0" style="stop-color:#E6E6E6"/>
			<stop  offset="1" style="stop-color:#E6E6E6"/>
		</radialGradient>
		<path class="st37" d="M86.7,269.6c-6.7-15.9-10.4-32.7-10.9-50H58.3c0.9,31.3,10.8,60.3,27.4,84.4l14.1-10.3
			C94.7,286.2,90.3,278.2,86.7,269.6z"/>
	</g>
</g>
<path class="st31" d="M75.8,219.7c0,0.1,0,0.2,0,0.3h87.4c0-0.1,0-0.2,0-0.3H75.8z"/>
<path class="st31" d="M75.8,219.7H58.3c0,0.1,0,0.2,0,0.3h17.5C75.8,219.9,75.8,219.8,75.8,219.7z"/>
<g>
	
		<image style="overflow:visible;opacity:0.4;enable-background:new    ;" width="375" height="313" xlink:href="118A2BBC.png"  transform="matrix(0.2382 0 0 0.2382 255.4752 294.6613)">
	</image>
	<g>
		
			<radialGradient id="SVGID_28_" cx="32.09" cy="213.0358" r="379.049" gradientTransform="matrix(1 0 0 -1 0 428)" gradientUnits="userSpaceOnUse">
			<stop  offset="0" style="stop-color:#E6E6E6"/>
			<stop  offset="1" style="stop-color:#E6E6E6"/>
		</radialGradient>
		<path class="st38" d="M314,314c-12.8,12.8-27.8,22.9-44.4,29.9c-2.3,1-4.7,1.9-7.1,2.8l5.4,16.6c28.7-10.2,53.5-28.5,71.8-52.2
			l-14.1-10.3C322.1,305.5,318.2,309.9,314,314z"/>
	</g>
</g>
<path class="st31" d="M235.6,263.6l27,83.1c0.1,0,0.2-0.1,0.3-0.1l-27-83.1C235.8,263.5,235.7,263.5,235.6,263.6z"/>
<path class="st31" d="M325.6,300.9l-70.7-51.4c-0.1,0.1-0.2,0.2-0.2,0.3l70.7,51.4C325.5,301,325.6,301,325.6,300.9z"/>
<path class="st31" d="M262.6,346.7l5.4,16.6c0.1,0,0.2-0.1,0.3-0.1l-5.4-16.6C262.8,346.6,262.7,346.7,262.6,346.7z"/>
<path class="st31" d="M325.6,300.9c-0.1,0.1-0.1,0.2-0.2,0.3l14.1,10.3c0.1-0.1,0.1-0.2,0.2-0.3L325.6,300.9z"/>
<g>
	
		<image style="overflow:visible;opacity:0.4;enable-background:new    ;" width="425" height="150" xlink:href="118A2BBF.png"  transform="matrix(0.2375 0 0 0.2375 164.8445 342.9361)">
	</image>
	<g>
		
			<radialGradient id="SVGID_29_" cx="32.0904" cy="213.0355" r="379.0495" gradientTransform="matrix(1 0 0 -1 0 428)" gradientUnits="userSpaceOnUse">
			<stop  offset="0" style="stop-color:#E6E6E6"/>
			<stop  offset="1" style="stop-color:#E6E6E6"/>
		</radialGradient>
		<path class="st39" d="M215.3,354.9c-13.3,0-26.4-1.8-39-5.5l-5.4,16.6c14.1,4.1,29,6.4,44.4,6.4s30.3-2.2,44.4-6.4l-5.4-16.6
			C241.7,353.1,228.7,354.9,215.3,354.9z"/>
	</g>
</g>
<path class="st31" d="M176.3,349.4c0.1,0,0.2,0.1,0.3,0.1l27-83.1c-0.1,0-0.2,0-0.3-0.1L176.3,349.4z"/>
<path class="st31" d="M176.3,349.4l-5.4,16.6c0.1,0,0.2,0.1,0.3,0.1l5.4-16.6C176.6,349.5,176.4,349.4,176.3,349.4z"/>
<g>
	
		<image style="overflow:visible;opacity:0.4;enable-background:new    ;" width="225" height="408" xlink:href="88F8503B.png"  transform="matrix(0.2375 0 0 0.2375 323.8266 120.2962)">
	</image>
	<g>
		
			<radialGradient id="SVGID_30_" cx="32.0903" cy="213.0357" r="379.0493" gradientTransform="matrix(1 0 0 -1 0 428)" gradientUnits="userSpaceOnUse">
			<stop  offset="0" style="stop-color:#E6E6E6"/>
			<stop  offset="1" style="stop-color:#E6E6E6"/>
		</radialGradient>
		<path class="st40" d="M343.9,161c6.7,15.9,10.4,32.7,10.9,50h17.5c-0.9-31.3-10.8-60.3-27.4-84.4l-14.1,10.3
			C335.9,144.4,340.3,152.5,343.9,161z"/>
	</g>
</g>
<path class="st31" d="M330.8,136.8l-70.7,51.4c0.1,0.1,0.1,0.2,0.2,0.3l70.7-51.4C330.9,137,330.8,136.9,330.8,136.8z"/>
<path class="st31" d="M330.8,136.8c0.1,0.1,0.1,0.2,0.2,0.3l14.1-10.3c-0.1-0.1-0.1-0.2-0.2-0.3L330.8,136.8z"/>
<path class="st31" d="M215,267.7c-4,0-7.9-0.5-11.7-1.3l-0.1,0.3c3.9,0.9,7.9,1.4,12.1,1.4s8.2-0.5,12.1-1.4l-0.1-0.4
	C223.3,267.2,219.2,267.7,215,267.7z"/>
<path class="st31" d="M267.4,219.7c-0.7,8.3-3.4,16-7.5,22.7l0.4,0.3c4.1-6.8,6.8-14.6,7.5-23H267.4z"/>
<path class="st31" d="M267.5,211h0.3c-0.7-8.4-3.3-16.2-7.5-23l-0.1,0.1C264.3,194.9,266.9,202.6,267.5,211z"/>
<path class="st31" d="M252.4,177.9c1,1,1.9,2,2.8,3.1l0,0C254.3,179.9,253.4,178.9,252.4,177.9z"/>
<path class="st31" d="M235.5,263.5l0.1,0.4c7.6-3.2,14.2-8.1,19.5-14.2l-0.4-0.3C249.6,255.5,243,260.3,235.5,263.5z"/>
<path class="st31" d="M177.9,252.4c4.8,4.9,10.6,8.8,17,11.5l0.1-0.2C188.6,261.1,182.8,257.2,177.9,252.4z"/>
<path class="st31" d="M104.4,326.5c-4.8-4.8-9.4-10-13.5-15.5h-0.1C95.1,316.6,99.6,321.7,104.4,326.5z"/>
<path class="st31" d="M162.8,67.7l-0.1-0.4c-28.7,10.2-53.5,28.5-71.8,52.2l0.4,0.3C109.5,96.2,134.2,78,162.8,67.7z"/>
<path class="st31" d="M215.3,58.3c-15.4,0-30.3,2.2-44.4,6.4l0.1,0.4l0,0l5.3,16.2c0.1,0,0.2-0.1,0.3-0.1L171.3,65
	c14-4.1,28.9-6.3,44.3-6.3c15.3,0,30,2.2,44,6.2l0.1-0.2C245.6,60.5,230.7,58.3,215.3,58.3z"/>
<path class="st31" d="M58.7,219.7h-0.3c0.9,31.3,10.8,60.3,27.4,84.4l0.1-0.1C69.4,279.9,59.4,250.9,58.7,219.7z"/>
<path class="st31" d="M86.1,126.8l-0.4-0.3c-16.6,24.1-26.6,53.1-27.4,84.4h0.4C59.6,179.8,69.6,150.9,86.1,126.8z"/>
<path class="st31" d="M326.5,104.4C310.2,88,290.2,75.2,268,67.3l-0.1,0.2C290.2,75.4,310.2,88.1,326.5,104.4z"/>
<g id="Circle_75_">
	<g id="Color_x5F_Circle_38_">
		<path class="st1" d="M146.9,92.7c23.2,0,42.1-18.8,42.1-42.1c0-23.2-18.8-42.1-42.1-42.1c-23.2,0-42.1,18.8-42.1,42.1
			C104.9,73.8,123.7,92.7,146.9,92.7z"/>
	</g>
	<g id="White_x5F_Circle_38_">
		
			<image style="overflow:visible;opacity:0.4;enable-background:new    ;" width="354" height="354" xlink:href="88F85039.png"  transform="matrix(0.238 0 0 0.238 99.865 13.4657)">
		</image>
		<g>
			<g>
				<g>
					<g>
						
							<radialGradient id="SVGID_31_" cx="-635.366" cy="14.1425" r="65.5188" gradientTransform="matrix(-1 0 0 -1 -464.8824 41.6357)" gradientUnits="userSpaceOnUse">
							<stop  offset="0.2" style="stop-color:#FFFFFF"/>
							<stop  offset="0.5951" style="stop-color:#FDFDFD"/>
							<stop  offset="0.7897" style="stop-color:#F5F5F5"/>
							<stop  offset="0.9401" style="stop-color:#E8E8E8"/>
							<stop  offset="1" style="stop-color:#E0E0E0"/>
						</radialGradient>
						<path class="st41" d="M146.9,83.5c18.2,0,32.9-14.7,32.9-32.9s-14.7-32.9-32.9-32.9S114,32.4,114,50.6
							C114,68.8,128.8,83.5,146.9,83.5z"/>
					</g>
				</g>
			</g>
		</g>
	</g>
</g>
<g id="Circle_74_">
	<g id="Color_x5F_Circle_37_">
		<path class="st7" d="M50.7,189.4c23.2,0,42.1-18.8,42.1-42.1c0-23.2-18.8-42.1-42.1-42.1c-23.2,0-42.1,18.8-42.1,42.1
			C8.6,170.6,27.4,189.4,50.7,189.4z"/>
	</g>
	<g id="White_x5F_Circle_37_">
		
			<image style="overflow:visible;opacity:0.4;enable-background:new    ;" width="354" height="350" xlink:href="88F8503F.png"  transform="matrix(0.2386 0 0 0.2386 3.387 110.665)">
		</image>
		<g>
			<g>
				<g>
					<g>
						
							<radialGradient id="SVGID_32_" cx="-539.0878" cy="-82.6292" r="65.5183" gradientTransform="matrix(-1 0 0 -1 -464.8824 41.6357)" gradientUnits="userSpaceOnUse">
							<stop  offset="0.2" style="stop-color:#FFFFFF"/>
							<stop  offset="0.5951" style="stop-color:#FDFDFD"/>
							<stop  offset="0.7897" style="stop-color:#F5F5F5"/>
							<stop  offset="0.9401" style="stop-color:#E8E8E8"/>
							<stop  offset="1" style="stop-color:#E0E0E0"/>
						</radialGradient>
						<path class="st42" d="M50.7,180.3c18.2,0,32.9-14.7,32.9-32.9s-14.7-32.9-32.9-32.9s-32.9,14.7-32.9,32.9
							C17.7,165.6,32.5,180.3,50.7,180.3z"/>
					</g>
				</g>
			</g>
		</g>
	</g>
</g>
<g id="Circle_73_">
	<g id="Color_x5F_Circle_36_">
		<path class="st4" d="M50.7,322.3c23.2,0,42.1-18.8,42.1-42.1c0-23.2-18.8-42.1-42.1-42.1c-23.2,0-42.1,18.8-42.1,42.1
			C8.6,303.4,27.4,322.3,50.7,322.3z"/>
	</g>
	<g id="White_x5F_Circle_36_">
		
			<image style="overflow:visible;opacity:0.4;enable-background:new    ;" width="354" height="354" xlink:href="88F8503A.png"  transform="matrix(0.2373 0 0 0.2373 3.625 243.1457)">
		</image>
		<g>
			<g>
				<g>
					<g>
						
							<radialGradient id="SVGID_33_" cx="-539.088" cy="-215.4548" r="65.5193" gradientTransform="matrix(-1 0 0 -1 -464.8824 41.6357)" gradientUnits="userSpaceOnUse">
							<stop  offset="0.2" style="stop-color:#FFFFFF"/>
							<stop  offset="0.5951" style="stop-color:#FDFDFD"/>
							<stop  offset="0.7897" style="stop-color:#F5F5F5"/>
							<stop  offset="0.9401" style="stop-color:#E8E8E8"/>
							<stop  offset="1" style="stop-color:#E0E0E0"/>
						</radialGradient>
						<path class="st43" d="M50.7,313.1c18.2,0,32.9-14.7,32.9-32.9c0-18.2-14.7-32.9-32.9-32.9S17.8,262,17.8,280.2
							C17.7,298.4,32.5,313.1,50.7,313.1z"/>
					</g>
				</g>
			</g>
		</g>
	</g>
</g>
<g id="Circle_72_">
	<g id="Color_x5F_Circle_35_">
		<path class="st5" d="M146.9,419.4c23.2,0,42.1-18.8,42.1-42.1c0-23.2-18.8-42.1-42.1-42.1c-23.2,0-42.1,18.8-42.1,42.1
			C104.9,400.5,123.7,419.4,146.9,419.4z"/>
	</g>
	<g id="White_x5F_Circle_35_">
		
			<image style="overflow:visible;opacity:0.4;enable-background:new    ;" width="354" height="354" xlink:href="88F85025.png"  transform="matrix(0.2376 0 0 0.2376 99.925 340.2857)">
		</image>
		<g>
			<g>
				<g>
					<g>
						
							<radialGradient id="SVGID_34_" cx="-635.3657" cy="-312.5544" r="65.5188" gradientTransform="matrix(-1 0 0 -1 -464.8824 41.6357)" gradientUnits="userSpaceOnUse">
							<stop  offset="0.2" style="stop-color:#FFFFFF"/>
							<stop  offset="0.5951" style="stop-color:#FDFDFD"/>
							<stop  offset="0.7897" style="stop-color:#F5F5F5"/>
							<stop  offset="0.9401" style="stop-color:#E8E8E8"/>
							<stop  offset="1" style="stop-color:#E0E0E0"/>
						</radialGradient>
						<path class="st44" d="M146.9,410.2c18.2,0,32.9-14.7,32.9-32.9c0-18.2-14.7-32.9-32.9-32.9S114,359.2,114,377.3
							C114,395.5,128.8,410.2,146.9,410.2z"/>
					</g>
				</g>
			</g>
		</g>
	</g>
</g>
<g id="Circle_63_">
	<g id="Color_x5F_Circle_30_">
		<path class="st3" d="M282.9,419.4c23.2,0,42.1-18.8,42.1-42.1c0-23.2-18.8-42.1-42.1-42.1c-23.2,0-42.1,18.8-42.1,42.1
			C240.8,400.5,259.7,419.4,282.9,419.4z"/>
	</g>
	<g id="White_x5F_Circle_30_">
		
			<image style="overflow:visible;opacity:0.4;enable-background:new    ;" width="354" height="354" xlink:href="88F85026.png"  transform="matrix(0.2373 0 0 0.2373 235.945 340.3457)">
		</image>
		<g>
			<g>
				<g>
					<g>
						
							<radialGradient id="SVGID_35_" cx="-1203.9885" cy="-312.5544" r="65.5187" gradientTransform="matrix(-1 0 0 -1 -897.5621 41.6357)" gradientUnits="userSpaceOnUse">
							<stop  offset="0.2" style="stop-color:#FFFFFF"/>
							<stop  offset="0.5951" style="stop-color:#FDFDFD"/>
							<stop  offset="0.7897" style="stop-color:#F5F5F5"/>
							<stop  offset="0.9401" style="stop-color:#E8E8E8"/>
							<stop  offset="1" style="stop-color:#E0E0E0"/>
						</radialGradient>
						<path class="st45" d="M282.9,410.2c18.2,0,32.9-14.7,32.9-32.9c0-18.2-14.7-32.9-32.9-32.9c-18.2,0-32.9,14.8-32.9,32.9
							C250,395.5,264.7,410.2,282.9,410.2z"/>
					</g>
				</g>
			</g>
		</g>
	</g>
</g>
<g id="Circle_60_">
	<g id="Color_x5F_Circle_25_">
		<path class="st2" d="M376.4,322.3c23.2,0,42.1-18.8,42.1-42.1c0-23.2-18.8-42.1-42.1-42.1c-23.2,0-42.1,18.8-42.1,42.1
			C334.3,303.4,353.1,322.3,376.4,322.3z"/>
	</g>
	<g id="White_x5F_Circle_25_">
		
			<image style="overflow:visible;opacity:0.4;enable-background:new    ;" width="354" height="354" xlink:href="88F85027.png"  transform="matrix(0.2373 0 0 0.2373 329.305 243.1457)">
		</image>
		<g>
			<g>
				<g>
					<g>
						
							<radialGradient id="SVGID_36_" cx="-1297.4609" cy="-215.4548" r="65.5193" gradientTransform="matrix(-1 0 0 -1 -897.5621 41.6357)" gradientUnits="userSpaceOnUse">
							<stop  offset="0.2" style="stop-color:#FFFFFF"/>
							<stop  offset="0.5951" style="stop-color:#FDFDFD"/>
							<stop  offset="0.7897" style="stop-color:#F5F5F5"/>
							<stop  offset="0.9401" style="stop-color:#E8E8E8"/>
							<stop  offset="1" style="stop-color:#E0E0E0"/>
						</radialGradient>
						<path class="st46" d="M376.4,313.1c18.2,0,32.9-14.7,32.9-32.9c0-18.2-14.7-32.9-32.9-32.9c-18.2,0-32.9,14.7-32.9,32.9
							C343.4,298.4,358.2,313.1,376.4,313.1z"/>
					</g>
				</g>
			</g>
		</g>
	</g>
</g>
<g id="Circle_58_">
	<g id="Color_x5F_Circle_24_">
		<path class="st8" d="M376.4,189.4c23.2,0,42.1-18.8,42.1-42.1c0-23.2-18.8-42.1-42.1-42.1c-23.2,0-42.1,18.8-42.1,42.1
			S353.1,189.4,376.4,189.4z"/>
	</g>
	<g id="White_x5F_Circle_24_">
		
			<image style="overflow:visible;opacity:0.4;enable-background:new    ;" width="354" height="354" xlink:href="88F85029.png"  transform="matrix(0.2376 0 0 0.2376 329.245 110.2457)">
		</image>
		<g>
			<g>
				<g>
					<g>
						
							<radialGradient id="SVGID_37_" cx="-1297.4609" cy="-82.6242" r="65.5188" gradientTransform="matrix(-1 0 0 -1 -897.5621 41.6357)" gradientUnits="userSpaceOnUse">
							<stop  offset="0.2" style="stop-color:#FFFFFF"/>
							<stop  offset="0.5951" style="stop-color:#FDFDFD"/>
							<stop  offset="0.7897" style="stop-color:#F5F5F5"/>
							<stop  offset="0.9401" style="stop-color:#E8E8E8"/>
							<stop  offset="1" style="stop-color:#E0E0E0"/>
						</radialGradient>
						<path class="st47" d="M376.4,180.3c18.2,0,32.9-14.7,32.9-32.9s-14.7-32.9-32.9-32.9c-18.2,0-32.9,14.7-32.9,32.9
							C343.4,165.6,358.2,180.3,376.4,180.3z"/>
					</g>
				</g>
			</g>
		</g>
	</g>
</g>
<g id="Circle_53_">
	<g id="Color_x5F_Circle_23_">
		<path class="st6" d="M282.9,92.4c23.2,0,42.1-18.8,42.1-42.1c0-23.2-18.8-42.1-42.1-42.1c-23.2,0-42.1,18.8-42.1,42.1
			C240.8,73.5,259.7,92.4,282.9,92.4z"/>
	</g>
	<g id="White_x5F_Circle_23_">
		
			<image style="overflow:visible;opacity:0.4;enable-background:new    ;" width="354" height="354" xlink:href="88F8502B.png"  transform="matrix(0.2373 0 0 0.2373 235.945 13.2257)">
		</image>
		<g>
			<g>
				<g>
					<g>
						
							<radialGradient id="SVGID_38_" cx="-1203.9877" cy="14.4444" r="65.5178" gradientTransform="matrix(-1 0 0 -1 -897.5621 41.6357)" gradientUnits="userSpaceOnUse">
							<stop  offset="0.2" style="stop-color:#FFFFFF"/>
							<stop  offset="0.5951" style="stop-color:#FDFDFD"/>
							<stop  offset="0.7897" style="stop-color:#F5F5F5"/>
							<stop  offset="0.9401" style="stop-color:#E8E8E8"/>
							<stop  offset="1" style="stop-color:#E0E0E0"/>
						</radialGradient>
						<path class="st48" d="M282.9,83.2c18.2,0,32.9-14.7,32.9-32.9s-14.7-32.9-32.9-32.9S250,32.1,250,50.3
							C249.9,68.5,264.7,83.2,282.9,83.2z"/>
					</g>
				</g>
			</g>
		</g>
	</g>
</g>
<g>
	<path class="st31" d="M194.3,102.8h2.2c1.6,0,4-0.1,5.5-0.3v0.9c-1.5,0.2-3.8,0.3-5.5,0.3h-2.2V102.8z M200.7,98.5
		c0,1.6-1.1,2.8-2.8,2.8s-2.8-1.2-2.8-2.8s1.1-2.8,2.8-2.8C199.6,95.7,200.7,96.9,200.7,98.5z M199.6,98.5c0-1.1-0.7-1.9-1.8-1.9
		s-1.8,0.7-1.8,1.9c0,1.1,0.7,1.9,1.8,1.9C198.9,100.4,199.6,99.7,199.6,98.5z M203.6,106h-1V95h1V106z"/>
	<path class="st31" d="M205.2,103.6l-0.7-0.7c2-1.4,3.4-3.6,3.2-7.2h1.1c0,1-0.1,2-0.3,2.9c0.6,1.6,1.7,3,3.1,4l-0.7,0.8
		c-1.2-0.8-2.2-2-2.8-3.5C207.5,101.5,206.5,102.7,205.2,103.6z M215.3,100.3h-1.9v5.7h-1V95h1v4.3h1.9V100.3z"/>
	<path class="st31" d="M225.8,104.5h-10.2v-0.9h4.6v-2.8h1.1v2.8h4.5L225.8,104.5L225.8,104.5z M221.1,97.2c0.9,1.6,2.3,2.8,4.1,3.4
		l-0.7,0.8c-1.5-0.5-2.9-1.7-3.8-3.1c-0.8,1.5-2.2,2.5-3.8,3.1l-0.7-0.8c2.4-0.8,4-2.3,3.9-4.9h1.1
		C221.3,96.2,221.3,96.7,221.1,97.2z"/>
	<path class="st31" d="M227.9,99.7v-4.4h7v0.9h-6v0.9h5.8v0.8h-5.8v1h6.1v0.8h-3.2v1.1h4.7v0.9h-10.4v-0.9h4.7v-1.1
		C230.8,99.7,227.9,99.7,227.9,99.7z M235.2,104.3c0,1.1-1.3,1.9-3.7,1.9c-2.5,0-3.7-0.8-3.7-1.9s1.3-1.9,3.7-1.9
		S235.2,103.2,235.2,104.3z M234.1,104.3c0-0.5-0.6-1-2.6-1s-2.6,0.5-2.6,1s0.6,1,2.6,1C233.4,105.3,234.1,104.8,234.1,104.3z"/>
	<path class="st31" d="M215.2,114.4v0.9h-10.4v-0.9H215.2z M213.7,118.4c0,1.2-1.3,2.2-3.7,2.2c-2.5,0-3.7-0.9-3.7-2.2
		c0-1.2,1.3-2.1,3.7-2.1C212.4,116.2,213.7,117.1,213.7,118.4z M206.5,109.5h1.1v2.6h6.1v0.9h-7.1v-3.5H206.5z M212.5,118.4
		c0-0.7-0.6-1.3-2.6-1.3s-2.6,0.6-2.6,1.3c0,0.6,0.6,1.3,2.6,1.3C211.9,119.7,212.5,119,212.5,118.4z"/>
	<path class="st31" d="M217.2,114.8h1c1.8,0,3.1-0.2,4.3-0.5v0.9c-1.2,0.3-2.8,0.5-4.4,0.5h-1.9v-3.4h3.6v-1.6h-3.6v-0.9h4.7v3.3
		h-3.6v1.7H217.2z M223.6,120.5v-2.8h-6v-0.9h7.1v3.7C224.7,120.5,223.6,120.5,223.6,120.5z M221.8,111.8V111h1.8v-1.5h1v6.7h-1
		v-2.5h-1.8v-0.9h1.8v-1C223.6,111.8,221.8,111.8,221.8,111.8z"/>
</g>
<g>
	<path class="st31" d="M194.7,329.3v-7.1h3.8v0.9h-2.8v5.4h0.4c1.3,0,2.5-0.2,3.2-0.4v0.9c-0.8,0.2-2.2,0.4-3.4,0.4L194.7,329.3
		L194.7,329.3z M203.5,332.2h-1v-6H201v5.7h-1v-10.6h1v4h1.5v-4.1h1V332.2z"/>
	<path class="st31" d="M205.2,324.5c0-1.6,1.2-2.8,2.8-2.8s2.9,1.2,2.9,2.8c0,1.6-1.2,2.7-2.9,2.7
		C206.5,327.2,205.2,326,205.2,324.5z M206.3,324.5c0,1.1,0.7,1.8,1.8,1.8c1,0,1.8-0.8,1.8-1.8c0-1.1-0.7-1.9-1.8-1.9
		S206.3,323.4,206.3,324.5z M214.2,331.9h-7.1v-3.4h1v2.5h6v0.9H214.2z M214,329.1h-1v-7.9h1V329.1z"/>
	<path class="st31" d="M218.9,324.4v2.4c1.3,0,2.7-0.1,3.8-0.3v0.9c-1.5,0.2-3.8,0.3-5.5,0.3h-1.8v-0.9h2.4v-2.4H218.9z
		 M221.8,321.8c0,1.2-0.2,2.9-0.4,4h-1c0.2-1,0.3-2.1,0.4-3.2h-4.4v-0.9h5.4V321.8z M224.5,331.9h-7.1v-3.1h1v2.2h6.1V331.9z
		 M223.3,329.6v-8.4h1v3.7h1.6v0.9h-1.6v3.7L223.3,329.6L223.3,329.6z"/>
	<path class="st31" d="M232.4,327.5h-1.8v-0.9h1.8v-1.7h-1.7c-0.6,2-1.8,3.6-3.7,4.9l-0.7-0.7c2.4-1.5,3.6-3.7,3.7-6.1
		c-0.8,0-1.6,0-2.4,0h-0.8v-0.9h1.5c0.9,0,1.9,0,2.9,0c0,0.6-0.1,1.3-0.2,1.9h1.5v-2.7h1v10.6h-1v-4.4H232.4z M235.6,332.2h-1v-11h1
		V332.2z"/>
	<path class="st31" d="M215.2,340.5v0.9h-10.4v-0.9H215.2z M213.7,344.5c0,1.2-1.3,2.2-3.7,2.2c-2.5,0-3.7-0.9-3.7-2.2
		c0-1.2,1.3-2.1,3.7-2.1S213.7,343.2,213.7,344.5z M206.5,335.6h1.1v2.6h6.1v0.9h-7.1v-3.5H206.5z M212.5,344.5
		c0-0.7-0.6-1.3-2.6-1.3s-2.6,0.6-2.6,1.3c0,0.6,0.6,1.3,2.6,1.3S212.5,345.1,212.5,344.5z"/>
	<path class="st31" d="M217.2,341h1c1.8,0,3.1-0.2,4.3-0.5v0.9c-1.2,0.3-2.8,0.5-4.4,0.5h-1.9v-3.4h3.6v-1.6h-3.6V336h4.7v3.3h-3.6
		v1.7H217.2z M223.6,346.6v-2.8h-6v-0.9h7.1v3.7L223.6,346.6L223.6,346.6z M221.8,337.9v-0.8h1.8v-1.5h1v6.7h-1v-2.5h-1.8V339h1.8
		v-1h-1.8V337.9z"/>
</g>
<g>
	<path class="st31" d="M298.8,182.7h-1.1v-2.3h-4.9v-0.9h10.4v0.9h-4.4V182.7z M301.9,184.8h-7.4v-3.3h1v2.4h6.3v0.9H301.9z
		 M294.5,178.2v-3.9h6.9v3.9H294.5z M300.4,177.3v-2.1h-4.8v2.1H300.4z"/>
	<path class="st31" d="M306.9,175.8c-0.6,0-1.4,0-2.1,0h-0.7V175h1.3c0.8,0,1.7,0,2.6,0c-0.1,1.3-0.4,2.5-0.9,3.6
		c0.5,1.1,1.3,2.1,2.1,2.8l-0.8,0.7c-0.7-0.7-1.3-1.5-1.8-2.5c-0.6,1.1-1.4,2.1-2.4,2.9l-0.8-0.6
		C305.6,180.2,306.6,178.2,306.9,175.8z M309.7,174.1h1v10.6h-1v-5.9h-1.5v-0.9h1.5V174.1z M312.9,184.9h-1v-11h1V184.9z"/>
	<path class="st31" d="M314.3,177.1v-0.9h5.1v0.9H314.3z M314.7,180.2c0-1.4,1-2.4,2.3-2.4s2.3,1,2.3,2.4s-1,2.3-2.3,2.3
		S314.7,181.5,314.7,180.2z M315.5,175.4v-0.9h3v0.9H315.5z M315.7,180.2c0,0.9,0.5,1.4,1.3,1.4s1.3-0.6,1.3-1.4
		c0-0.9-0.5-1.4-1.3-1.4S315.7,179.3,315.7,180.2z M323.6,184.9h-1v-5.6h-1.3v5.3h-1V174h1v4.3h1.3V174h1V184.9z"/>
	<path class="st31" d="M329.8,175.3c-0.9,0-1.8,0-2.8,0h-1.1v-0.9h1.8c1.1,0,2.2,0,3.3,0c-0.2,2.3-2.1,4.3-5.1,5.2l-0.6-0.8
		C327.8,178.1,329.4,177,329.8,175.3z M334.3,184.8h-7.1v-2.7h5.9v-1h-5.9v-0.9h6.9v2.7h-5.9v1h6.1V184.8z M333.1,175.6V174h1v5.6
		h-1v-1.2H331v-0.9h2.1v-1.1h-1.8v-0.9L333.1,175.6L333.1,175.6z"/>
	<path class="st31" d="M313.9,193.3v0.9h-10.4v-0.9H313.9z M312.4,197.3c0,1.2-1.3,2.2-3.7,2.2c-2.5,0-3.7-0.9-3.7-2.2
		c0-1.2,1.3-2.1,3.7-2.1C311.1,195.1,312.4,196,312.4,197.3z M305.2,188.4h1.1v2.6h6.1v0.9h-7.1v-3.5H305.2z M311.3,197.3
		c0-0.7-0.6-1.3-2.6-1.3s-2.6,0.6-2.6,1.3c0,0.6,0.6,1.3,2.6,1.3C310.6,198.6,311.3,197.9,311.3,197.3z"/>
	<path class="st31" d="M315.9,193.7h1c1.8,0,3.1-0.2,4.3-0.5v0.9c-1.2,0.3-2.8,0.5-4.4,0.5h-1.9v-3.4h3.6v-1.6h-3.6v-0.9h4.7v3.3
		H316v1.7H315.9z M322.4,199.4v-2.8h-6v-0.9h7.1v3.7H322.4z M320.5,190.7v-0.8h1.8v-1.5h1v6.7h-1v-2.5h-1.8v-0.9h1.8v-1H320.5z"/>
</g>
<g>
	<path class="st31" d="M258.5,130.2v-0.9h10.2v0.9h-4.5v4h-1.1v-4H258.5z M264.4,123.4c0,0.5-0.1,0.9-0.3,1.4c0.7,1.1,2.4,2,4,2.3
		l-0.6,0.9c-1.6-0.4-3-1.3-4-2.3c-0.9,1.1-2.4,2-3.9,2.4l-0.6-0.8c2.4-0.6,4.2-2.1,4.1-3.8L264.4,123.4L264.4,123.4z"/>
	<path class="st31" d="M270.9,130.7h1.7c1.7,0,3.1-0.3,4-0.4v0.9c-0.9,0.2-2.7,0.5-4.1,0.5h-2.6v-4.3h3.7V125h-3.8v-0.9h4.8v4h-3.7
		V130.7z M277.2,123.2h1v11h-1V123.2z"/>
	<path class="st31" d="M290.2,128.2v0.9h-10.4v-0.9H290.2z M288.7,132.1c0,1.2-1.3,2.2-3.7,2.2c-2.5,0-3.7-0.9-3.7-2.2
		c0-1.2,1.3-2.1,3.7-2.1C287.4,130,288.7,130.9,288.7,132.1z M281.5,123.3h1.1v2.6h6.1v0.9h-7.1v-3.5H281.5z M287.6,132.1
		c0-0.7-0.6-1.3-2.6-1.3s-2.6,0.6-2.6,1.3c0,0.6,0.6,1.3,2.6,1.3C286.9,133.4,287.6,132.8,287.6,132.1z"/>
	<path class="st31" d="M292.2,128.6h1c1.8,0,3.1-0.2,4.3-0.5v0.9c-1.2,0.3-2.8,0.5-4.4,0.5h-1.9v-3.4h3.6v-1.6h-3.6v-0.9h4.7v3.3
		h-3.6v1.7H292.2z M298.7,134.2v-2.8h-6v-0.9h7.1v3.7H298.7z M296.8,125.6v-0.8h1.8v-1.5h1v6.7h-1v-2.5h-1.8v-0.9h1.8v-1H296.8z"/>
</g>
<g>
	<path class="st31" d="M297.2,239c0.7,1.1,1.6,2.1,2.7,2.9l-0.8,0.7c-1-0.7-1.8-1.7-2.5-2.7c-0.9,1.3-2,2.4-3.3,3.1l-0.7-0.7
		c2.6-1.4,4.2-4.3,4.4-6.2c-0.9,0-1.8,0-2.7,0h-1.1v-0.9h1.8c1,0,2.1,0,3.2,0C298.2,236.5,297.8,237.8,297.2,239z M303.3,239.4h-1.9
		v5.8h-1v-11h1v4.2h1.9V239.4z"/>
	<path class="st31" d="M303.8,242.1c2.8-1.4,4.3-3.6,4.6-6c-1,0-1.9,0-2.9,0h-1.3v-0.9h1.9c1.1,0,2.2,0,3.4,0
		c-0.2,3.3-1.8,5.9-5,7.7L303.8,242.1z M311.7,234.3h1v11h-1V234.3z"/>
	<path class="st31" d="M318.1,236.1c-0.8,0-1.6,0-2.4,0h-0.8v-0.9h1.5c0.9,0,1.9,0,2.9,0c-0.1,3.2-1.4,5.9-4.1,7.6l-0.7-0.7
		C316.7,240.7,317.9,238.5,318.1,236.1z M323.6,245.2h-1v-6h-1.4v5.7h-1v-10.6h1v4h1.4v-4.1h1V245.2z"/>
	<path class="st31" d="M325.5,239.4v-4.8h1v1.6h3v-1.6h1v4.8H325.5z M329.4,237.1h-3v1.4h3V237.1z M333.8,245.1h-7v-2.8h5.8v-1h-5.8
		v-0.9h6.8v2.7h-5.8v1.1h6V245.1z M335.3,237.5h-1.7v2.3h-1v-5.5h1v2.3h1.7V237.5z"/>
	<path class="st31" d="M313.9,253.6v0.9h-10.4v-0.9H313.9z M312.4,257.6c0,1.2-1.3,2.2-3.7,2.2c-2.5,0-3.7-0.9-3.7-2.2
		c0-1.2,1.3-2.1,3.7-2.1S312.4,256.3,312.4,257.6z M305.2,248.7h1.1v2.6h6.1v0.9h-7.1v-3.5H305.2z M311.3,257.6
		c0-0.7-0.6-1.3-2.6-1.3s-2.6,0.6-2.6,1.3c0,0.6,0.6,1.3,2.6,1.3C310.6,258.9,311.3,258.2,311.3,257.6z"/>
	<path class="st31" d="M315.9,254h1c1.8,0,3.1-0.2,4.3-0.5v0.9c-1.2,0.3-2.8,0.5-4.4,0.5h-1.9v-3.4h3.6V250h-3.6v-0.9h4.7v3.3H316
		v1.6H315.9z M322.4,259.7v-2.8h-6V256h7.1v3.7H322.4z M320.5,251v-0.8h1.8v-1.5h1v6.7h-1v-2.5h-1.8V252h1.8v-1H320.5z"/>
</g>
<g>
	<path class="st31" d="M259.5,293.1c0.7,1.1,1.6,2.1,2.7,2.9l-0.8,0.7c-1-0.7-1.8-1.7-2.5-2.7c-0.9,1.3-2,2.4-3.2,3.1l-0.7-0.7
		c2.6-1.4,4.2-4.3,4.4-6.2c-0.9,0-1.8,0-2.7,0h-1.1v-0.9h1.8c1,0,2.1,0,3.2,0C260.6,290.6,260.2,291.9,259.5,293.1z M265.7,293.5
		h-1.9v5.8h-1v-11h1v4.2h1.9V293.5z"/>
	<path class="st31" d="M266.2,293.6h2c1.6,0,4-0.1,5.5-0.3v0.8c-0.9,0.1-2,0.2-3.2,0.3v2.4h-1v-2.4c-0.4,0-0.9,0-1.3,0h-2V293.6z
		 M272.7,290.7c0,1.2-1.1,2.2-2.8,2.2s-2.8-0.9-2.8-2.2c0-1.2,1.1-2.2,2.8-2.2S272.7,289.5,272.7,290.7z M275.5,299.1h-7.6v-2.8h1
		v1.9h6.6V299.1z M271.7,290.7c0-0.6-0.4-1.3-1.7-1.3s-1.7,0.7-1.7,1.3c0,0.6,0.4,1.3,1.7,1.3S271.7,291.3,271.7,290.7z
		 M274.3,297.2v-1.3h-2.5V295h2.5v-6.6h1v8.8L274.3,297.2L274.3,297.2z"/>
	<path class="st31" d="M280,291.6v2.4c1.3,0,2.7-0.1,3.8-0.3v0.9c-1.5,0.2-3.8,0.3-5.5,0.3h-1.8V294h2.4v-2.4H280z M282.9,289
		c0,1.2-0.2,2.9-0.4,4h-1c0.2-1,0.3-2.1,0.4-3.2h-4.4V289H282.9z M285.6,299.1h-7.1V296h1v2.2h6.1V299.1z M284.4,296.8v-8.4h1v3.7
		h1.6v0.9h-1.6v3.7L284.4,296.8L284.4,296.8z"/>
	<path class="st31" d="M289.1,295.9h1.7c1.7,0,3.1-0.3,4-0.4v0.9c-0.9,0.2-2.7,0.5-4.1,0.5H288v-4.3h3.7v-2.2H288v-0.9h4.8v4h-3.7
		L289.1,295.9L289.1,295.9z M295.4,288.4h1v11h-1V288.4z"/>
	<path class="st31" d="M276.3,307.7v0.9h-10.4v-0.9H276.3z M274.7,311.7c0,1.2-1.3,2.2-3.7,2.2c-2.5,0-3.7-0.9-3.7-2.2
		c0-1.2,1.3-2.1,3.7-2.1C273.5,309.6,274.7,310.5,274.7,311.7z M267.6,302.8h1.1v2.6h6.1v0.9h-7.1v-3.5H267.6z M273.6,311.7
		c0-0.7-0.6-1.3-2.6-1.3s-2.6,0.6-2.6,1.3c0,0.6,0.6,1.3,2.6,1.3S273.6,312.3,273.6,311.7z"/>
	<path class="st31" d="M278.3,308.2h1c1.8,0,3.1-0.2,4.3-0.5v0.9c-1.2,0.3-2.8,0.5-4.4,0.5h-1.9v-3.4h3.6v-1.6h-3.6v-0.9h4.7v3.3
		h-3.6v1.7H278.3z M284.7,313.8V311h-6v-0.9h7.1v3.7L284.7,313.8L284.7,313.8z M282.9,305.1v-0.8h1.8v-1.5h1v6.7h-1V307h-1.8v-0.9
		h1.8v-1H282.9z"/>
</g>
<g>
	<path class="st31" d="M135,298.1c0.6,0.8,1.7,1.5,2.6,1.9l-0.6,0.8c-0.9-0.5-1.8-1.1-2.5-1.9c-1,1-2.2,1.8-3.2,2.1l-0.7-0.7
		c2.1-0.7,4-2.5,4.5-4.1c-0.8,0-1.7,0-2.6,0h-1.1v-0.9h1.8c1,0,2,0,3.1,0C136.2,296.3,135.7,297.2,135,298.1z M139.7,303.6
		c0,1.2-1.2,2.1-3.6,2.1c-2.4,0-3.6-0.9-3.6-2.1s1.2-2.1,3.6-2.1S139.7,302.4,139.7,303.6z M138.7,303.6c0-0.7-0.8-1.3-2.6-1.3
		c-1.7,0-2.5,0.6-2.5,1.3c0,0.6,0.8,1.2,2.5,1.2C137.9,304.9,138.7,304.3,138.7,303.6z M136.7,298.2v-0.9h1.9v-2.6h1v6.7h-1v-3.2
		H136.7z"/>
	<path class="st31" d="M142.8,300.9v-5.6h1v1.9h4.9v-1.9h1v5.6h-3v2.2h4.6v0.9h-10.2v-0.9h4.6v-2.2H142.8z M148.8,298.1h-4.9v2h4.9
		V298.1z"/>
	<path class="st31" d="M162.2,299.6v0.9h-10.4v-0.9H162.2z M160.7,303.6c0,1.2-1.3,2.2-3.7,2.2c-2.5,0-3.7-0.9-3.7-2.2
		c0-1.2,1.3-2.1,3.7-2.1C159.5,301.5,160.7,302.4,160.7,303.6z M153.6,294.7h1.1v2.6h6.1v0.9h-7.1v-3.5H153.6z M159.6,303.6
		c0-0.7-0.6-1.3-2.6-1.3s-2.6,0.6-2.6,1.3c0,0.6,0.6,1.3,2.6,1.3S159.6,304.2,159.6,303.6z"/>
	<path class="st31" d="M164.3,300.1h1c1.8,0,3.1-0.2,4.3-0.5v0.9c-1.2,0.3-2.8,0.5-4.4,0.5h-1.9v-3.4h3.6V296h-3.6v-0.9h4.7v3.3
		h-3.6v1.7H164.3z M170.7,305.7v-2.8h-6V302h7.1v3.7H170.7z M168.9,297v-0.8h1.8v-1.5h1v6.7h-1v-2.5h-1.8V298h1.8v-1L168.9,297
		L168.9,297z"/>
</g>
<g>
	<path class="st31" d="M96.3,247.9c2.8-1.4,4.3-3.6,4.6-6c-1,0-1.9,0-2.9,0h-1.3V241h1.9c1.1,0,2.2,0,3.4,0c-0.2,3.3-1.8,5.9-5,7.7
		L96.3,247.9z M104.1,240.1h1v11h-1V240.1z"/>
	<path class="st31" d="M111.3,246.5v-1.2h-4.7v-0.9H117v0.9h-4.7v1.2h3v2.6h-6.1v1h6.3v0.9h-7.4v-2.7h6.1v-1h-6.1v-0.9L111.3,246.5
		L111.3,246.5z M112.3,241.2c0.7,0.9,2.4,1.5,3.9,1.7l-0.5,0.8c-1.6-0.3-3-1-3.9-1.8c-0.9,1-2.5,1.7-3.8,1.9l-0.5-0.8
		c2.3-0.4,4.1-1.6,4.1-3h1.1C112.6,240.4,112.5,240.8,112.3,241.2z"/>
	<path class="st31" d="M127.8,245v0.9h-10.4V245H127.8z M126.3,248.9c0,1.2-1.3,2.2-3.7,2.2c-2.5,0-3.7-0.9-3.7-2.2
		c0-1.2,1.3-2.1,3.7-2.1C125,246.8,126.3,247.7,126.3,248.9z M119.1,240.1h1.1v2.6h6.1v0.9h-7.1L119.1,240.1L119.1,240.1z
		 M125.2,248.9c0-0.7-0.6-1.3-2.6-1.3s-2.6,0.6-2.6,1.3c0,0.6,0.6,1.3,2.6,1.3C124.5,250.2,125.2,249.6,125.2,248.9z"/>
	<path class="st31" d="M129.8,245.4h1c1.8,0,3.1-0.2,4.3-0.5v0.9c-1.2,0.3-2.8,0.5-4.4,0.5h-1.9v-3.4h3.6v-1.6h-3.6v-0.9h4.7v3.3
		h-3.6v1.7H129.8z M136.3,251v-2.8h-6v-0.9h7.1v3.7H136.3z M134.4,242.4v-0.8h1.8v-1.5h1v6.7h-1v-2.5h-1.8v-0.9h1.8v-1H134.4z"/>
</g>
<g>
	<path class="st31" d="M105.2,183.3H95v-0.9h4.6v-2.5h1.1v2.5h4.5V183.3z M101.1,177.8c1,0.6,2.1,1.1,3.5,1.6l-0.7,0.8
		c-1.3-0.5-2.5-1.1-3.5-1.9c-1.2,0.8-2.6,1.5-4,2l-0.6-0.8c2.7-0.8,5.2-2.5,5.9-3.8c-0.9,0-1.8,0-2.7,0h-2.2v-0.9h3.3
		c1,0,2.1,0,3.2,0C102.9,176,102.2,176.9,101.1,177.8z"/>
	<path class="st31" d="M110.6,177.2c0.6,0.8,1.6,1.5,2.4,1.9l-0.7,0.8c-0.8-0.5-1.7-1.2-2.4-1.9c-1.1,1.2-2.6,2-3.7,2.4l-0.7-0.8
		c2.2-0.8,4.2-2.5,4.7-4.2c-0.9,0-1.7,0-2.6,0h-1.3v-0.9h2.1c1.1,0,2,0,3.2,0C111.6,175.5,111.2,176.4,110.6,177.2z M113.8,185v-3.1
		h-6V181h7.1v3.9h-1.1V185z M113.8,174h1v6.4h-1V174z"/>
	<path class="st31" d="M122.4,178.5c0,2.6-1.2,3.9-2.8,3.9c-1.6,0-2.8-1.4-2.8-3.9c0-2.6,1.3-3.9,2.8-3.9
		C121.2,174.6,122.4,176,122.4,178.5z M121.4,178.5c0-1.8-0.6-3-1.8-3s-1.8,1.2-1.8,3s0.6,3,1.8,3S121.4,180.3,121.4,178.5z
		 M124.5,174h1v11h-1V174z"/>
	<path class="st31" d="M127.1,177.1v-0.9h5.1v0.9H127.1z M127.5,180.2c0-1.4,1-2.4,2.3-2.4s2.3,1,2.3,2.4s-1,2.3-2.3,2.3
		S127.5,181.5,127.5,180.2z M128.3,175.4v-0.9h3v0.9H128.3z M128.5,180.2c0,0.9,0.5,1.4,1.3,1.4s1.3-0.6,1.3-1.4
		c0-0.9-0.5-1.4-1.3-1.4C129.1,178.8,128.5,179.3,128.5,180.2z M136.4,184.9h-1v-5.6h-1.3v5.3h-1V174h1v4.3h1.3V174h1V184.9z"/>
	<path class="st31" d="M116,193.3v0.9h-10.4v-0.9H116z M114.5,197.3c0,1.2-1.3,2.2-3.7,2.2c-2.5,0-3.7-0.9-3.7-2.2
		c0-1.2,1.3-2.1,3.7-2.1C113.3,195.1,114.5,196,114.5,197.3z M107.3,188.4h1.1v2.6h6.1v0.9h-7.1L107.3,188.4L107.3,188.4z
		 M113.4,197.3c0-0.7-0.6-1.3-2.6-1.3s-2.6,0.6-2.6,1.3c0,0.6,0.6,1.3,2.6,1.3S113.4,197.9,113.4,197.3z"/>
	<path class="st31" d="M118.1,193.7h1c1.8,0,3.1-0.2,4.3-0.5v0.9c-1.2,0.3-2.8,0.5-4.4,0.5h-2v-3.4h3.6v-1.6H117v-0.9h4.7v3.3h-3.6
		V193.7z M124.5,199.4v-2.8h-6v-0.9h7.1v3.7H124.5z M122.7,190.7v-0.8h1.8v-1.5h1v6.7h-1v-2.5h-1.8v-0.9h1.8v-1H122.7z"/>
</g>
<g>
	<path class="st31" d="M133.4,125.4c0.6,0.8,1.6,1.5,2.4,1.9l-0.7,0.8c-0.8-0.5-1.7-1.2-2.4-1.9c-1.1,1.2-2.6,2-3.7,2.4l-0.7-0.8
		c2.2-0.8,4.2-2.5,4.7-4.2c-0.9,0-1.7,0-2.6,0h-1.3v-0.9h2.1c1.1,0,2,0,3.2,0C134.4,123.7,134,124.6,133.4,125.4z M136.6,133.2v-3.1
		h-6v-0.9h7.1v3.9h-1.1V133.2z M136.6,122.2h1v6.4h-1V122.2z"/>
	<path class="st31" d="M145.2,124.6h2.1v-2.3h1v5.6h-1v-2.4h-2.1c-0.2,1.4-1.3,2.3-2.7,2.3c-1.6,0-2.8-1.1-2.8-2.6
		c0-1.6,1.2-2.6,2.8-2.6C143.9,122.5,145,123.3,145.2,124.6z M142.5,123.3c-1,0-1.7,0.7-1.7,1.8c0,1.1,0.7,1.8,1.7,1.8
		s1.8-0.7,1.8-1.8C144.2,124.1,143.5,123.3,142.5,123.3z M148.3,133h-6.9v-4.5h1v1.3h4.8v-1.4h1L148.3,133L148.3,133z M147.3,132.1
		v-1.4h-4.8v1.4H147.3z"/>
	<path class="st31" d="M157.6,130.8h-1v-2.4h-2.2v2.4h-1v-2.4h-3.6v-0.9h10.4v0.9h-2.6L157.6,130.8L157.6,130.8z M159,133h-7.6v-3.4
		h1v2.5h6.6V133z M158.6,124.5c0,1.3-1.2,2.3-3.6,2.3c-2.4,0-3.6-1-3.6-2.3s1.2-2.3,3.6-2.3C157.4,122.1,158.6,123.1,158.6,124.5z
		 M157.5,124.5c0-0.8-0.7-1.5-2.5-1.5c-1.7,0-2.5,0.7-2.5,1.5s0.7,1.4,2.5,1.4C156.7,125.9,157.5,125.2,157.5,124.5z"/>
	<path class="st31" d="M162.3,129.7h1.7c1.7,0,3.1-0.3,4-0.4v0.9c-0.9,0.2-2.7,0.5-4.1,0.5h-2.6v-4.3h3.7V124h-3.8v-0.9h4.8v4h-3.7
		L162.3,129.7L162.3,129.7z M168.7,122.2h1v11h-1V122.2z"/>
</g>
<polygon id="Arrow_31_" class="st31" points="217.1,172 213.4,174.7 213.5,169.3 "/>
<polygon id="Arrow_13_" class="st31" points="185.9,183.4 185.2,187.9 181.3,184.1 "/>
<polygon id="Arrow_32_" class="st31" points="171.9,213.5 174.5,217.3 169.1,217.3 "/>
<polygon id="Arrow_33_" class="st31" points="183.3,244.8 187.8,245.5 184,249.3 "/>
<polygon id="Arrow_34_" class="st31" points="213.4,258.8 217.1,256.1 217.1,261.5 "/>
<polygon id="Arrow_35_" class="st31" points="244.7,247.4 245.3,242.9 249.2,246.7 "/>
<polygon id="Arrow_36_" class="st31" points="258.6,217.2 256,213.5 261.3,213.6 "/>
<polygon id="Arrow_37_" class="st31" points="247.2,186 242.8,185.3 246.5,181.5 "/>
<g id="Center_x5F_Circle_12_">
	
		<image style="overflow:visible;opacity:0.4;enable-background:new    ;" width="358" height="358" xlink:href="88F8502E.png"  transform="matrix(0.2373 0 0 0.2373 174.865 171.9857)">
	</image>
	<g>
		<g>
			<g id="Center_x5F_Circle_11_">
				
					<radialGradient id="SVGID_39_" cx="-673.7342" cy="-148.3384" r="72.4418" gradientTransform="matrix(-1 0 0 -1 -432.3922 41.6357)" gradientUnits="userSpaceOnUse">
					<stop  offset="0.2" style="stop-color:#FFFFFF"/>
					<stop  offset="0.5951" style="stop-color:#FDFDFD"/>
					<stop  offset="0.7897" style="stop-color:#F5F5F5"/>
					<stop  offset="0.9401" style="stop-color:#E8E8E8"/>
					<stop  offset="1" style="stop-color:#E0E0E0"/>
				</radialGradient>
				<path class="st49" d="M215.3,251.9c20.1,0,36.4-16.3,36.4-36.4s-16.3-36.4-36.4-36.4s-36.4,16.3-36.4,36.4
					C178.9,235.6,195.2,251.9,215.3,251.9z"/>
			</g>
		</g>
	</g>
</g>
<g>
	<path class="st50" d="M266.2,45.7v-7.1h1.1v2.7h3v-2.7h1v7.1H266.2z M270.3,42.2h-3.1v2.7h3.1V42.2z M273.6,37.8h1v11h-1V37.8z"/>
	<path class="st50" d="M277.6,42.9l-0.1-3.2h1l0.1,3.2h1c0.3,0,0.7,0,1.1,0v-3.2h1v3.1c0.6,0,1.2-0.1,1.7-0.3v0.8
		c-1,0.3-2.4,0.4-3.7,0.4h-3.3v-0.9h1.2V42.9z M276.4,39.3v-0.9h6.2v0.9H276.4z M285,48.5h-6.8v-3.3h1v2.4h5.8V48.5z M286.5,41.6
		h-1.7v4.1h-1v-8h1v3h1.7V41.6z"/>
	<path class="st50" d="M291.6,41.1c0.6,0.8,1.7,1.5,2.5,1.9l-0.7,0.8c-0.9-0.5-1.8-1.2-2.5-2c-1.1,1.1-2.4,1.9-3.5,2.3l-0.7-0.8
		c2.2-0.8,4.1-2.6,4.6-4.3c-0.9,0-1.7,0-2.6,0h-1.1v-0.9h1.9c1.1,0,2,0,3.2,0C292.7,39.3,292.3,40.3,291.6,41.1z M295,48.7v-3h-6
		v-0.9h7.1v3.9H295z M293.1,41.3v-0.9h1.9v-2.7h1v6.5h-1v-2.9C295,41.3,293.1,41.3,293.1,41.3z"/>
	<path class="st50" d="M298.9,48.9h-1l3.4-11.2h0.9L298.9,48.9z"/>
	<path class="st50" d="M262,61h-1.1v-2.4H256v-0.9h10.4v0.9H262V61z M265.1,62.9h-7.4v-3.1h1V62h6.3v0.9H265.1z M257.7,56.6v-4.4
		h1.1v1.4h4.8v-1.4h1.1v4.4H257.7z M263.6,54.5h-4.8v1.2h4.8V54.5z"/>
	<path class="st50" d="M270.9,52.4c0,0.7-0.1,1.4-0.2,2c0.7,1.3,1.6,2.2,3,2.8L273,58c-1.2-0.6-2.1-1.5-2.7-2.5
		c-0.6,1.2-1.6,2.2-2.8,2.8l-0.7-0.7c2.1-1.2,3.2-2.8,3-5.2C269.8,52.4,270.9,52.4,270.9,52.4z M274.9,63.1V60h-6v-0.9h7.1v4H274.9z
		 M272.7,55.3v-0.9h2.2v-2.3h1v6.4h-1v-3.2H272.7z"/>
	<path class="st50" d="M282.3,55.5c0.6,0.8,1.7,1.5,2.5,1.9l-0.7,0.8c-0.9-0.5-1.8-1.2-2.5-2c-1.1,1.1-2.4,1.9-3.5,2.3l-0.7-0.8
		c2.2-0.8,4.1-2.6,4.6-4.3c-0.9,0-1.7,0-2.6,0h-1.1v-0.9h1.9c1.1,0,2,0,3.2,0C283.3,53.7,282.9,54.7,282.3,55.5z M285.6,63.1v-3h-6
		v-0.9h7.1v3.9H285.6z M283.8,55.7v-0.9h1.9v-2.7h1v6.5h-1v-2.9C285.7,55.7,283.8,55.7,283.8,55.7z"/>
	<path class="st50" d="M291.3,60.7l-0.7-0.7c2-1.4,3.4-3.6,3.2-7.2h1.1c0,1-0.1,2-0.3,2.9c0.6,1.6,1.7,3,3.1,4l-0.7,0.8
		c-1.2-0.8-2.2-2-2.8-3.5C293.5,58.6,292.5,59.8,291.3,60.7z M301.3,57.4h-1.9v5.7h-1v-11h1v4.3h1.9V57.4z"/>
	<path class="st50" d="M311.8,61.5h-10.2v-0.9h3.9v-3.9h1v3.9h5.2v0.9H311.8z M309.6,59.2h-1c0.4-1.6,0.6-3.4,0.7-5.2h-6v-0.9h7.1
		C310.2,55,309.9,57.5,309.6,59.2z"/>
</g>
<g>
	<path class="st50" d="M365.1,146.1c0.7,0.5,1.5,1,2.5,1.4l-0.6,0.8c-0.9-0.4-1.8-0.9-2.5-1.5c-0.9,0.8-2.1,1.4-3.2,1.8l-0.7-0.7
		c2.3-0.7,3.9-2.1,4.5-3.3c-0.9,0-1.8,0-2.7,0h-1.3v-0.8h2c1,0,2.1,0,3.2,0C366.3,144.5,365.8,145.4,365.1,146.1z M369.3,151
		c0,1.2-1.2,2.1-3.6,2.1s-3.5-0.9-3.5-2.1c0-1.2,1.2-2,3.5-2S369.3,149.8,369.3,151z M362.2,142.1h3.3v0.8h-3.3V142.1z M368.2,151.1
		c0-0.7-0.8-1.2-2.5-1.2s-2.5,0.5-2.5,1.2c0,0.6,0.8,1.2,2.5,1.2C367.4,152.2,368.2,151.7,368.2,151.1z M370.9,145.7h-1.7v3.1h-1
		V142h1v2.8h1.7V145.7z"/>
	<path class="st50" d="M371.4,149.8h2.2c1.6,0,4-0.1,5.5-0.3v0.9c-1.5,0.2-3.8,0.3-5.5,0.3h-2.2V149.8z M377.8,145.5
		c0,1.6-1.1,2.8-2.8,2.8s-2.8-1.2-2.8-2.8s1.1-2.8,2.8-2.8S377.8,143.9,377.8,145.5z M376.7,145.5c0-1.1-0.7-1.9-1.8-1.9
		s-1.8,0.7-1.8,1.9c0,1.1,0.7,1.9,1.8,1.9S376.7,146.6,376.7,145.5z M380.7,153h-1v-11h1V153z"/>
	<path class="st50" d="M383.6,147.4h1c1.8,0,3.1-0.2,4.3-0.5v0.9c-1.2,0.3-2.8,0.5-4.4,0.5h-1.9v-3.4h3.6v-1.6h-3.6v-0.9h4.7v3.3
		h-3.6v1.7H383.6z M390,153v-2.8h-6v-0.9h7.1v3.7H390z M388.2,144.4v-0.8h1.8V142h1v6.7h-1v-2.5h-1.8v-0.9h1.8v-1L388.2,144.4
		L388.2,144.4z"/>
</g>
<g>
	<path class="st50" d="M362.2,272.1v-4.3h1.1v1.3h4.8v-1.3h1.1v4.3h-3v1.3h4.7v0.9h-10.4v-0.9h4.7v-1.3H362.2z M368.1,278.6v-2.5
		h-6.2v-0.9h7.2v3.4H368.1z M368.1,269.9h-4.8v1.3h4.8V269.9z"/>
	<path class="st50" d="M371.2,269.9v-0.8h6.5v0.8H371.2z M374.5,273.9c-1.8,0-2.7-0.8-2.7-1.8c0-0.9,0.8-1.7,2.7-1.7
		s2.7,0.8,2.7,1.7C377.1,273.1,376.3,273.9,374.5,273.9z M372.7,268.4v-0.8h3.6v0.8H372.7z M374.5,273.1c1.2,0,1.6-0.5,1.6-1
		s-0.4-1-1.6-1s-1.6,0.5-1.6,1C372.8,272.7,373.3,273.1,374.5,273.1z M379.9,278.4h-6.8v-3.8h1v1h4.7v-1.1h1L379.9,278.4
		L379.9,278.4z M378.8,277.6v-1.1h-4.7v1.1H378.8z M381.6,271.4h-1.7v2.5h-1v-6.3h1v2.9h1.7V271.4z"/>
	<path class="st50" d="M386.7,271c0.6,0.8,1.7,1.5,2.5,1.9l-0.7,0.8c-0.9-0.5-1.8-1.2-2.5-2c-1.1,1.1-2.4,1.9-3.5,2.3l-0.7-0.8
		c2.2-0.8,4.1-2.6,4.6-4.3c-0.9,0-1.7,0-2.6,0h-1.1V268h1.9c1.1,0,2,0,3.2,0C387.8,269.2,387.3,270.2,386.7,271z M390,278.6v-3h-6
		v-0.9h7.1v3.9H390z M388.2,271.2v-0.9h1.9v-2.7h1v6.5h-1v-2.9H388.2z"/>
	<path class="st50" d="M355.4,289.8h2.2c1.6,0,4-0.1,5.5-0.3v0.9c-1.5,0.2-3.8,0.3-5.5,0.3h-2.2V289.8z M361.7,285.5
		c0,1.6-1.1,2.8-2.8,2.8s-2.8-1.2-2.8-2.8s1.1-2.8,2.8-2.8S361.7,283.9,361.7,285.5z M360.7,285.5c0-1.1-0.7-1.9-1.8-1.9
		s-1.8,0.7-1.8,1.9c0,1.1,0.7,1.9,1.8,1.9S360.7,286.6,360.7,285.5z M364.6,293h-1v-11h1V293z"/>
	<path class="st50" d="M366.3,290.6l-0.7-0.7c2-1.4,3.4-3.6,3.2-7.2h1.1c0,1-0.1,2-0.3,2.9c0.6,1.6,1.7,3,3.1,4l-0.7,0.8
		c-1.2-0.8-2.2-2-2.8-3.5C368.5,288.5,367.5,289.7,366.3,290.6z M376.3,287.3h-1.9v5.7h-1v-11h1v4.3h1.9V287.3z"/>
	<path class="st50" d="M386.8,291.4h-10.2v-0.9h4.6v-2.8h1.1v2.8h4.5V291.4z M382.2,284.1c0.9,1.6,2.3,2.8,4.1,3.4l-0.7,0.8
		c-1.5-0.5-2.9-1.7-3.8-3.1c-0.8,1.5-2.2,2.5-3.8,3.1l-0.7-0.8c2.4-0.8,4-2.3,3.9-4.9h1.1C382.4,283.1,382.3,283.6,382.2,284.1z"/>
	<path class="st50" d="M388.9,286.7v-4.4h7v0.9h-6v0.9h5.8v0.8H390v1h6.1v0.8h-3.2v1.1h4.7v0.9h-10.4v-0.9h4.7v-1.1L388.9,286.7
		L388.9,286.7z M396.2,291.2c0,1.1-1.3,1.9-3.7,1.9c-2.5,0-3.7-0.8-3.7-1.9s1.3-1.9,3.7-1.9C395,289.4,396.2,290.2,396.2,291.2z
		 M395.1,291.2c0-0.5-0.6-1-2.6-1s-2.6,0.5-2.6,1s0.6,1,2.6,1C394.5,292.3,395.1,291.8,395.1,291.2z"/>
</g>
<g>
	<path class="st50" d="M262.9,373.9v-0.8h6.4v0.8H262.9z M266.1,377.8c-1.8,0-2.6-0.8-2.6-1.7c0-0.9,0.8-1.7,2.6-1.7
		s2.6,0.8,2.6,1.7S267.9,377.8,266.1,377.8z M264.4,372.5v-0.8h3.6v0.8H264.4z M266.1,377c1.2,0,1.6-0.5,1.6-1s-0.4-1-1.6-1
		s-1.6,0.5-1.6,1C264.5,376.6,265,377,266.1,377z M271.9,382.5H265v-3.9h1v1h4.8v-1.1h1v4H271.9z M270.9,381.6v-1.2h-4.8v1.2H270.9z
		 M269.1,375.2v-0.8h1.8v-2.7h1v6.2h-1v-0.6h-1.8v-0.8h1.8v-1.2h-1.8V375.2z"/>
	<path class="st50" d="M279.5,374.1h2.1v-2.3h1v5.6h-1V375h-2.1c-0.2,1.4-1.3,2.3-2.7,2.3c-1.6,0-2.8-1.1-2.8-2.6
		c0-1.6,1.2-2.6,2.8-2.6C278.2,372,279.3,372.8,279.5,374.1z M276.8,372.8c-1,0-1.7,0.7-1.7,1.8c0,1.1,0.7,1.8,1.7,1.8
		s1.8-0.7,1.8-1.8C278.5,373.6,277.8,372.8,276.8,372.8z M282.6,382.5h-6.9V378h1v1.3h4.8V378h1v4.5H282.6z M281.6,381.6v-1.4h-4.8
		v1.4H281.6z"/>
	<path class="st50" d="M294.5,376.6v0.9h-10.4v-0.9H294.5z M293,380.6c0,1.2-1.3,2.2-3.7,2.2c-2.5,0-3.7-0.9-3.7-2.2
		c0-1.2,1.3-2.1,3.7-2.1C291.8,378.5,293,379.4,293,380.6z M285.8,371.8h1.1v2.6h6.1v0.9h-7.1v-3.5H285.8z M291.9,380.6
		c0-0.7-0.6-1.3-2.6-1.3s-2.6,0.6-2.6,1.3c0,0.6,0.6,1.3,2.6,1.3S291.9,381.3,291.9,380.6z"/>
	<path class="st50" d="M296.6,377.1h1c1.8,0,3.1-0.2,4.3-0.5v0.9c-1.2,0.3-2.8,0.5-4.4,0.5h-1.9v-3.4h3.6V373h-3.6v-0.9h4.7v3.3
		h-3.6v1.7H296.6z M303,382.7v-2.8h-6V379h7.1v3.7H303z M301.2,374.1v-0.8h1.8v-1.5h1v6.7h-1V376h-1.8v-0.9h1.8v-1L301.2,374.1
		L301.2,374.1z"/>
</g>
<g>
	<path class="st50" d="M131.9,365.7h5v0.9h-4v5.4h1.6c1.6,0,3-0.3,3.9-0.4v0.9c-0.9,0.3-2.6,0.5-4,0.5h-2.5V365.7z M139.2,364.8h1
		v11h-1V364.8z"/>
	<path class="st50" d="M146.4,369.5c0.7,1,1.6,2.1,2.7,2.8l-0.8,0.7c-1-0.7-1.8-1.7-2.4-2.7c-0.9,1.3-2.1,2.4-3.3,3.1l-0.7-0.7
		c2.6-1.4,4.4-4.3,4.6-6.2c-0.9,0-1.8,0-2.7,0h-1.3v-0.9h1.9c1,0,2.1,0,3.2,0C147.6,367,147.1,368.3,146.4,369.5z M149.9,364.8h1v11
		h-1V364.8z"/>
	<path class="st50" d="M155.5,370h-2.2v-4.9h4.9v0.9h-3.9v1.2h3.6v0.8h-3.6v1.2h1.4c1.4,0,2.8-0.1,3.9-0.4v0.8
		C158.4,369.9,156.9,370,155.5,370z M161.9,375.6h-7.1v-2.8h5.9v-1h-5.9V371h6.9v2.7h-5.9v1h6.1V375.6z M158.9,367.8v-0.9h1.8v-2.1
		h1v5.6h-1v-2.6H158.9z"/>
	<path class="st50" d="M127.5,386.6h1.7c1.7,0,3.1-0.3,4-0.4v0.9c-0.9,0.2-2.7,0.5-4.1,0.5h-2.6v-4.3h3.7v-2.2h-3.8V380h4.8v4h-3.7
		V386.6z M133.9,379.2h1v11h-1V379.2z"/>
	<path class="st50" d="M139.5,387.4h-2.4v-7.3h4.8v0.9h-3.7v2.3h3.5v0.9h-3.5v2.4h1.5c1.3,0,2.6-0.2,3.8-0.4v0.9
		C142.3,387.2,140.9,387.4,139.5,387.4z M142.6,383.9V383h1.9v-3.8h1v11h-1V384h-1.9V383.9z"/>
	<path class="st50" d="M148.9,386.6h1.2c1.7,0,3.1-0.3,4-0.4v0.9c-0.9,0.2-2.7,0.5-4.1,0.5h-2.1v-4.3h3.7v-2.2h-3.8V380h4.8v4h-3.7
		L148.9,386.6L148.9,386.6z M153.4,383.9V383h1.8v-3.9h1v11h-1v-6.2H153.4z"/>
	<path class="st50" d="M158.4,387.7l-0.7-0.7c2-1.4,3.4-3.6,3.2-7.2h1.1c0,1-0.1,2-0.3,2.9c0.6,1.6,1.7,3,3.1,4l-0.7,0.8
		c-1.2-0.8-2.2-2-2.8-3.5C160.7,385.6,159.7,386.8,158.4,387.7z M166,379.2h1v11h-1V379.2z"/>
</g>
<g>
	<path class="st50" d="M30.3,275.3H32c1.1,0,2.2,0,3.4,0c-0.2,2.5-2,4.7-5.1,5.7l-0.6-0.8c2.5-0.7,4.1-2.1,4.5-4c-0.9,0-1.9,0-2.9,0
		h-1C30.3,276.2,30.3,275.3,30.3,275.3z M38.1,285.6h-6.7v-4.1h6.7V285.6z M37.1,282.4h-4.7v2.3h4.7V282.4z M39.8,278.2h-1.7v2.6h-1
		v-6.1h1v2.5h1.7V278.2z"/>
	<path class="st50" d="M44.3,275.1c0,0.7-0.1,1.4-0.2,2c0.7,1.3,1.6,2.2,2.9,2.8l-0.6,0.7c-1.1-0.6-2.1-1.5-2.7-2.5
		c-0.6,1.2-1.5,2.2-2.7,2.8l-0.7-0.7c2.1-1.2,3.1-2.8,3-5.2h1V275.1z M49.4,283.7c0,1.2-1.2,2.1-3.6,2.1c-2.4,0-3.6-0.9-3.6-2.1
		s1.2-2.1,3.6-2.1S49.4,282.5,49.4,283.7z M48.3,283.7c0-0.7-0.8-1.3-2.6-1.3c-1.7,0-2.5,0.6-2.5,1.3c0,0.6,0.8,1.2,2.5,1.2
		C47.6,285,48.3,284.4,48.3,283.7z M46.1,278v-0.9h2.2v-2.3h1v6.6h-1V278H46.1z"/>
	<path class="st50" d="M55.5,279.5c0.7,1,1.6,2.1,2.7,2.8l-0.8,0.7c-1-0.7-1.8-1.7-2.4-2.7c-0.9,1.3-2.1,2.4-3.3,3.1l-0.7-0.7
		c2.6-1.4,4.4-4.3,4.6-6.2c-0.9,0-1.8,0-2.7,0h-1.3v-0.9h1.9c1,0,2.1,0,3.2,0C56.6,277,56.2,278.3,55.5,279.5z M59,274.8h1v11h-1
		V274.8z"/>
	<path class="st50" d="M71.9,279.7v0.9H61.5v-0.9H71.9z M70.4,283.7c0,1.2-1.3,2.2-3.7,2.2c-2.5,0-3.7-0.9-3.7-2.2
		c0-1.2,1.3-2.1,3.7-2.1C69.2,281.5,70.4,282.4,70.4,283.7z M63.2,274.8h1.1v2.6h6.1v0.9h-7.1v-3.5H63.2z M69.3,283.7
		c0-0.7-0.6-1.3-2.6-1.3s-2.6,0.6-2.6,1.3c0,0.6,0.6,1.3,2.6,1.3C68.7,285,69.3,284.3,69.3,283.7z"/>
</g>
<g>
	<path class="st50" d="M31.1,139.3V135h1.1v1.3H37V135h1.1v4.3h-3v1.3h4.7v0.9H29.4v-0.9h4.7v-1.3H31.1z M37.1,145.8v-2.5h-6.2v-0.9
		h7.2v3.4H37.1z M37,137.1h-4.8v1.3H37V137.1z"/>
	<path class="st50" d="M40.2,137.1v-0.8h6.5v0.8H40.2z M43.4,141.1c-1.8,0-2.7-0.8-2.7-1.8c0-0.9,0.8-1.7,2.7-1.7s2.7,0.8,2.7,1.7
		C46.1,140.3,45.3,141.1,43.4,141.1z M41.7,135.6v-0.8h3.6v0.8H41.7z M43.4,140.3c1.2,0,1.6-0.5,1.6-1s-0.4-1-1.6-1
		c-1.2,0-1.6,0.5-1.6,1C41.8,139.9,42.3,140.3,43.4,140.3z M48.8,145.6H42v-3.8h1v1h4.7v-1.1h1L48.8,145.6L48.8,145.6z M47.8,144.8
		v-1.1h-4.7v1.1H47.8z M50.5,138.6h-1.7v2.5h-1v-6.3h1v2.9h1.7V138.6z"/>
	<path class="st50" d="M56.8,143.5h-1.1v-2.3h-4.9v-0.9h10.4v0.9h-4.4C56.8,141.2,56.8,143.5,56.8,143.5z M59.9,145.6h-7.4v-3.3h1
		v2.4h6.3v0.9H59.9z M52.5,139.1v-3.9h6.9v3.9H52.5z M58.4,138.2V136h-4.8v2.1L58.4,138.2L58.4,138.2z"/>
	<path class="st50" d="M65,136.6c-0.6,0-1.4,0-2.1,0h-0.7v-0.9h1.3c0.8,0,1.7,0,2.6,0c-0.1,1.3-0.4,2.5-0.9,3.6
		c0.5,1.1,1.3,2.1,2.1,2.8l-0.8,0.7c-0.7-0.7-1.3-1.5-1.8-2.5c-0.6,1.1-1.4,2.1-2.4,2.9l-0.8-0.6C63.6,141,64.7,139.1,65,136.6z
		 M67.7,135h1v10.6h-1v-5.9h-1.5v-0.9h1.5V135z M70.9,145.8h-1v-11h1V145.8z"/>
	<path class="st50" d="M29.5,152.4v-0.9h5.1v0.9H29.5z M29.9,155.5c0-1.4,1-2.4,2.3-2.4c1.3,0,2.3,1,2.3,2.4s-1,2.3-2.3,2.3
		C30.9,157.8,29.9,156.8,29.9,155.5z M30.7,150.6v-0.9h3v0.9H30.7z M30.9,155.5c0,0.9,0.5,1.4,1.3,1.4c0.8,0,1.3-0.6,1.3-1.4
		c0-0.9-0.5-1.4-1.3-1.4C31.4,154,30.9,154.6,30.9,155.5z M38.8,160.2h-1v-5.6h-1.3v5.3h-1v-10.6h1v4.3h1.3v-4.5h1V160.2z"/>
	<path class="st50" d="M45.1,150.6c-0.9,0-1.8,0-2.8,0h-1.1v-0.9H43c1.1,0,2.2,0,3.3,0c-0.2,2.3-2.1,4.3-5.1,5.2l-0.6-0.8
		C43,153.4,44.6,152.3,45.1,150.6z M49.6,160.1h-7.1v-2.7h5.9v-1h-5.9v-0.9h6.9v2.7h-5.9v1h6.1V160.1z M48.3,150.8v-1.6h1v5.6h-1
		v-1.2h-2.1v-0.9h2.1v-1.1h-1.8v-0.9L48.3,150.8L48.3,150.8z"/>
	<path class="st50" d="M61.2,154.2v0.9H50.8v-0.9H61.2z M59.7,158.1c0,1.2-1.3,2.2-3.7,2.2c-2.5,0-3.7-0.9-3.7-2.2
		c0-1.2,1.3-2.1,3.7-2.1C58.5,156,59.7,156.9,59.7,158.1z M52.5,149.3h1.1v2.6h6.1v0.9h-7.1L52.5,149.3L52.5,149.3z M58.6,158.1
		c0-0.7-0.6-1.3-2.6-1.3s-2.6,0.6-2.6,1.3c0,0.6,0.6,1.3,2.6,1.3C58,159.4,58.6,158.8,58.6,158.1z"/>
	<path class="st50" d="M63.3,154.6h1c1.8,0,3.1-0.2,4.3-0.5v0.9c-1.2,0.3-2.8,0.5-4.4,0.5h-1.9v-3.4h3.6v-1.6h-3.6v-0.9H67v3.3h-3.6
		v1.7H63.3z M69.7,160.2v-2.8h-6v-0.9h7.1v3.7H69.7z M67.9,151.6v-0.8h1.8v-1.5h1v6.7h-1v-2.5h-1.8v-0.9h1.8v-1H67.9z"/>
</g>
<g>
	<path class="st50" d="M136.5,46h-4.8v-7h4.8V46z M135.5,45.1v-5.3h-2.7v5.3H135.5z M141.6,42.9h-1.9V49h-1V38h1v3.9h1.9V42.9z"/>
	<path class="st50" d="M152.2,43.2v0.9h-10.4v-0.9H152.2z M150.6,40.2c0,1.3-1.2,2.1-3.6,2.1c-2.4,0-3.6-0.9-3.6-2.1
		c0-1.2,1.2-2.2,3.6-2.2C149.4,38,150.6,38.9,150.6,40.2z M143.4,48.8v-3.7h7.2v3.7H143.4z M149.4,40.2c0-0.7-0.8-1.4-2.5-1.4
		c-1.8,0-2.5,0.7-2.5,1.4c0,0.6,0.8,1.2,2.5,1.2C148.7,41.5,149.4,40.9,149.4,40.2z M149.6,46h-5.1v1.9h5.1V46z"/>
	<path class="st50" d="M152.7,45.8h2.2c1.6,0,4-0.1,5.5-0.3v0.9c-1.5,0.2-3.8,0.3-5.5,0.3h-2.2V45.8z M159.1,41.5
		c0,1.6-1.1,2.8-2.8,2.8s-2.8-1.2-2.8-2.8s1.1-2.8,2.8-2.8S159.1,39.9,159.1,41.5z M158,41.5c0-1.1-0.7-1.9-1.8-1.9
		s-1.8,0.7-1.8,1.9c0,1.1,0.7,1.9,1.8,1.9S158,42.6,158,41.5z M162,49h-1V38h1V49z"/>
	<path class="st50" d="M146.8,57.2v0.9h-10.4v-0.9H146.8z M142,53.7c0.7,0.9,2.4,1.7,3.9,1.9l-0.5,0.8c-1.6-0.3-3-1.1-3.9-2
		c-0.9,1-2.5,1.8-3.8,2.1l-0.5-0.8c2.3-0.4,4.1-1.8,4.1-3.2h1.1C142.4,52.9,142.2,53.3,142,53.7z M138.1,63.2v-4.3h1v1.3h5v-1.3h1
		v4.3H138.1z M144.2,61.1h-5v1.3h5V61.1z"/>
	<path class="st50" d="M150.6,55.6V58c1.3,0,2.7-0.1,3.8-0.3v0.9c-1.5,0.2-3.8,0.3-5.5,0.3h-1.8V58h2.4v-2.4H150.6z M153.4,53
		c0,1.2-0.2,2.9-0.4,4h-1c0.2-1,0.3-2.1,0.4-3.2H148V53H153.4z M156.1,63.2H149v-3.1h1v2.2h6.1V63.2z M154.9,60.8v-8.4h1v3.7h1.6V57
		h-1.6v3.7L154.9,60.8L154.9,60.8z"/>
</g>
</svg>
